<svg width="96" height="96" viewBox="0 0 96 96" fill="none" xmlns="http://www.w3.org/2000/svg">
<path d="M48 96C74.5097 96 96 74.5097 96 48C96 21.4903 74.5097 0 48 0C21.4903 0 0 21.4903 0 48C0 74.5097 21.4903 96 48 96Z" fill="#8B7AE6"/>
<path d="M88.013 26.9199H84.208C83.9003 26.9199 83.6053 27.0421 83.3877 27.2597C83.1702 27.4772 83.048 27.7723 83.048 28.0799V34.4219L79.762 37.6699L80.042 39.5389L83.953 36.0039C84.0375 36.0239 84.1241 36.0343 84.211 36.0349H88.019C88.3266 36.0349 88.6217 35.9127 88.8392 35.6952C89.0568 35.4776 89.179 35.1826 89.179 34.8749V28.0799C89.179 27.9274 89.1489 27.7764 89.0905 27.6355C89.0321 27.4947 88.9465 27.3667 88.8385 27.259C88.7306 27.1512 88.6025 27.0658 88.4615 27.0076C88.3205 26.9495 88.1695 26.9197 88.017 26.9199H88.013Z" fill="#4FE4C0"/>
<path d="M80.043 40.1129C79.9768 40.1129 79.9112 40.1014 79.849 40.0789C79.7509 40.0438 79.6641 39.9827 79.5979 39.9023C79.5317 39.8218 79.4886 39.7249 79.473 39.6219L79.193 37.7529C79.1788 37.6624 79.1864 37.5699 79.2151 37.483C79.2438 37.396 79.2928 37.3172 79.358 37.2529L82.475 34.1749V28.0749C82.4753 27.6143 82.6583 27.1726 82.984 26.8469C83.3097 26.5212 83.7514 26.3382 84.212 26.3379H88.017C88.4776 26.3382 88.9192 26.5212 89.2449 26.8469C89.5706 27.1726 89.7537 27.6143 89.754 28.0749V34.8669C89.7537 35.3275 89.5706 35.7691 89.2449 36.0948C88.9192 36.4205 88.4776 36.6036 88.017 36.6039H84.143L80.431 39.9579C80.3248 40.0544 80.1865 40.1079 80.043 40.1079V40.1129ZM80.376 37.8719L80.454 38.3879L83.567 35.5739C83.6357 35.5117 83.7183 35.4669 83.808 35.4434C83.8976 35.4199 83.9916 35.4184 84.082 35.4389C84.1245 35.4496 84.1681 35.4553 84.212 35.4559H88.017C88.1715 35.4556 88.3197 35.3941 88.4289 35.2848C88.5382 35.1756 88.5997 35.0274 88.6 34.8729V28.0799C88.5997 27.9254 88.5382 27.7772 88.4289 27.6679C88.3197 27.5587 88.1715 27.4972 88.017 27.4969H84.212C84.0575 27.4972 83.9093 27.5587 83.8 27.6679C83.6908 27.7772 83.6293 27.9254 83.629 28.0799V34.4259C83.6289 34.5024 83.6135 34.5782 83.5838 34.6488C83.5541 34.7193 83.5106 34.7833 83.456 34.8369L80.376 37.8719Z" fill="#4C0095"/>
<path d="M7.697 26.9199H11.502C11.8096 26.9199 12.1047 27.0421 12.3222 27.2597C12.5398 27.4772 12.662 27.7723 12.662 28.0799V34.4219L15.948 37.6699L15.668 39.5389L11.758 36.0019C11.6734 36.0219 11.5869 36.0323 11.5 36.0329H7.692C7.38435 36.0329 7.0893 35.9107 6.87176 35.6932C6.65422 35.4756 6.532 35.1806 6.532 34.8729V28.0799C6.532 27.9274 6.56207 27.7764 6.62049 27.6355C6.67891 27.4947 6.76454 27.3667 6.87247 27.259C6.98039 27.1512 7.1085 27.0658 7.24947 27.0076C7.39044 26.9495 7.5415 26.9197 7.694 26.9199H7.697Z" fill="#4FE4C0"/>
<path d="M15.67 40.1129C15.7362 40.1129 15.8018 40.1014 15.864 40.0789C15.9622 40.0439 16.049 39.9829 16.1152 39.9024C16.1814 39.8219 16.2245 39.725 16.24 39.6219L16.52 37.7529C16.5341 37.6624 16.5265 37.5699 16.4979 37.483C16.4692 37.396 16.4202 37.3172 16.355 37.2529L13.238 34.1749V28.0749C13.2377 27.6145 13.0548 27.173 12.7293 26.8473C12.4038 26.5216 11.9624 26.3384 11.502 26.3379H7.69701C7.23641 26.3382 6.79475 26.5212 6.46906 26.8469C6.14336 27.1726 5.96027 27.6143 5.96001 28.0749V34.8669C5.96027 35.3275 6.14336 35.7691 6.46906 36.0948C6.79475 36.4205 7.23641 36.6036 7.69701 36.6039H11.571L15.283 39.9579C15.3892 40.0544 15.5275 40.1079 15.671 40.1079L15.67 40.1129ZM15.337 37.8719L15.259 38.3879L12.146 35.5739C12.0774 35.5116 11.9947 35.4668 11.905 35.4433C11.8154 35.4198 11.7214 35.4183 11.631 35.4389C11.5885 35.4496 11.5449 35.4553 11.501 35.4559H7.69601C7.54147 35.4556 7.39333 35.3941 7.28405 35.2848C7.17477 35.1756 7.11327 35.0274 7.11301 34.8729V28.0799C7.11327 27.9254 7.17477 27.7772 7.28405 27.6679C7.39333 27.5587 7.54147 27.4972 7.69601 27.4969H11.501C11.6555 27.4972 11.8037 27.5587 11.913 27.6679C12.0222 27.7772 12.0837 27.9254 12.084 28.0799V34.4259C12.0841 34.5024 12.0995 34.5782 12.1292 34.6488C12.1589 34.7193 12.2023 34.7833 12.257 34.8369L15.337 37.8719Z" fill="#4C0095"/>
<path d="M20.065 83.7471H10.952C10.3456 83.8063 9.74009 83.6263 9.26436 83.2457C8.78864 82.865 8.4803 82.3137 8.405 81.7091L8.373 69.3021C8.44686 68.6965 8.75463 68.1438 9.23054 67.7621C9.70646 67.3803 10.3128 67.1998 10.92 67.2591L20.067 67.2851C20.6733 67.226 21.2787 67.4059 21.7542 67.7866C22.2298 68.1673 22.5379 68.7186 22.613 69.3231V81.7091C22.5377 82.3139 22.2292 82.8654 21.7533 83.2461C21.2773 83.6267 20.6716 83.8065 20.065 83.7471ZM10.913 68.3431C10.629 68.3157 10.3456 68.4003 10.1231 68.5789C9.90059 68.7575 9.75667 69.0159 9.722 69.2991L9.754 81.7061C9.79035 81.9889 9.93505 82.2465 10.1576 82.4246C10.3801 82.6028 10.6632 82.6876 10.947 82.6611H20.059C20.3427 82.6876 20.6256 82.6029 20.8481 82.425C21.0706 82.247 21.2154 81.9897 21.252 81.7071V69.3241C21.2157 69.0414 21.071 68.7838 20.8484 68.6056C20.6259 68.4275 20.3428 68.3427 20.059 68.3691L10.913 68.3431Z" fill="#2F3A5A"/>
<path d="M87.202 73.1899V81.7499C87.202 82.4789 86.366 83.0689 85.334 83.0689H76.222C75.191 83.0689 74.356 82.4779 74.354 81.7499L74.327 73.1899H87.202Z" fill="#8C6AA7"/>
<path d="M85.334 84.1578H76.222C74.817 84.1578 73.678 83.3228 73.676 82.2948L73.649 73.0098C73.649 72.7358 73.949 72.5098 74.326 72.5098H87.202C87.576 72.5098 87.879 72.7318 87.879 73.0098V82.2958C87.879 83.3238 86.738 84.1568 85.334 84.1578ZM75.004 73.5038L75.03 81.8818C75.03 82.3638 75.563 82.7548 76.222 82.7548H85.334C85.992 82.7548 86.524 82.3638 86.526 81.8828V73.5038H75.004Z" fill="#4C0095"/>
<path d="M21.933 73.1899V81.7499C21.933 82.4789 21.097 83.0689 20.065 83.0689H10.953C9.921 83.0689 9.084 82.4779 9.085 81.7499L9.057 73.1899H21.933Z" fill="#8C6AA7"/>
<path d="M20.065 84.1578H10.953C9.548 84.1578 8.409 83.3228 8.408 82.2948L8.38 73.0098C8.38 72.7358 8.68 72.5098 9.057 72.5098H21.933C22.307 72.5098 22.61 72.7318 22.61 73.0098V82.2958C22.61 83.3238 21.469 84.1568 20.065 84.1578ZM9.735 73.5038L9.761 81.8818C9.761 82.3638 10.294 82.7548 10.953 82.7548H20.065C20.723 82.7548 21.256 82.3638 21.257 81.8828V73.5038H9.735Z" fill="#4C0095"/>
<path d="M83.262 47.4118L81.062 47.0598C80.9253 47.0384 80.7873 47.027 80.649 47.0258C80.5354 47.0246 80.422 47.0337 80.31 47.0528C80.2763 47.0542 80.2428 47.0589 80.21 47.0668C80.1247 47.0743 80.0408 47.0925 79.96 47.1208C79.9494 47.1258 79.9377 47.1282 79.926 47.1278C79.811 47.1688 79.696 47.2088 79.588 47.2568C79.4989 47.295 79.413 47.3402 79.331 47.3918C79.3145 47.3993 79.2988 47.4084 79.284 47.4188C79.199 47.4696 79.1174 47.5261 79.04 47.5878L79.027 47.6028C78.953 47.6638 78.878 47.7318 78.81 47.8028C78.7813 47.8305 78.7543 47.8599 78.729 47.8908C78.667 47.956 78.6105 48.0263 78.56 48.1008C78.5065 48.1689 78.4589 48.2415 78.418 48.3178C78.3937 48.3514 78.3733 48.3876 78.357 48.4258C78.3464 48.4395 78.3395 48.4556 78.337 48.4728C78.2985 48.5395 78.2667 48.6098 78.242 48.6828C78.2312 48.7047 78.2222 48.7274 78.215 48.7508C78.1796 48.8489 78.1502 48.9491 78.127 49.0508L77.376 52.3678C77.3297 52.5559 77.3069 52.749 77.308 52.9428V62.8878H18.708V52.9428C18.7092 52.749 18.6863 52.5559 18.64 52.3678L17.889 49.0508C17.8658 48.9491 17.8364 48.8489 17.801 48.7508C17.7938 48.7274 17.7848 48.7047 17.774 48.6828C17.7493 48.6098 17.7175 48.5395 17.679 48.4728C17.6765 48.4556 17.6696 48.4395 17.659 48.4258C17.6427 48.3876 17.6223 48.3514 17.598 48.3178C17.5571 48.2415 17.5096 48.1688 17.456 48.1008C17.4055 48.0263 17.349 47.956 17.287 47.8908C17.2617 47.8599 17.2347 47.8305 17.206 47.8028C17.138 47.7348 17.064 47.6678 16.989 47.6028L16.975 47.5888C16.8975 47.527 16.816 47.4706 16.731 47.4198C16.7162 47.4094 16.7005 47.4003 16.684 47.3928C16.602 47.3412 16.516 47.296 16.427 47.2578C16.319 47.2108 16.204 47.1698 16.089 47.1288C16.0773 47.1292 16.0656 47.1268 16.055 47.1218C15.9742 47.0935 15.8902 47.0753 15.805 47.0678C15.7722 47.0599 15.7387 47.0552 15.705 47.0538C15.5934 47.0347 15.4802 47.0257 15.367 47.0268C15.2287 47.028 15.0906 47.0394 14.954 47.0608L12.754 47.4128L17.405 17.2798C17.5384 16.4084 17.9719 15.6109 18.6306 15.025C19.2894 14.4391 20.132 14.1016 21.013 14.0708C38.9648 12.2088 57.0611 12.2088 75.013 14.0708C75.894 14.1016 76.7366 14.4391 77.3954 15.025C78.0541 15.6109 78.4876 16.4084 78.621 17.2798L83.262 47.4118Z" fill="#4FE4C0"/>
<path d="M77.304 63.5649H18.704C18.5245 63.5649 18.3523 63.4936 18.2253 63.3666C18.0983 63.2396 18.027 63.0674 18.027 62.8879V52.9429C18.0283 52.8041 18.0126 52.6658 17.98 52.5309L17.225 49.1999C17.2071 49.1186 17.1844 49.0385 17.157 48.9599C17.1399 48.9106 17.1195 48.8625 17.096 48.8159C17.0761 48.7821 17.059 48.7466 17.045 48.7099C17.04 48.6989 17.045 48.7029 17.045 48.7029C17.0302 48.6811 17.0168 48.6584 17.005 48.6349C16.9828 48.5939 16.9574 48.5548 16.929 48.5179C16.9144 48.4993 16.9007 48.4799 16.888 48.4599C16.8577 48.4165 16.8243 48.3754 16.788 48.3369L16.732 48.2749C16.679 48.2229 16.622 48.1749 16.564 48.1229L16.534 48.0959C16.4852 48.0598 16.4345 48.0264 16.382 47.9959C16.3586 47.9841 16.3359 47.9711 16.314 47.9569C16.2607 47.9236 16.2048 47.8946 16.147 47.8699C16.079 47.8399 15.992 47.8089 15.906 47.7789C15.885 47.7739 15.864 47.7679 15.844 47.7609C15.8156 47.7506 15.786 47.7435 15.756 47.7399C15.7304 47.738 15.7051 47.7343 15.68 47.7289C15.65 47.7286 15.6202 47.7249 15.591 47.7179C15.4137 47.6918 15.2333 47.6948 15.057 47.7269L12.863 48.0779C12.7576 48.0954 12.6496 48.0873 12.548 48.0544C12.4464 48.0216 12.3541 47.9648 12.279 47.8889C12.2033 47.8137 12.1465 47.7217 12.1131 47.6204C12.0798 47.5191 12.0708 47.4113 12.087 47.3059L16.738 17.1729C16.896 16.1469 17.4067 15.208 18.1822 14.5179C18.9577 13.8278 19.9496 13.4296 20.987 13.3919C38.9686 11.536 57.0934 11.536 75.075 13.3919C76.1061 13.436 77.0898 13.8372 77.8577 14.5267C78.6255 15.2163 79.1298 16.1514 79.284 17.1719L83.935 47.3049C83.9512 47.4103 83.9422 47.5181 83.9089 47.6194C83.8755 47.7207 83.8187 47.8127 83.743 47.8879C83.6679 47.9638 83.5756 48.0206 83.474 48.0534C83.3724 48.0863 83.2644 48.0944 83.159 48.0769L80.959 47.7249C80.7846 47.6937 80.6064 47.6907 80.431 47.7159C80.3927 47.7225 80.3539 47.7259 80.315 47.7259C80.2693 47.7332 80.2241 47.7439 80.18 47.7579C80.16 47.7649 80.139 47.7699 80.118 47.7759C80.027 47.8079 79.943 47.8379 79.865 47.8759C79.811 47.8985 79.7589 47.9253 79.709 47.9559C79.6888 47.9695 79.6678 47.9819 79.646 47.9929L79.59 48.0249C79.5553 48.0473 79.5219 48.0717 79.49 48.0979L79.46 48.1249C79.402 48.1719 79.345 48.2249 79.292 48.2769C79.285 48.2859 79.244 48.3289 79.236 48.3389C79.1997 48.3774 79.1663 48.4185 79.136 48.4619C79.1233 48.4819 79.1096 48.5013 79.095 48.5199C79.0666 48.5568 79.0412 48.5959 79.019 48.6369C79.0073 48.6587 78.9943 48.6797 78.98 48.6999V48.7049C78.9657 48.7437 78.9479 48.7812 78.927 48.8169C78.911 48.8466 78.898 48.8777 78.888 48.9099C78.8786 48.9351 78.8679 48.9598 78.856 48.9839C78.842 49.0349 78.816 49.1089 78.801 49.1839L78.045 52.5189C78.0103 52.6582 77.9932 52.8013 77.994 52.9449V62.8899C77.9945 62.9799 77.9771 63.0691 77.9428 63.1523C77.9084 63.2355 77.8578 63.311 77.794 63.3744C77.7301 63.4378 77.6542 63.4879 77.5708 63.5216C77.4873 63.5553 77.398 63.5721 77.308 63.5709L77.304 63.5649ZM19.381 62.2109H76.627V52.9429C76.6258 52.6939 76.6553 52.4457 76.715 52.2039L77.463 48.9039C77.4907 48.7785 77.5261 48.6549 77.569 48.5339C77.5815 48.4943 77.5966 48.4556 77.614 48.4179C77.6437 48.3365 77.6791 48.2573 77.72 48.1809C77.7356 48.1418 77.7551 48.1042 77.778 48.0689C77.7951 48.0266 77.818 47.9869 77.846 47.9509C77.8948 47.8645 77.9496 47.7816 78.01 47.7029C78.0757 47.6096 78.1475 47.5207 78.225 47.4369C78.2583 47.3971 78.2937 47.359 78.331 47.3229C78.414 47.2399 78.505 47.1569 78.596 47.0829C78.7006 46.9952 78.8119 46.916 78.929 46.8459L78.972 46.8209C79.078 46.7547 79.1886 46.6963 79.303 46.6459C79.435 46.5879 79.562 46.5459 79.689 46.4969C79.717 46.4879 79.747 46.4789 79.777 46.4719C79.887 46.4369 80.0003 46.4127 80.115 46.3999C80.156 46.3929 80.196 46.3869 80.235 46.3839C80.5431 46.3405 80.8561 46.3445 81.163 46.3959L82.449 46.5959L77.941 17.3789C77.8311 16.6634 77.475 16.0088 76.9341 15.5277C76.3932 15.0467 75.7014 14.7695 74.978 14.7439C57.0589 12.8947 38.9971 12.8947 21.078 14.7439C20.3465 14.7619 19.6445 15.0361 19.0943 15.5185C18.5441 16.0009 18.1805 16.661 18.067 17.3839L13.557 46.5999L14.839 46.3999C15.1479 46.3479 15.4629 46.3439 15.773 46.3879C15.814 46.3879 15.854 46.3969 15.894 46.4039C16.0053 46.4157 16.1152 46.4385 16.222 46.4719C16.2516 46.4782 16.2806 46.4865 16.309 46.4969C16.448 46.5459 16.574 46.5909 16.694 46.6439C16.8084 46.694 16.9194 46.7518 17.026 46.8169C17.051 46.8309 17.075 46.8449 17.094 46.8569C17.201 46.9201 17.3032 46.991 17.4 47.0689C17.422 47.0868 17.4427 47.1062 17.462 47.1269C17.5391 47.189 17.6122 47.2558 17.681 47.3269C17.727 47.3721 17.7704 47.4198 17.811 47.4699C17.8807 47.5445 17.9448 47.624 18.003 47.7079C18.0635 47.7868 18.1186 47.8696 18.168 47.9559C18.2013 48.0055 18.2308 48.0577 18.256 48.1119C18.2789 48.1473 18.2977 48.1852 18.312 48.2249C18.344 48.29 18.3723 48.3567 18.397 48.4249C18.4147 48.4639 18.4301 48.504 18.443 48.5449C18.4854 48.6693 18.5202 48.7962 18.547 48.9249L19.292 52.2249C19.3499 52.4622 19.3784 52.7057 19.377 52.9499L19.381 62.2109Z" fill="#4C0095"/>
<path d="M77.724 36.3351C67.0267 35.4231 56.2987 35.0011 45.54 35.0691C44.877 35.0691 44.213 35.0761 43.556 35.0831C42.73 35.0901 41.911 35.1031 41.092 35.1301C39.7587 35.1501 38.4253 35.1817 37.092 35.2251C30.8367 35.4211 24.5723 35.7911 18.299 36.3351L21.169 17.7251L21.304 17.7181L21.404 17.7251C30.1409 16.8107 38.9194 16.352 47.704 16.3511H47.731C49.024 16.3511 50.331 16.3581 51.631 16.3851C52.437 16.3921 53.242 16.4121 54.048 16.4321C54.691 16.4461 55.341 16.4661 55.984 16.4931C62.151 16.6831 68.393 17.1021 74.615 17.7321L74.744 17.7391L74.866 17.7461L77.724 36.3351Z" fill="#7419CB"/>
<path d="M77.724 37.0119H77.666C66.923 36.0929 56.118 35.6729 45.545 35.7479C44.903 35.7479 44.266 35.7539 43.635 35.7609H43.564C42.743 35.7679 41.929 35.7808 41.115 35.8078C39.773 35.8279 38.442 35.8619 37.115 35.9019C30.826 36.1019 24.515 36.4729 18.362 37.0099C18.2598 37.0188 18.157 37.0043 18.0612 36.9677C17.9655 36.931 17.8793 36.8731 17.8092 36.7983C17.739 36.7235 17.6868 36.6337 17.6565 36.5357C17.6262 36.4378 17.6185 36.3342 17.634 36.2329L20.5 17.6229C20.5237 17.469 20.5997 17.328 20.7152 17.2237C20.8306 17.1193 20.9786 17.0579 21.134 17.0499L21.269 17.0429C21.296 17.0415 21.323 17.0415 21.35 17.0429H21.4C30.1394 16.1308 38.9202 15.6735 47.707 15.6729C49.032 15.6729 50.343 15.6799 51.648 15.7069C52.448 15.7139 53.259 15.7339 54.068 15.7549C54.712 15.7689 55.368 15.7879 56.015 15.8159C62.115 16.0039 68.399 16.4209 74.686 17.0579L74.905 17.0699C75.0601 17.0784 75.2075 17.14 75.3226 17.2443C75.4377 17.3486 75.5134 17.4893 75.537 17.6429L78.394 36.2329C78.4089 36.3293 78.4027 36.4279 78.3759 36.5217C78.3491 36.6156 78.3023 36.7025 78.2388 36.7766C78.1752 36.8507 78.0964 36.9102 78.0077 36.9509C77.9191 36.9917 77.8226 37.0128 77.725 37.0129L77.724 37.0119ZM48.055 34.3819C57.577 34.3819 67.272 34.7879 76.925 35.5879L74.28 18.3729C68.095 17.7579 61.945 17.3529 55.965 17.1729C55.319 17.1459 54.674 17.1259 54.036 17.1129C53.236 17.0929 52.43 17.0719 51.628 17.0659C50.328 17.0389 49.022 17.0319 47.734 17.0319C39.0624 17.0323 30.3966 17.4795 21.771 18.3719L19.1 35.5869C25.007 35.0869 31.049 34.7369 37.072 34.5479C38.41 34.5079 39.747 34.4739 41.084 34.4529C41.896 34.4269 42.721 34.4119 43.553 34.4059H43.621C44.257 34.3999 44.898 34.3929 45.54 34.3929C46.3767 34.3862 47.215 34.3825 48.055 34.3819Z" fill="#2F3A5A"/>
<path d="M79.924 46.9898C79.809 47.0308 79.694 47.0708 79.586 47.1188C79.497 47.157 79.411 47.2022 79.329 47.2538C79.3125 47.2613 79.2968 47.2704 79.282 47.2808C79.197 47.3316 79.1155 47.388 79.038 47.4498L79.024 47.4638C78.95 47.5248 78.875 47.5928 78.807 47.6638C78.7783 47.6915 78.7513 47.7209 78.726 47.7518C78.664 47.817 78.6075 47.8872 78.557 47.9618C78.5034 48.0298 78.4559 48.1024 78.415 48.1788C78.3907 48.2124 78.3703 48.2486 78.354 48.2868C78.3434 48.3004 78.3365 48.3166 78.334 48.3338C78.2955 48.4005 78.2637 48.4708 78.239 48.5438C78.2282 48.5657 78.2192 48.5884 78.212 48.6118C78.1766 48.7099 78.1472 48.8101 78.124 48.9118L77.373 52.2288C77.3267 52.4169 77.3038 52.61 77.305 52.8038V62.6808L77.278 62.7488H18.734L18.707 62.6808V52.8048C18.7081 52.611 18.6853 52.4179 18.639 52.2298L17.888 48.9128C17.8648 48.8111 17.8354 48.7109 17.8 48.6128C17.7928 48.5894 17.7838 48.5667 17.773 48.5448C17.7483 48.4718 17.7165 48.4015 17.678 48.3348C17.6755 48.3176 17.6686 48.3014 17.658 48.2878C17.6417 48.2496 17.6213 48.2134 17.597 48.1798C17.5561 48.1034 17.5085 48.0308 17.455 47.9628C17.4045 47.8883 17.348 47.818 17.286 47.7528C17.2607 47.7219 17.2337 47.6925 17.205 47.6648C17.137 47.5968 17.063 47.5298 16.988 47.4648L16.974 47.4508C16.8965 47.389 16.815 47.3326 16.73 47.2818C16.7152 47.2713 16.6995 47.2623 16.683 47.2548C16.601 47.2032 16.515 47.158 16.426 47.1198C16.318 47.0728 16.203 47.0318 16.088 46.9908L16.569 43.5248C16.7127 42.4894 17.1773 41.525 17.8975 40.7673C18.6177 40.0097 19.5572 39.4968 20.584 39.3008C29.209 37.6628 47.955 37.7848 48.009 37.7848C48.063 37.7848 66.809 37.6628 75.434 39.3008C76.4597 39.4977 77.3981 40.0108 78.1173 40.7682C78.8365 41.5256 79.3004 42.4892 79.444 43.5238L79.924 46.9898Z" fill="#4FE4C0"/>
<path d="M77.277 63.427H18.731C18.5957 63.4271 18.4634 63.3867 18.3513 63.311C18.2392 63.2352 18.1524 63.1276 18.102 63.002L18.075 62.934C18.0433 62.8538 18.027 62.7683 18.027 62.682V52.806C18.0283 52.6673 18.0126 52.5289 17.98 52.394L17.225 49.063C17.2071 48.9817 17.1844 48.9016 17.157 48.823C17.1397 48.7735 17.1193 48.725 17.096 48.678C17.0759 48.6443 17.0588 48.6088 17.045 48.572C17.04 48.561 17.045 48.564 17.045 48.564C17.03 48.5424 17.0167 48.5196 17.005 48.496C16.9827 48.4548 16.9573 48.4154 16.929 48.378C16.9142 48.3595 16.9005 48.3401 16.888 48.32C16.8579 48.2765 16.8245 48.2354 16.788 48.197L16.732 48.135C16.679 48.082 16.622 48.035 16.564 47.983L16.534 47.957C16.4852 47.9209 16.4345 47.8875 16.382 47.857C16.3585 47.8452 16.3358 47.8318 16.314 47.817C16.2603 47.7844 16.2041 47.756 16.146 47.732C16.068 47.698 15.973 47.664 15.875 47.632C15.7265 47.5799 15.6003 47.4786 15.5172 47.3449C15.4341 47.2113 15.3991 47.0533 15.418 46.897L15.899 43.431C16.0611 42.2552 16.5878 41.1597 17.4048 40.2987C18.2219 39.4377 19.2883 38.8545 20.454 38.631C28.933 37.02 47.224 37.102 47.997 37.103C48.785 37.103 67.075 37.02 75.556 38.631C76.7232 38.8529 77.7912 39.4355 78.6097 40.2966C79.4282 41.1578 79.9557 42.2541 80.118 43.431L80.599 46.899C80.6204 47.0535 80.5877 47.2106 80.5067 47.3437C80.4256 47.4769 80.301 47.578 80.154 47.63H80.142C80.042 47.664 79.952 47.698 79.862 47.736C79.808 47.7583 79.7559 47.7847 79.706 47.815C79.686 47.829 79.665 47.841 79.643 47.852C79.6249 47.8633 79.6062 47.8736 79.587 47.883C79.578 47.891 79.533 47.921 79.487 47.957L79.457 47.983C79.399 48.03 79.342 48.083 79.289 48.135C79.282 48.144 79.241 48.187 79.233 48.197C79.1966 48.2354 79.1631 48.2765 79.133 48.32C79.1205 48.3402 79.1068 48.3595 79.092 48.378C79.0637 48.4154 79.0383 48.4548 79.016 48.496C79.0043 48.5178 78.9913 48.5388 78.977 48.559C78.9629 48.5979 78.9452 48.6354 78.924 48.671C78.9081 48.7011 78.8951 48.7325 78.885 48.765C78.8756 48.7902 78.8649 48.8149 78.853 48.839C78.839 48.89 78.813 48.964 78.798 49.039L78.042 52.374C78.0073 52.5133 77.9902 52.6564 77.991 52.8V62.678C77.991 62.7643 77.9747 62.8498 77.943 62.93L77.916 62.998C77.8654 63.1241 77.7781 63.232 77.6654 63.3078C77.5527 63.3836 77.4198 63.4237 77.284 63.423L77.277 63.427ZM19.377 62.073H76.627V52.806C76.6257 52.557 76.6553 52.3088 76.715 52.067L77.463 48.767C77.4907 48.6416 77.5261 48.5181 77.569 48.397C77.5815 48.3574 77.5966 48.3187 77.614 48.281C77.6438 48.1996 77.6792 48.1205 77.72 48.044C77.7356 48.0049 77.7551 47.9674 77.778 47.932C77.7951 47.8897 77.818 47.85 77.846 47.814C77.895 47.7277 77.9498 47.6449 78.01 47.566C78.0757 47.473 78.1475 47.3845 78.225 47.301C78.2581 47.261 78.2935 47.223 78.331 47.187C78.4153 47.1026 78.5037 47.0225 78.596 46.947C78.7006 46.8593 78.8119 46.7801 78.929 46.71L78.972 46.685C79.0401 46.6417 79.1105 46.6024 79.183 46.567L78.777 43.622C78.6539 42.7262 78.2528 41.8915 77.6303 41.2356C77.0078 40.5797 76.1952 40.1357 75.307 39.966C66.956 38.375 48.792 38.447 48.025 38.457C47.225 38.45 29.065 38.375 20.712 39.957C19.8237 40.1268 19.0111 40.5708 18.3884 41.2267C17.7658 41.8825 17.3645 42.7171 17.241 43.613L16.835 46.557C16.9037 46.5902 16.9705 46.6273 17.035 46.668C17.06 46.682 17.084 46.696 17.103 46.708C17.2099 46.7713 17.3122 46.8421 17.409 46.92C17.4308 46.9381 17.4515 46.9575 17.471 46.978C17.548 47.0401 17.6211 47.1069 17.69 47.178C17.736 47.2228 17.7794 47.2703 17.82 47.32C17.8893 47.3949 17.9535 47.4744 18.012 47.558C18.0724 47.6373 18.1275 47.7205 18.177 47.807C18.2105 47.8566 18.2399 47.9087 18.265 47.963C18.2879 47.9984 18.3067 48.0363 18.321 48.076C18.353 48.1411 18.3813 48.2078 18.406 48.276C18.4236 48.3148 18.439 48.3545 18.452 48.395C18.4962 48.5207 18.5326 48.6489 18.561 48.779L19.306 52.079C19.3639 52.3163 19.3925 52.5598 19.391 52.804L19.377 62.073Z" fill="#4C0095"/>
<path d="M73.742 62.7508H22.266C21.6862 59.0109 21.5626 55.2145 21.898 51.4448C22.643 46.1918 23.814 44.0858 29.277 42.6848C34.74 41.2838 47.951 41.1138 48.003 41.1208C48.055 41.1278 61.278 41.2898 66.729 42.6848C72.18 44.0798 73.367 46.1918 74.108 51.4448C74.4446 55.2144 74.3217 59.0109 73.742 62.7508Z" fill="#4FE4C0"/>
<path d="M73.742 63.4267H22.266C22.1057 63.4259 21.951 63.3683 21.8292 63.2641C21.7074 63.1599 21.6266 63.0159 21.601 62.8577C21.0114 59.0513 20.8871 55.1872 21.231 51.3507C21.985 46.0097 23.247 43.5337 29.113 42.0287C34.313 40.6987 46.339 40.4657 47.921 40.4497H48.093C49.674 40.4657 61.704 40.6987 66.901 42.0287C72.766 43.5287 74.028 46.0097 74.783 51.3497C75.1271 55.1868 75.0028 59.0516 74.413 62.8587C74.3873 63.0178 74.3057 63.1624 74.1829 63.2667C74.0601 63.371 73.9041 63.4281 73.743 63.4277L73.742 63.4267ZM22.849 62.0727H73.159C73.6591 58.5837 73.7531 55.0484 73.439 51.5377C72.72 46.4467 71.679 44.6517 66.562 43.3377C61.231 41.9737 48.289 41.7957 48.019 41.7947H47.989C47.718 41.7947 34.778 41.9737 29.446 43.3377C24.331 44.6497 23.285 46.4447 22.57 51.5377C22.2546 55.0484 22.3485 58.5838 22.85 62.0727H22.849Z" fill="#4C0095"/>
<path d="M89.694 50.5107V62.7507H77.305V52.8057C77.3038 52.612 77.3267 52.4189 77.373 52.2307L78.124 48.9137C78.1472 48.8121 78.1766 48.7119 78.212 48.6137C78.2192 48.5904 78.2282 48.5677 78.239 48.5457C78.2637 48.4728 78.2955 48.4025 78.334 48.3357C78.3365 48.3186 78.3434 48.3024 78.354 48.2887C78.3703 48.2506 78.3907 48.2144 78.415 48.1807C78.4559 48.1044 78.5034 48.0318 78.557 47.9637C78.6075 47.8892 78.664 47.819 78.726 47.7537C78.7513 47.7229 78.7783 47.6935 78.807 47.6657C78.875 47.5977 78.949 47.5307 79.024 47.4657L79.038 47.4517C79.1155 47.39 79.197 47.3336 79.282 47.2827C79.2968 47.2723 79.3126 47.2633 79.329 47.2557C79.411 47.2041 79.497 47.159 79.586 47.1207C79.694 47.0737 79.809 47.0327 79.925 46.9917C79.9367 46.9921 79.9484 46.9897 79.959 46.9847C80.0398 46.9565 80.1238 46.9383 80.209 46.9307C80.2418 46.9229 80.2753 46.9182 80.309 46.9167C80.421 46.8976 80.5344 46.8886 80.648 46.8897C80.7863 46.891 80.9244 46.9023 81.061 46.9237L83.261 47.2757L87.506 47.9457C88.116 48.0439 88.6711 48.356 89.0718 48.8262C89.4726 49.2964 89.6928 49.8939 89.693 50.5117L89.694 50.5107Z" fill="#4FE4C0"/>
<path d="M89.694 63.4278H77.305C77.1254 63.4278 76.9532 63.3565 76.8263 63.2296C76.6993 63.1026 76.628 62.9304 76.628 62.7508V52.8018C76.6267 52.5528 76.6563 52.3046 76.716 52.0628L77.464 48.7628C77.4917 48.6374 77.5271 48.5139 77.57 48.3928C77.5825 48.3533 77.5976 48.3145 77.615 48.2768C77.6448 48.1955 77.6802 48.1163 77.721 48.0398C77.7366 48.0007 77.7561 47.9632 77.779 47.9278C77.7961 47.8855 77.819 47.8458 77.847 47.8098C77.896 47.7236 77.9508 47.6407 78.011 47.5618C78.0767 47.4688 78.1485 47.3803 78.226 47.2968C78.2591 47.2569 78.2945 47.2188 78.332 47.1828C78.4163 47.0985 78.5047 47.0184 78.597 46.9428C78.7016 46.8552 78.8129 46.7759 78.93 46.7058L78.973 46.6808C79.0792 46.615 79.1898 46.5565 79.304 46.5058C79.436 46.4478 79.563 46.4058 79.69 46.3578C79.7189 46.3479 79.7482 46.3396 79.778 46.3328C79.888 46.2975 80.0012 46.2734 80.116 46.2608C80.157 46.2538 80.197 46.2478 80.236 46.2448C80.5441 46.2008 80.8571 46.2045 81.164 46.2558L87.614 47.2788C88.3843 47.3997 89.086 47.7924 89.5919 48.3858C90.0978 48.9792 90.3745 49.7341 90.372 50.5138V62.7538C90.372 62.8428 90.3545 62.931 90.3204 63.0132C90.2863 63.0954 90.2363 63.17 90.1734 63.2329C90.1104 63.2958 90.0356 63.3456 89.9534 63.3796C89.8711 63.4136 89.783 63.431 89.694 63.4308V63.4278ZM77.982 62.0738H89.017V50.5108C89.0188 50.0532 88.8567 49.6101 88.5601 49.2616C88.2635 48.9131 87.852 48.6823 87.4 48.6108L80.956 47.5888C80.7816 47.5577 80.6033 47.555 80.428 47.5808C80.3897 47.5875 80.3509 47.5908 80.312 47.5908C80.2662 47.5978 80.2211 47.6085 80.177 47.6228C80.157 47.6298 80.136 47.6348 80.115 47.6408C80.024 47.6728 79.94 47.7028 79.862 47.7408C79.808 47.7631 79.7559 47.7895 79.706 47.8198C79.6858 47.8335 79.6647 47.8458 79.643 47.8568C79.6249 47.8681 79.6062 47.8785 79.587 47.8878C79.578 47.8958 79.533 47.9258 79.487 47.9618L79.457 47.9878C79.399 48.0348 79.342 48.0878 79.289 48.1398C79.282 48.1488 79.241 48.1918 79.233 48.2018C79.1966 48.2402 79.1631 48.2813 79.133 48.3248C79.1205 48.345 79.1068 48.3643 79.092 48.3828C79.0634 48.4201 79.0376 48.4596 79.015 48.5008C79.0033 48.5226 78.9903 48.5437 78.976 48.5638C78.9619 48.6028 78.9442 48.6403 78.923 48.6758C78.9071 48.7059 78.8941 48.7374 78.884 48.7698C78.8743 48.795 78.8632 48.8197 78.851 48.8438C78.837 48.8948 78.811 48.9688 78.796 49.0438L78.04 52.3788C78.0053 52.5182 77.9882 52.6613 77.989 52.8048L77.982 62.0738Z" fill="#4C0095"/>
<path d="M18.704 52.8057V62.7507H6.315V50.5107C6.31524 49.8929 6.53546 49.2953 6.93621 48.8251C7.33696 48.3549 7.89204 48.0428 8.502 47.9447L12.746 47.2787L14.946 46.9267C15.0827 46.9053 15.2207 46.8939 15.359 46.8927C15.4722 46.8916 15.5854 46.9006 15.697 46.9197C15.7307 46.9211 15.7642 46.9258 15.797 46.9337C15.8823 46.9412 15.9662 46.9594 16.047 46.9877C16.0576 46.9927 16.0693 46.9951 16.081 46.9947C16.196 47.0357 16.311 47.0757 16.419 47.1237C16.508 47.1619 16.594 47.2071 16.676 47.2587C16.6925 47.2662 16.7082 47.2752 16.723 47.2857C16.808 47.3365 16.8895 47.3929 16.967 47.4547L16.981 47.4687C17.055 47.5297 17.13 47.5977 17.198 47.6687C17.2267 47.6964 17.2537 47.7258 17.279 47.7567C17.341 47.8219 17.3975 47.8922 17.448 47.9667C17.5016 48.0347 17.5491 48.1073 17.59 48.1837C17.6149 48.213 17.6367 48.2449 17.655 48.2787C17.6656 48.2923 17.6725 48.3085 17.675 48.3257C17.7135 48.3924 17.7453 48.4627 17.77 48.5357C17.7808 48.5576 17.7898 48.5803 17.797 48.6037C17.8324 48.7018 17.8618 48.802 17.885 48.9037L18.636 52.2207C18.6823 52.4088 18.7052 52.6019 18.704 52.7957V52.8057Z" fill="#4FE4C0"/>
<path d="M18.704 63.4277H6.318C6.13845 63.4277 5.96625 63.3564 5.83929 63.2294C5.71233 63.1025 5.641 62.9303 5.641 62.7507V50.5107C5.63846 49.7314 5.91496 48.9769 6.42047 48.3837C6.92598 47.7905 7.6271 47.3978 8.397 47.2767L14.843 46.2547C15.1518 46.202 15.467 46.1979 15.777 46.2427C15.8177 46.2444 15.8582 46.2498 15.898 46.2587C16.0093 46.2703 16.1192 46.2931 16.226 46.3267C16.256 46.3334 16.285 46.3414 16.313 46.3507C16.452 46.3997 16.578 46.4457 16.698 46.4987C16.8124 46.5488 16.9234 46.6066 17.03 46.6717C17.055 46.6857 17.079 46.6997 17.098 46.7117C17.2049 46.775 17.3072 46.8458 17.404 46.9237C17.4258 46.9418 17.4465 46.9612 17.466 46.9817C17.543 47.0439 17.6161 47.1107 17.685 47.1817C17.731 47.2266 17.7744 47.274 17.815 47.3237C17.8843 47.3986 17.9485 47.4781 18.007 47.5617C18.0674 47.6411 18.1225 47.7242 18.172 47.8107C18.2055 47.8603 18.2349 47.9125 18.26 47.9667C18.2829 48.0021 18.3017 48.04 18.316 48.0797C18.3479 48.1448 18.3763 48.2116 18.401 48.2797C18.4186 48.3185 18.434 48.3582 18.447 48.3987C18.4912 48.5244 18.5276 48.6526 18.556 48.7827L19.301 52.0827C19.3589 52.32 19.3874 52.5635 19.386 52.8077V62.7557C19.386 62.9351 19.3148 63.1072 19.1881 63.2341C19.0613 63.361 18.8894 63.4325 18.71 63.4327L18.704 63.4277ZM6.992 62.0737H18.027V52.8017C18.0283 52.663 18.0126 52.5246 17.98 52.3897L17.225 49.0587C17.2071 48.9775 17.1844 48.8973 17.157 48.8187C17.1397 48.7692 17.1193 48.7208 17.096 48.6737C17.0759 48.64 17.0588 48.6045 17.045 48.5677C17.04 48.5567 17.045 48.5597 17.045 48.5597C17.03 48.5381 17.0167 48.5153 17.005 48.4917C16.9827 48.4505 16.9573 48.4111 16.929 48.3737C16.9142 48.3552 16.9005 48.3359 16.888 48.3157C16.8579 48.2722 16.8245 48.2311 16.788 48.1927L16.732 48.1307C16.679 48.0777 16.622 48.0307 16.564 47.9787L16.534 47.9527C16.4852 47.9166 16.4345 47.8833 16.382 47.8527C16.3585 47.8409 16.3358 47.8275 16.314 47.8127C16.2603 47.7801 16.2041 47.7517 16.146 47.7277C16.078 47.6967 15.991 47.6667 15.905 47.6367C15.884 47.6317 15.863 47.6257 15.843 47.6187C15.8135 47.6092 15.7829 47.6035 15.752 47.6017C15.7264 47.5998 15.701 47.5962 15.676 47.5907C15.646 47.5904 15.6162 47.5867 15.587 47.5797C15.4097 47.5533 15.2293 47.5563 15.053 47.5887L8.607 48.6137C8.15526 48.6854 7.74409 48.9164 7.44787 49.2648C7.15164 49.6133 6.98994 50.0564 6.992 50.5137V62.0737Z" fill="#4C0095"/>
<path d="M90.014 62.748H5.994C5.64471 62.748 5.30973 62.8868 5.06274 63.1338C4.81576 63.3808 4.677 63.7158 4.677 64.065V69.912C4.67687 70.3424 4.76155 70.7685 4.9262 71.1661C5.09085 71.5637 5.33224 71.9249 5.63658 72.2292C5.94092 72.5334 6.30223 72.7747 6.69987 72.9392C7.09751 73.1038 7.52367 73.1883 7.954 73.188H88.054C88.4844 73.1884 88.9107 73.104 89.3084 72.9395C89.7062 72.775 90.0676 72.5338 90.3721 72.2295C90.6765 71.9253 90.918 71.564 91.0827 71.1663C91.2474 70.7687 91.3321 70.3425 91.332 69.912V64.065C91.332 63.7158 91.1932 63.3808 90.9463 63.1338C90.6993 62.8868 90.3643 62.748 90.015 62.748H90.014Z" fill="#4FE4C0"/>
<path d="M88.056 73.8698H7.953C6.90492 73.8687 5.90008 73.4519 5.15898 72.7108C4.41787 71.9697 4.00106 70.9649 4 69.9168V64.0648C4.00158 63.5364 4.21217 63.0302 4.58578 62.6566C4.95938 62.283 5.46565 62.0724 5.994 62.0708H90.014C90.5424 62.0724 91.0486 62.283 91.4222 62.6566C91.7958 63.0302 92.0064 63.5364 92.008 64.0648V69.9158C92.0072 70.9639 91.5906 71.9688 90.8497 72.7101C90.1088 73.4514 89.1041 73.8685 88.056 73.8698ZM5.994 63.4248C5.82434 63.4251 5.66171 63.4926 5.54174 63.6125C5.42178 63.7325 5.35426 63.8951 5.354 64.0648V69.9158C5.354 70.6054 5.62793 71.2667 6.11552 71.7543C6.60312 72.2419 7.26444 72.5158 7.954 72.5158H88.054C88.7436 72.5158 89.4049 72.2419 89.8925 71.7543C90.3801 71.2667 90.654 70.6054 90.654 69.9158V64.0648C90.6537 63.8951 90.5862 63.7325 90.4663 63.6125C90.3463 63.4926 90.1837 63.4251 90.014 63.4248H5.994Z" fill="#4C0095"/>
<path d="M66.521 46.688C65.7176 46.688 64.9323 46.9262 64.2643 47.3726C63.5963 47.8189 63.0756 48.4533 62.7682 49.1955C62.4608 49.9378 62.3803 50.7545 62.5371 51.5424C62.6938 52.3304 63.0807 53.0542 63.6487 53.6223C64.2168 54.1903 64.9406 54.5772 65.7285 54.7339C66.5165 54.8907 67.3332 54.8102 68.0755 54.5028C68.8177 54.1953 69.4521 53.6747 69.8984 53.0067C70.3448 52.3387 70.583 51.5534 70.583 50.75C70.583 49.6727 70.155 48.6395 69.3933 47.8777C68.6315 47.1159 67.5983 46.688 66.521 46.688Z" fill="#F4CF5F"/>
<path d="M66.521 55.4897C65.5837 55.4897 64.6675 55.2118 63.8881 54.6911C63.1088 54.1703 62.5014 53.4302 62.1427 52.5643C61.7841 51.6983 61.6902 50.7455 61.8731 49.8262C62.0559 48.9069 62.5073 48.0625 63.17 47.3997C63.8328 46.737 64.6772 46.2856 65.5965 46.1028C66.5157 45.9199 67.4686 46.0138 68.3345 46.3725C69.2005 46.7311 69.9406 47.3385 70.4613 48.1179C70.9821 48.8972 71.26 49.8134 71.26 50.7507C71.26 52.0076 70.7607 53.213 69.872 54.1017C68.9832 54.9904 67.7779 55.4897 66.521 55.4897ZM66.521 47.3657C65.8515 47.3657 65.1971 47.5642 64.6404 47.9362C64.0837 48.3081 63.6499 48.8368 63.3937 49.4553C63.1375 50.0739 63.0704 50.7545 63.201 51.4111C63.3316 52.0677 63.654 52.6709 64.1274 53.1443C64.6008 53.6177 65.204 53.9401 65.8606 54.0707C66.5172 54.2013 67.1979 54.1343 67.8164 53.8781C68.4349 53.6219 68.9636 53.188 69.3355 52.6313C69.7075 52.0747 69.906 51.4202 69.906 50.7507C69.906 49.853 69.5494 48.992 68.9146 48.3572C68.2797 47.7224 67.4188 47.3657 66.521 47.3657Z" fill="#4C0095"/>
<path d="M29.487 46.688C28.6836 46.688 27.8983 46.9262 27.2303 47.3726C26.5623 47.8189 26.0416 48.4533 25.7342 49.1955C25.4268 49.9378 25.3463 50.7545 25.503 51.5424C25.6598 52.3304 26.0466 53.0542 26.6147 53.6223C27.1828 54.1903 27.9066 54.5772 28.6945 54.7339C29.4825 54.8907 30.2992 54.8102 31.0415 54.5028C31.7837 54.1953 32.4181 53.6747 32.8644 53.0067C33.3108 52.3387 33.549 51.5534 33.549 50.75C33.549 49.6727 33.121 48.6395 32.3593 47.8777C31.5975 47.1159 30.5643 46.688 29.487 46.688Z" fill="#F4CF5F"/>
<path d="M29.487 55.4897C28.5497 55.4897 27.6335 55.2118 26.8542 54.6911C26.0748 54.1703 25.4674 53.4302 25.1087 52.5643C24.7501 51.6983 24.6562 50.7455 24.8391 49.8262C25.0219 48.9069 25.4733 48.0625 26.136 47.3997C26.7988 46.737 27.6432 46.2856 28.5625 46.1028C29.4817 45.9199 30.4346 46.0138 31.3005 46.3725C32.1665 46.7311 32.9066 47.3385 33.4273 48.1179C33.9481 48.8972 34.226 49.8134 34.226 50.7507C34.226 52.0076 33.7267 53.213 32.838 54.1017C31.9492 54.9904 30.7439 55.4897 29.487 55.4897ZM29.487 47.3657C28.8175 47.3657 28.1631 47.5642 27.6064 47.9362C27.0497 48.3081 26.6159 48.8368 26.3597 49.4553C26.1035 50.0739 26.0364 50.7545 26.167 51.4111C26.2977 52.0677 26.62 52.6709 27.0934 53.1443C27.5668 53.6177 28.17 53.9401 28.8266 54.0707C29.4832 54.2013 30.1639 54.1343 30.7824 53.8781C31.4009 53.6219 31.9296 53.188 32.3015 52.6313C32.6735 52.0747 32.872 51.4202 32.872 50.7507C32.872 49.853 32.5154 48.992 31.8806 48.3572C31.2457 47.7224 30.3848 47.3657 29.487 47.3657Z" fill="#4C0095"/>
<path d="M82.938 65.5508C82.4594 65.5508 81.9915 65.6927 81.5935 65.9586C81.1956 66.2245 80.8854 66.6025 80.7022 67.0447C80.5191 67.4869 80.4711 67.9735 80.5645 68.4429C80.6579 68.9123 80.8884 69.3435 81.2268 69.682C81.5652 70.0204 81.9965 70.2509 82.4659 70.3443C82.9353 70.4377 83.4219 70.3897 83.8641 70.2066C84.3063 70.0234 84.6842 69.7132 84.9502 69.3153C85.2161 68.9173 85.358 68.4494 85.358 67.9708C85.358 67.329 85.103 66.7134 84.6492 66.2596C84.1954 65.8057 83.5798 65.5508 82.938 65.5508Z" fill="#F4CF5F"/>
<path d="M82.938 71.0667C82.3249 71.0667 81.7255 70.8849 81.2157 70.5443C80.7059 70.2036 80.3086 69.7195 80.074 69.153C79.8393 68.5866 79.778 67.9633 79.8976 67.3619C80.0172 66.7606 80.3124 66.2082 80.746 65.7747C81.1795 65.3411 81.7319 65.0459 82.3332 64.9263C82.9346 64.8067 83.5579 64.868 84.1243 65.1027C84.6908 65.3373 85.1749 65.7346 85.5156 66.2444C85.8562 66.7542 86.038 67.3536 86.038 67.9667C86.038 68.7889 85.7114 69.5774 85.13 70.1587C84.5487 70.7401 83.7602 71.0667 82.938 71.0667ZM82.938 66.2277C82.5933 66.2277 82.2563 66.3299 81.9696 66.5214C81.683 66.713 81.4596 66.9852 81.3277 67.3037C81.1958 67.6222 81.1612 67.9726 81.2285 68.3107C81.2957 68.6489 81.4617 68.9594 81.7055 69.2032C81.9493 69.4469 82.2598 69.6129 82.598 69.6802C82.9361 69.7475 83.2865 69.7129 83.605 69.581C83.9235 69.4491 84.1957 69.2257 84.3872 68.9391C84.5788 68.6524 84.681 68.3154 84.681 67.9707C84.681 67.5084 84.4974 67.0651 84.1705 66.7382C83.8436 66.4113 83.4003 66.2277 82.938 66.2277Z" fill="#4C0095"/>
<path d="M13.071 65.5508C12.5925 65.5506 12.1247 65.6922 11.7267 65.9579C11.3287 66.2235 11.0183 66.6011 10.8349 67.0431C10.6514 67.485 10.6031 67.9714 10.6961 68.4408C10.789 68.9102 11.019 69.3415 11.357 69.6802C11.695 70.0189 12.1259 70.2498 12.5951 70.3437C13.0643 70.4376 13.5508 70.3903 13.9931 70.2078C14.4354 70.0253 14.8137 69.7157 15.0801 69.3183C15.3466 68.9208 15.4892 68.4533 15.49 67.9748C15.4897 67.3333 15.2348 66.7182 14.7812 66.2646C14.3276 65.811 13.7125 65.556 13.071 65.5558V65.5508Z" fill="#F4CF5F"/>
<path d="M13.072 71.0667C12.4589 71.0667 11.8595 70.8849 11.3497 70.5443C10.8399 70.2036 10.4426 69.7195 10.208 69.153C9.97334 68.5866 9.91195 67.9633 10.0316 67.3619C10.1512 66.7606 10.4464 66.2082 10.88 65.7747C11.3135 65.3411 11.8659 65.0459 12.4672 64.9263C13.0686 64.8067 13.6919 64.868 14.2583 65.1027C14.8248 65.3373 15.3089 65.7346 15.6496 66.2444C15.9902 66.7542 16.172 67.3536 16.172 67.9667C16.172 68.7889 15.8454 69.5774 15.264 70.1587C14.6827 70.7401 13.8942 71.0667 13.072 71.0667ZM13.072 66.2277C12.7273 66.2277 12.3903 66.3299 12.1036 66.5214C11.817 66.713 11.5936 66.9852 11.4617 67.3037C11.3298 67.6222 11.2952 67.9726 11.3625 68.3107C11.4297 68.6489 11.5958 68.9594 11.8395 69.2032C12.0833 69.4469 12.3938 69.6129 12.732 69.6802C13.0701 69.7475 13.4205 69.7129 13.739 69.581C14.0575 69.4491 14.3297 69.2257 14.5213 68.9391C14.7128 68.6524 14.815 68.3154 14.815 67.9707C14.815 67.5084 14.6314 67.0651 14.3045 66.7382C13.9776 66.4113 13.5343 66.2277 13.072 66.2277Z" fill="#4C0095"/>
<path d="M39.118 46.8911C38.9547 46.891 38.7929 46.923 38.642 46.9854C38.4911 47.0479 38.354 47.1394 38.2384 47.2548C38.1229 47.3703 38.0312 47.5073 37.9687 47.6582C37.9062 47.8091 37.874 47.9708 37.874 48.1341V58.4651C37.8832 58.7888 38.0182 59.0962 38.2504 59.3219C38.4826 59.5476 38.7937 59.6739 39.1175 59.6739C39.4413 59.6739 39.7524 59.5476 39.9846 59.3219C40.2168 59.0962 40.3518 58.7888 40.361 58.4651V48.1341C40.361 47.8044 40.23 47.4883 39.9969 47.2552C39.7638 47.0221 39.4477 46.8911 39.118 46.8911Z" fill="#4FE4C0"/>
<path d="M39.118 60.3839C38.6089 60.3833 38.1209 60.1809 37.7609 59.8209C37.401 59.461 37.1985 58.9729 37.198 58.4639V48.1339C37.198 47.6247 37.4003 47.1363 37.7604 46.7762C38.1204 46.4162 38.6088 46.2139 39.118 46.2139C39.6272 46.2139 40.1156 46.4162 40.4756 46.7762C40.8357 47.1363 41.038 47.6247 41.038 48.1339V58.4639C41.0377 58.9728 40.8355 59.4609 40.4757 59.8209C40.1159 60.1809 39.628 60.3833 39.119 60.3839H39.118ZM39.118 47.5679C38.968 47.5681 38.8242 47.6278 38.7181 47.7339C38.612 47.84 38.5523 47.9838 38.552 48.1339V58.4639C38.5488 58.5401 38.561 58.6163 38.588 58.6877C38.615 58.7591 38.6561 58.8243 38.709 58.8794C38.7618 58.9345 38.8252 58.9783 38.8954 59.0083C38.9656 59.0382 39.0412 59.0537 39.1175 59.0537C39.1938 59.0537 39.2694 59.0382 39.3396 59.0083C39.4098 58.9783 39.4732 58.9345 39.526 58.8794C39.5789 58.8243 39.62 58.7591 39.647 58.6877C39.674 58.6163 39.6862 58.5401 39.683 58.4639V48.1339C39.6827 47.984 39.6232 47.8404 39.5173 47.7343C39.4114 47.6282 39.2679 47.5684 39.118 47.5679Z" fill="#4C0095"/>
<path d="M45.146 46.8911C44.8163 46.8911 44.5002 47.0221 44.2671 47.2552C44.034 47.4883 43.903 47.8044 43.903 48.1341V58.4651C43.903 58.7948 44.034 59.1109 44.2671 59.344C44.5002 59.5772 44.8163 59.7081 45.146 59.7081C45.4757 59.7081 45.7918 59.5772 46.0249 59.344C46.258 59.1109 46.389 58.7948 46.389 58.4651V48.1341C46.389 47.8044 46.258 47.4883 46.0249 47.2552C45.7918 47.0221 45.4757 46.8911 45.146 46.8911Z" fill="#4FE4C0"/>
<path d="M45.146 60.3839C44.6369 60.3833 44.1489 60.1809 43.7889 59.8209C43.429 59.461 43.2265 58.9729 43.226 58.4639V48.1339C43.226 47.6247 43.4283 47.1363 43.7884 46.7762C44.1484 46.4162 44.6368 46.2139 45.146 46.2139C45.6552 46.2139 46.1436 46.4162 46.5036 46.7762C46.8637 47.1363 47.066 47.6247 47.066 48.1339V58.4639C47.0655 58.9729 46.863 59.461 46.5031 59.8209C46.1431 60.1809 45.655 60.3833 45.146 60.3839ZM45.146 47.5679C44.996 47.5681 44.8522 47.6278 44.7461 47.7339C44.64 47.84 44.5803 47.9838 44.58 48.1339V58.4639C44.58 58.614 44.6396 58.7579 44.7458 58.8641C44.8519 58.9702 44.9959 59.0299 45.146 59.0299C45.2961 59.0299 45.4401 58.9702 45.5462 58.8641C45.6524 58.7579 45.712 58.614 45.712 58.4639V48.1339C45.7117 47.9838 45.652 47.84 45.5459 47.7339C45.4398 47.6278 45.296 47.5681 45.146 47.5679Z" fill="#4C0095"/>
<path d="M50.838 46.8911C50.6747 46.891 50.5129 46.923 50.362 46.9854C50.2111 47.0479 50.0739 47.1394 49.9584 47.2548C49.8429 47.3703 49.7512 47.5073 49.6887 47.6582C49.6262 47.8091 49.594 47.9708 49.594 48.1341V58.4651C49.6032 58.7888 49.7382 59.0962 49.9704 59.3219C50.2026 59.5476 50.5137 59.6739 50.8375 59.6739C51.1613 59.6739 51.4724 59.5476 51.7046 59.3219C51.9368 59.0962 52.0718 58.7888 52.081 58.4651V48.1341C52.081 47.8044 51.95 47.4883 51.7169 47.2552C51.4838 47.0221 51.1677 46.8911 50.838 46.8911Z" fill="#4FE4C0"/>
<path d="M50.838 60.3839C50.3289 60.3833 49.8407 60.1809 49.4806 59.821C49.1205 59.4611 48.9178 58.973 48.917 58.4639V48.1339C48.917 47.6245 49.1193 47.136 49.4795 46.7759C49.8397 46.4157 50.3282 46.2134 50.8375 46.2134C51.3468 46.2134 51.8353 46.4157 52.1955 46.7759C52.5557 47.136 52.758 47.6245 52.758 48.1339V58.4639C52.7575 58.9729 52.555 59.461 52.1951 59.8209C51.8351 60.1809 51.3471 60.3833 50.838 60.3839ZM50.838 47.5679C50.6878 47.5679 50.5437 47.6275 50.4374 47.7336C50.3311 47.8397 50.2713 47.9837 50.271 48.1339V58.4639C50.2771 58.61 50.3395 58.7481 50.4451 58.8493C50.5506 58.9506 50.6912 59.0071 50.8375 59.0071C50.9838 59.0071 51.1244 58.9506 51.2299 58.8493C51.3355 58.7481 51.3979 58.61 51.404 58.4639V48.1339C51.4037 47.9838 51.344 47.84 51.2379 47.7339C51.1318 47.6279 50.988 47.5681 50.838 47.5679Z" fill="#4C0095"/>
<path d="M56.331 46.8911C56.0013 46.8911 55.6852 47.0221 55.4521 47.2552C55.219 47.4883 55.088 47.8044 55.088 48.1341V58.4651C55.088 58.7948 55.219 59.1109 55.4521 59.344C55.6852 59.5772 56.0013 59.7081 56.331 59.7081C56.6607 59.7081 56.9768 59.5772 57.2099 59.344C57.443 59.1109 57.574 58.7948 57.574 58.4651V48.1341C57.574 47.8044 57.443 47.4883 57.2099 47.2552C56.9768 47.0221 56.6607 46.8911 56.331 46.8911Z" fill="#4FE4C0"/>
<path d="M56.331 60.3839C55.8219 60.3833 55.3339 60.1809 54.9739 59.8209C54.614 59.461 54.4115 58.9729 54.411 58.4639V48.1339C54.411 47.6247 54.6133 47.1363 54.9734 46.7762C55.3334 46.4162 55.8218 46.2139 56.331 46.2139C56.8402 46.2139 57.3286 46.4162 57.6886 46.7762C58.0487 47.1363 58.251 47.6247 58.251 48.1339V58.4639C58.2505 58.9729 58.048 59.461 57.6881 59.8209C57.3281 60.1809 56.8401 60.3833 56.331 60.3839ZM56.331 47.5679C56.181 47.5681 56.0372 47.6278 55.9311 47.7339C55.825 47.84 55.7653 47.9838 55.765 48.1339V58.4639C55.765 58.614 55.8246 58.7579 55.9308 58.8641C56.0369 58.9702 56.1809 59.0299 56.331 59.0299C56.4811 59.0299 56.6251 58.9702 56.7312 58.8641C56.8374 58.7579 56.897 58.614 56.897 58.4639V48.1339C56.8967 47.9838 56.837 47.84 56.7309 47.7339C56.6248 47.6278 56.481 47.5681 56.331 47.5679Z" fill="#4C0095"/>
<g opacity="0.25">
<path opacity="0.25" d="M51.633 16.3841L41.092 35.1301C39.7587 35.1501 38.4253 35.1818 37.092 35.2251L47.711 16.3501H47.738C49.031 16.3501 50.338 16.3571 51.638 16.3841H51.633Z" fill="white"/>
<path opacity="0.25" d="M55.986 16.4922L45.54 35.0692C44.877 35.0692 44.213 35.0762 43.556 35.0832L54.049 16.4312C54.692 16.4452 55.342 16.4652 55.985 16.4922H55.986Z" fill="white"/>
</g>
<path d="M77.724 37.0119H77.666C66.923 36.0929 56.118 35.6729 45.545 35.7479C44.903 35.7479 44.266 35.7539 43.635 35.7609H43.564C42.743 35.7679 41.929 35.7808 41.115 35.8078C39.773 35.8279 38.442 35.8619 37.115 35.9019C30.826 36.1019 24.515 36.4729 18.362 37.0099C18.2598 37.0188 18.157 37.0043 18.0612 36.9677C17.9655 36.931 17.8793 36.8731 17.8092 36.7983C17.739 36.7235 17.6868 36.6337 17.6565 36.5357C17.6262 36.4378 17.6185 36.3342 17.634 36.2329L20.5 17.6229C20.5237 17.469 20.5997 17.328 20.7152 17.2237C20.8306 17.1193 20.9786 17.0579 21.134 17.0499L21.269 17.0429C21.296 17.0415 21.323 17.0415 21.35 17.0429H21.4C30.1394 16.1308 38.9202 15.6735 47.707 15.6729C49.032 15.6729 50.343 15.6799 51.648 15.7069C52.448 15.7139 53.259 15.7339 54.068 15.7549C54.712 15.7689 55.368 15.7879 56.015 15.8159C62.115 16.0039 68.399 16.4209 74.686 17.0579L74.905 17.0699C75.0601 17.0784 75.2075 17.14 75.3226 17.2443C75.4377 17.3486 75.5134 17.4893 75.537 17.6429L78.394 36.2329C78.4089 36.3293 78.4027 36.4279 78.3759 36.5217C78.3491 36.6156 78.3023 36.7025 78.2388 36.7766C78.1752 36.8507 78.0964 36.9102 78.0077 36.9509C77.9191 36.9917 77.8226 37.0128 77.725 37.0129L77.724 37.0119ZM48.055 34.3819C57.577 34.3819 67.272 34.7879 76.925 35.5879L74.28 18.3729C68.095 17.7579 61.945 17.3529 55.965 17.1729C55.319 17.1459 54.674 17.1259 54.036 17.1129C53.236 17.0929 52.43 17.0719 51.628 17.0659C50.328 17.0389 49.022 17.0319 47.734 17.0319C39.0624 17.0323 30.3966 17.4795 21.771 18.3719L19.1 35.5869C25.007 35.0869 31.049 34.7369 37.072 34.5479C38.41 34.5079 39.747 34.4739 41.084 34.4529C41.896 34.4269 42.721 34.4119 43.553 34.4059H43.621C44.257 34.3999 44.898 34.3929 45.54 34.3929C46.3767 34.3862 47.215 34.3825 48.055 34.3819Z" fill="#4C0095"/>
</svg>
