<svg width="75" height="79" viewBox="0 0 75 79" fill="none" xmlns="http://www.w3.org/2000/svg">
<path d="M32.238 6.20104V71.875C32.238 72.5392 32.3688 73.1969 32.623 73.8105C32.8772 74.4241 33.2498 74.9816 33.7195 75.4512C34.1892 75.9208 34.7468 76.2933 35.3605 76.5474C35.9741 76.8015 36.6318 76.9322 37.296 76.932H67.807C69.1482 76.932 70.4345 76.3993 71.3828 75.4509C72.3312 74.5025 72.864 73.2162 72.864 71.875V6.20104C72.864 4.85984 72.3312 3.57358 71.3828 2.6252C70.4345 1.67683 69.1482 1.14404 67.807 1.14404H37.293C35.9522 1.14484 34.6666 1.67795 33.7188 2.6262C32.7709 3.57446 32.2383 4.86027 32.238 6.20104Z" fill="#6A7193"/>
<path d="M67.807 1.14405H64.396C65.7372 1.14405 67.0235 1.67684 67.9718 2.62521C68.9202 3.57358 69.453 4.85985 69.453 6.20105V71.875C69.453 73.2162 68.9202 74.5025 67.9718 75.4509C67.0235 76.3993 65.7372 76.932 64.396 76.932H67.807C68.4715 76.9327 69.1296 76.8024 69.7438 76.5485C70.3579 76.2947 70.9159 75.9223 71.3861 75.4527C71.8562 74.983 72.2291 74.4253 72.4836 73.8114C72.738 73.1976 72.869 72.5396 72.869 71.875V6.20105C72.869 5.53653 72.738 4.87853 72.4836 4.26466C72.2291 3.65079 71.8562 3.09309 71.3861 2.62344C70.9159 2.15379 70.3579 1.78139 69.7438 1.52755C69.1296 1.27371 68.4715 1.14339 67.807 1.14405Z" fill="#575B7A"/>
<path d="M32.238 12.4512H72.865V65.6242H32.238V12.4512Z" fill="#FFCD74"/>
<path d="M69.454 12.4512H72.863V65.6242H69.452L69.454 12.4512Z" fill="#FFBE4B"/>
<path d="M54.918 71.2781C54.918 71.7461 54.7792 72.2035 54.5192 72.5926C54.2593 72.9817 53.8897 73.2849 53.4574 73.464C53.0251 73.6431 52.5494 73.6899 52.0904 73.5986C51.6315 73.5073 51.2099 73.282 50.879 72.9511C50.5481 72.6202 50.3228 72.1986 50.2315 71.7397C50.1402 71.2807 50.187 70.805 50.3661 70.3727C50.5452 69.9404 50.8484 69.5708 51.2375 69.3109C51.6266 69.0509 52.084 68.9121 52.552 68.9121C53.1795 68.9121 53.7813 69.1614 54.225 69.6051C54.6687 70.0488 54.918 70.6506 54.918 71.2781Z" fill="#9FE28C"/>
<path d="M25.001 30.4509C23.1254 28.5352 22.075 25.9609 22.075 23.2799V17.6449C22.075 17.3479 21.957 17.063 21.747 16.8529C21.5369 16.6429 21.252 16.5249 20.955 16.5249H9.698C9.40096 16.5249 9.11608 16.6429 8.90604 16.8529C8.696 17.063 8.578 17.3479 8.578 17.6449V23.2779C8.57803 25.9589 7.52763 28.5332 5.652 30.4489L4.919 31.1979H25.73L25.001 30.4509Z" fill="#E9E9EA"/>
<path d="M25.001 63.0079C23.1254 64.9236 22.075 67.4979 22.075 70.1789V75.8119C22.075 76.1089 21.957 76.3938 21.747 76.6039C21.5369 76.8139 21.252 76.9319 20.955 76.9319H9.698C9.40096 76.9319 9.11608 76.8139 8.90604 76.6039C8.696 76.3938 8.578 76.1089 8.578 75.8119V70.1749C8.57835 67.4938 7.5279 64.9194 5.652 63.0039L4.919 62.2549H25.73L25.001 63.0079Z" fill="#E9E9EA"/>
<path d="M25.001 30.4509C23.1254 28.5352 22.075 25.9609 22.075 23.2799V17.6449C22.075 17.3479 21.957 17.063 21.747 16.8529C21.5369 16.6429 21.2521 16.5249 20.955 16.5249H17.321C17.618 16.5249 17.9029 16.6429 18.113 16.8529C18.323 17.063 18.441 17.3479 18.441 17.6449V23.2779C18.4414 25.959 19.4921 28.5333 21.368 30.4489L22.101 31.1979H25.735L25.001 30.4509Z" fill="#C5C4CC"/>
<path d="M22.101 62.2599L21.368 63.0089C19.4919 64.9243 18.4411 67.4987 18.441 70.1799V75.8129C18.4411 75.96 18.4123 76.1057 18.356 76.2416C18.2998 76.3776 18.2173 76.5011 18.1133 76.6051C18.0092 76.7092 17.8857 76.7917 17.7498 76.8479C17.6138 76.9041 17.4681 76.933 17.321 76.9329H20.955C21.1021 76.9329 21.2477 76.9039 21.3836 76.8476C21.5195 76.7913 21.643 76.7089 21.747 76.6049C21.851 76.5009 21.9335 76.3774 21.9898 76.2415C22.046 76.1056 22.075 75.96 22.075 75.8129V70.1749C22.0749 67.4939 23.1253 64.9195 25.001 63.0039L25.734 62.2549L22.101 62.2599Z" fill="#C5C4CC"/>
<path d="M25.731 62.2588H4.91901L5.65201 63.0078C6.67946 64.0575 7.469 65.3159 7.967 66.6978H22.686C23.1842 65.3161 23.9737 64.0576 25.001 63.0078L25.731 62.2588Z" fill="#C5C4CC"/>
<path d="M1.947 32.8432V60.6172C1.94687 60.9644 2.01513 61.3082 2.1479 61.6289C2.28066 61.9497 2.47532 62.2412 2.72076 62.4867C2.9662 62.7323 3.25761 62.927 3.57834 63.0599C3.89906 63.1928 4.24283 63.2612 4.59 63.2612H26.063C26.4102 63.2612 26.7539 63.1928 27.0747 63.0599C27.3954 62.927 27.6868 62.7323 27.9322 62.4867C28.1777 62.2412 28.3723 61.9497 28.5051 61.6289C28.6379 61.3082 28.7061 60.9644 28.706 60.6172V32.8432C28.706 32.1422 28.4275 31.47 27.9319 30.9743C27.4362 30.4787 26.764 30.2002 26.063 30.2002H4.59C3.88903 30.2002 3.21677 30.4787 2.72112 30.9743C2.22546 31.47 1.947 32.1422 1.947 32.8432Z" fill="#575B7A"/>
<path d="M6.959 38.2669V40.2839C6.959 40.5315 7.00779 40.7767 7.10258 41.0054C7.19738 41.2342 7.33631 41.4421 7.51146 41.6171C7.6866 41.7922 7.89452 41.931 8.12334 42.0257C8.35215 42.1203 8.59738 42.169 8.845 42.1689H10.862C11.3619 42.1689 11.8414 41.9703 12.1949 41.6167C12.5484 41.2632 12.747 40.7838 12.747 40.2839V38.2669C12.7471 38.0192 12.6985 37.774 12.6038 37.5452C12.5091 37.3164 12.3703 37.1085 12.1953 36.9333C12.0202 36.7582 11.8124 36.6192 11.5836 36.5244C11.3548 36.4296 11.1096 36.3809 10.862 36.3809H8.845C8.3448 36.3809 7.86509 36.5796 7.5114 36.9333C7.1577 37.287 6.959 37.7667 6.959 38.2669Z" fill="#8CBAFA"/>
<path d="M17.905 38.2669V40.2839C17.905 40.7838 18.1036 41.2632 18.4571 41.6167C18.8106 41.9703 19.2901 42.1689 19.79 42.1689H21.807C22.0546 42.169 22.2998 42.1203 22.5287 42.0257C22.7575 41.931 22.9654 41.7922 23.1405 41.6171C23.3157 41.4421 23.4546 41.2342 23.5494 41.0054C23.6442 40.7767 23.693 40.5315 23.693 40.2839V38.2669C23.693 37.7667 23.4943 37.287 23.1406 36.9333C22.7869 36.5796 22.3072 36.3809 21.807 36.3809H19.79C19.5424 36.3809 19.2972 36.4296 19.0684 36.5244C18.8396 36.6192 18.6318 36.7582 18.4567 36.9333C18.2817 37.1085 18.1429 37.3164 18.0482 37.5452C17.9535 37.774 17.9049 38.0192 17.905 38.2669Z" fill="#C9EA6E"/>
<path d="M6.959 51.4812V53.4992C6.95979 53.9988 7.15888 54.4776 7.51252 54.8305C7.86616 55.1834 8.34541 55.3815 8.845 55.3812H10.862C11.3619 55.3812 11.8414 55.1826 12.1949 54.8291C12.5484 54.4756 12.747 53.9961 12.747 53.4962V51.4812C12.747 50.9813 12.5484 50.5018 12.1949 50.1483C11.8414 49.7948 11.3619 49.5962 10.862 49.5962H8.845C8.59738 49.5961 8.35215 49.6447 8.12334 49.7394C7.89452 49.8341 7.6866 49.9729 7.51146 50.1479C7.33631 50.323 7.19738 50.5308 7.10258 50.7596C7.00779 50.9884 6.959 51.2336 6.959 51.4812Z" fill="#FFCD34"/>
<path d="M17.905 51.4812V53.4992C17.9058 53.9986 18.1047 54.4773 18.4582 54.8301C18.8116 55.183 19.2906 55.3812 19.79 55.3812H21.807C22.0546 55.3813 22.2998 55.3327 22.5287 55.238C22.7575 55.1433 22.9654 55.0045 23.1405 54.8294C23.3157 54.6544 23.4546 54.4465 23.5494 54.2178C23.6442 53.989 23.693 53.7438 23.693 53.4962V51.4812C23.693 51.2336 23.6442 50.9884 23.5494 50.7596C23.4546 50.5308 23.3157 50.323 23.1405 50.1479C22.9654 49.9729 22.7575 49.8341 22.5287 49.7394C22.2998 49.6447 22.0546 49.5961 21.807 49.5962H19.79C19.2901 49.5962 18.8106 49.7948 18.4571 50.1483C18.1036 50.5018 17.905 50.9813 17.905 51.4812Z" fill="#FF76A4"/>
<path d="M31.096 51.0321H28.706V42.4321H31.096C31.4078 42.4321 31.7166 42.4935 32.0047 42.6129C32.2928 42.7323 32.5546 42.9073 32.775 43.1278C32.9955 43.3484 33.1703 43.6102 33.2896 43.8983C33.4088 44.1865 33.4701 44.4953 33.47 44.8071V48.6621C33.47 49.2917 33.2199 49.8956 32.7747 50.3408C32.3295 50.786 31.7256 51.0361 31.096 51.0361V51.0321Z" fill="#8CBAFA"/>
<path d="M52.552 67.7681C51.8578 67.7681 51.1792 67.9739 50.602 68.3596C50.0247 68.7453 49.5748 69.2935 49.3092 69.9348C49.0435 70.5762 48.974 71.282 49.1094 71.9628C49.2449 72.6437 49.5792 73.2691 50.0701 73.76C50.561 74.2509 51.1864 74.5852 51.8673 74.7206C52.5481 74.856 53.2539 74.7865 53.8952 74.5209C54.5366 74.2552 55.0848 73.8053 55.4705 73.2281C55.8561 72.6509 56.062 71.9723 56.062 71.278C56.061 70.3475 55.6908 69.4553 55.0328 68.7973C54.3748 68.1392 53.4826 67.7691 52.552 67.7681ZM52.552 72.5001C52.3103 72.5001 52.0741 72.4284 51.8731 72.2941C51.6722 72.1599 51.5155 71.969 51.423 71.7457C51.3305 71.5224 51.3063 71.2767 51.3535 71.0397C51.4006 70.8026 51.517 70.5849 51.6879 70.414C51.8588 70.2431 52.0766 70.1267 52.3136 70.0795C52.5506 70.0324 52.7964 70.0566 53.0197 70.1491C53.2429 70.2416 53.4338 70.3982 53.5681 70.5992C53.7023 70.8001 53.774 71.0364 53.774 71.278C53.7735 71.602 53.6446 71.9125 53.4155 72.1416C53.1864 72.3706 52.8759 72.4995 52.552 72.5001Z" fill="#282868"/>
<path d="M55.942 5.65283H49.161C48.8636 5.66163 48.5813 5.78596 48.374 5.99945C48.1668 6.21293 48.0508 6.49878 48.0508 6.79633C48.0508 7.09388 48.1668 7.37973 48.374 7.59322C48.5813 7.8067 48.8636 7.93103 49.161 7.93983H55.942C56.2394 7.93103 56.5217 7.8067 56.729 7.59322C56.9362 7.37973 57.0522 7.09388 57.0522 6.79633C57.0522 6.49878 56.9362 6.21293 56.729 5.99945C56.5217 5.78596 56.2394 5.66163 55.942 5.65283Z" fill="#282868"/>
<path d="M67.808 0H37.297C35.6533 0.0021168 34.0775 0.656009 32.9153 1.81828C31.753 2.98054 31.0991 4.55631 31.097 6.2V38.977C31.0925 39.13 31.1187 39.2824 31.1741 39.4251C31.2296 39.5678 31.3131 39.6979 31.4197 39.8077C31.5263 39.9175 31.6539 40.0048 31.7949 40.0645C31.9359 40.1241 32.0874 40.1548 32.2405 40.1548C32.3936 40.1548 32.5451 40.1241 32.6861 40.0645C32.8271 40.0048 32.9547 39.9175 33.0613 39.8077C33.1679 39.6979 33.2514 39.5678 33.3069 39.4251C33.3623 39.2824 33.3885 39.13 33.384 38.977V13.6H71.723V17.7C71.7318 17.9974 71.8561 18.2797 72.0696 18.487C72.2831 18.6942 72.5689 18.8102 72.8665 18.8102C73.164 18.8102 73.4499 18.6942 73.6634 18.487C73.8769 18.2797 74.0012 17.9974 74.01 17.7V6.2C74.0079 4.55631 73.354 2.98054 72.1917 1.81828C71.0295 0.656009 69.4537 0.0021168 67.81 0L67.808 0ZM33.382 11.308V6.2C33.3833 5.16235 33.7961 4.16758 34.5298 3.43385C35.2636 2.70011 36.2584 2.28732 37.296 2.286H67.808C68.8457 2.28706 69.8407 2.69977 70.5744 3.43355C71.3082 4.16734 71.7209 5.16227 71.722 6.2V11.307L33.382 11.308Z" fill="#282868"/>
<path d="M72.865 21.457C72.5616 21.457 72.2706 21.5776 72.0561 21.7921C71.8415 22.0066 71.721 22.2976 71.721 22.601V64.481H33.382V56.181C33.3865 56.028 33.3603 55.8757 33.3049 55.733C33.2494 55.5903 33.1659 55.4602 33.0593 55.3503C32.9527 55.2405 32.8251 55.1532 32.6841 55.0936C32.5431 55.0339 32.3916 55.0032 32.2385 55.0032C32.0854 55.0032 31.9339 55.0339 31.7929 55.0936C31.6519 55.1532 31.5243 55.2405 31.4177 55.3503C31.3111 55.4602 31.2276 55.5903 31.1721 55.733C31.1167 55.8757 31.0905 56.028 31.095 56.181V71.872C31.0971 73.5157 31.751 75.0915 32.9133 76.2538C34.0755 77.416 35.6513 78.0699 37.295 78.072H67.806C69.4497 78.0699 71.0254 77.416 72.1877 76.2538C73.35 75.0915 74.0039 73.5157 74.006 71.872V22.601C74.006 22.2976 73.8855 22.0066 73.6709 21.7921C73.4564 21.5776 73.1654 21.457 72.862 21.457H72.865ZM67.808 75.788H37.297C36.2593 75.7867 35.2646 75.3739 34.5308 74.6402C33.7971 73.9065 33.3843 72.9117 33.383 71.874V66.767H71.722V71.874C71.7209 72.9118 71.3082 73.9067 70.5744 74.6405C69.8407 75.3743 68.8457 75.787 67.808 75.788Z" fill="#282868"/>
<path d="M10.863 35.2368H8.84501C8.04173 35.2373 7.2715 35.5566 6.70341 36.1245C6.13532 36.6924 5.8158 37.4625 5.815 38.2658V40.2828C5.8158 41.0862 6.13528 41.8564 6.70335 42.4245C7.27141 42.9925 8.04164 43.312 8.84501 43.3128H10.862C11.6653 43.312 12.4354 42.9925 13.0033 42.4244C13.5712 41.8563 13.8905 41.0861 13.891 40.2828V38.2628C13.8894 37.4604 13.5698 36.6913 13.0023 36.1241C12.4347 35.5569 11.6654 35.2379 10.863 35.2368ZM11.605 40.2828C11.6047 40.4795 11.5265 40.6681 11.3874 40.8072C11.2483 40.9463 11.0597 41.0245 10.863 41.0248H8.84501C8.6483 41.0245 8.45972 40.9463 8.32062 40.8072C8.18153 40.6681 8.10327 40.4795 8.103 40.2828V38.2628C8.10327 38.0661 8.18153 37.8775 8.32062 37.7384C8.45972 37.5993 8.6483 37.5211 8.84501 37.5208H10.862C11.0588 37.5208 11.2475 37.599 11.3867 37.7381C11.5258 37.8773 11.604 38.066 11.604 38.2628L11.605 40.2828Z" fill="#282868"/>
<path d="M21.81 35.2368H19.793C18.9899 35.2376 18.2199 35.557 17.6521 36.1249C17.0842 36.6927 16.7648 37.4627 16.764 38.2658V40.2828C16.7645 41.0861 17.0838 41.8563 17.6517 42.4244C18.2196 42.9925 18.9897 43.312 19.793 43.3128H21.81C22.6134 43.312 23.3836 42.9925 23.9517 42.4245C24.5197 41.8564 24.8392 41.0862 24.84 40.2828V38.2628C24.8384 37.4601 24.5185 36.6907 23.9505 36.1234C23.3825 35.5562 22.6127 35.2373 21.81 35.2368ZM22.552 40.2828C22.5517 40.4795 22.4735 40.6681 22.3344 40.8072C22.1953 40.9463 22.0067 41.0245 21.81 41.0248H19.793C19.5963 41.0245 19.4077 40.9463 19.2686 40.8072C19.1295 40.6681 19.0513 40.4795 19.051 40.2828V38.2628C19.0513 38.0661 19.1295 37.8775 19.2686 37.7384C19.4077 37.5993 19.5963 37.5211 19.793 37.5208H21.81C22.0067 37.5211 22.1953 37.5993 22.3344 37.7384C22.4735 37.8775 22.5517 38.0661 22.552 38.2628V40.2828Z" fill="#282868"/>
<path d="M10.863 48.4482H8.84501C8.04173 48.4488 7.2715 48.768 6.70341 49.3359C6.13532 49.9038 5.8158 50.674 5.815 51.4772V53.4952C5.81606 54.2984 6.13567 55.0684 6.7037 55.6363C7.27174 56.2041 8.04182 56.5234 8.84501 56.5242H10.862C11.6651 56.5234 12.4351 56.2041 13.003 55.6362C13.5708 55.0683 13.8902 54.2983 13.891 53.4952V51.4772C13.8902 50.6743 13.571 49.9045 13.0033 49.3366C12.4356 48.7688 11.6659 48.4493 10.863 48.4482ZM11.605 53.4952C11.6047 53.6919 11.5265 53.8805 11.3874 54.0196C11.2483 54.1587 11.0597 54.237 10.863 54.2372H8.84501C8.6483 54.237 8.45972 54.1587 8.32062 54.0196C8.18153 53.8805 8.10327 53.6919 8.103 53.4952V51.4772C8.1038 51.2809 8.18229 51.0928 8.32133 50.9542C8.46036 50.8155 8.64864 50.7375 8.84501 50.7372H10.862C11.0588 50.7372 11.2475 50.8154 11.3867 50.9546C11.5258 51.0937 11.604 51.2825 11.604 51.4792L11.605 53.4952Z" fill="#282868"/>
<path d="M21.81 48.4482H19.793C18.9899 48.449 18.2199 48.7684 17.6521 49.3363C17.0842 49.9042 16.7648 50.6741 16.764 51.4772V53.4952C16.7648 54.2983 17.0842 55.0683 17.6521 55.6362C18.2199 56.2041 18.9899 56.5234 19.793 56.5242H21.81C22.6133 56.5237 23.3835 56.2044 23.9516 55.6365C24.5197 55.0686 24.8392 54.2985 24.84 53.4952V51.4772C24.8392 50.674 24.5197 49.9038 23.9516 49.3359C23.3835 48.768 22.6133 48.4488 21.81 48.4482ZM22.552 53.4952C22.5517 53.6919 22.4735 53.8805 22.3344 54.0196C22.1953 54.1587 22.0067 54.237 21.81 54.2372H19.793C19.5963 54.237 19.4077 54.1587 19.2686 54.0196C19.1295 53.8805 19.0513 53.6919 19.051 53.4952V51.4772C19.0513 51.2805 19.1295 51.0919 19.2686 50.9529C19.4077 50.8138 19.5963 50.7355 19.793 50.7352H21.81C22.0067 50.7355 22.1953 50.8138 22.3344 50.9529C22.4735 51.0919 22.5517 51.2805 22.552 51.4772V53.4952Z" fill="#282868"/>
<path d="M31.096 52.1762C32.0287 52.1752 32.9229 51.8042 33.5824 51.1447C34.242 50.4851 34.6129 49.5909 34.614 48.6582V44.8052C34.6129 43.8725 34.242 42.9783 33.5824 42.3188C32.9229 41.6593 32.0287 41.2883 31.096 41.2872H29.849V32.8462C29.8479 31.8422 29.4486 30.8796 28.7386 30.1696C28.0287 29.4596 27.0661 29.0603 26.062 29.0592H25.284C23.9458 27.4324 23.215 25.3908 23.217 23.2842V17.6512C23.2167 17.0509 22.9783 16.4753 22.554 16.0506C22.1297 15.626 21.5543 15.387 20.954 15.3862H9.698C9.09745 15.3868 8.52164 15.6256 8.09699 16.0502C7.67233 16.4749 7.43353 17.0507 7.433 17.6512V18.8752C7.4418 19.1727 7.56613 19.4549 7.77962 19.6622C7.99311 19.8695 8.27895 19.9854 8.5765 19.9854C8.87405 19.9854 9.1599 19.8695 9.37338 19.6622C9.58687 19.4549 9.7112 19.1727 9.72 18.8752V17.6752H20.93V23.2852C20.9282 25.316 21.4706 27.3102 22.501 29.0602H8.149C9.11206 27.4222 9.65037 25.5693 9.715 23.6702C9.72392 23.5179 9.70226 23.3653 9.6513 23.2214C9.60035 23.0776 9.52112 22.9453 9.41828 22.8326C9.31545 22.7198 9.19109 22.6287 9.05253 22.5648C8.91397 22.5008 8.764 22.4652 8.61147 22.46C8.45894 22.4549 8.30692 22.4803 8.16436 22.5348C8.02181 22.5893 7.8916 22.6718 7.78141 22.7774C7.67123 22.883 7.58328 23.0096 7.52276 23.1497C7.46223 23.2898 7.43036 23.4406 7.429 23.5932C7.36122 25.5925 6.63691 27.5138 5.368 29.0602H4.589C3.58582 29.0616 2.62405 29.4604 1.91441 30.1695C1.20477 30.8786 0.805118 31.84 0.803001 32.8432V60.6172C0.803795 61.6213 1.20287 62.584 1.91265 63.2942C2.62243 64.0043 3.58495 64.4039 4.589 64.4052H5.367C6.70488 66.0326 7.43525 68.0745 7.433 70.1812V75.8142C7.4338 76.4145 7.67275 76.99 8.0974 77.4142C8.52206 77.8385 9.09771 78.077 9.698 78.0772H20.955C21.555 78.0767 22.1303 77.8381 22.5546 77.4138C22.9789 76.9896 23.2175 76.4143 23.218 75.8142V74.9052C23.2092 74.6078 23.0849 74.3255 22.8714 74.1183C22.6579 73.911 22.3721 73.7951 22.0745 73.7951C21.7769 73.7951 21.4911 73.911 21.2776 74.1183C21.0641 74.3255 20.9398 74.6078 20.931 74.9052V75.7942H9.72V70.1852C9.72223 68.1542 9.18009 66.1597 8.15 64.4092H22.503C21.4722 66.1595 20.9293 68.154 20.931 70.1852C20.9265 70.3382 20.9527 70.4906 21.0081 70.6333C21.0636 70.776 21.1471 70.9061 21.2537 71.0159C21.3603 71.1258 21.4879 71.2131 21.6289 71.2727C21.7699 71.3323 21.9214 71.3631 22.0745 71.3631C22.2276 71.3631 22.3791 71.3323 22.5201 71.2727C22.6611 71.2131 22.7887 71.1258 22.8953 71.0159C23.0019 70.9061 23.0854 70.776 23.1409 70.6333C23.1963 70.4906 23.2225 70.3382 23.218 70.1852C23.2161 68.0782 23.9472 66.0362 25.286 64.4092H26.064C27.0681 64.4082 28.0307 64.0088 28.7406 63.2989C29.4506 62.5889 29.8499 61.6263 29.851 60.6222V52.1812L31.096 52.1762ZM31.096 43.5762C31.4224 43.5765 31.7354 43.7063 31.9662 43.9371C32.197 44.1679 32.3267 44.4808 32.327 44.8072V48.6622C32.3267 48.9886 32.197 49.3016 31.9662 49.5324C31.7354 49.7632 31.4224 49.893 31.096 49.8932H29.849V43.5772L31.096 43.5762ZM27.562 60.6212C27.562 61.0191 27.404 61.4006 27.1227 61.6819C26.8414 61.9632 26.4598 62.1212 26.062 62.1212H4.589C4.19118 62.1212 3.80965 61.9632 3.52834 61.6819C3.24704 61.4006 3.089 61.0191 3.089 60.6212V32.8432C3.089 32.4454 3.24704 32.0639 3.52834 31.7826C3.80965 31.5013 4.19118 31.3432 4.589 31.3432H26.063C26.4608 31.3432 26.8424 31.5013 27.1237 31.7826C27.405 32.0639 27.563 32.4454 27.563 32.8432L27.562 60.6212Z" fill="#282868"/>
<path d="M58.501 47.0488C59.8817 47.0488 61.001 45.9295 61.001 44.5488C61.001 43.1681 59.8817 42.0488 58.501 42.0488C57.1203 42.0488 56.001 43.1681 56.001 44.5488C56.001 45.9295 57.1203 47.0488 58.501 47.0488Z" fill="#9FE28C"/>
<path d="M46.001 47.0488C47.1056 47.0488 48.001 45.9295 48.001 44.5488C48.001 43.1681 47.1056 42.0488 46.001 42.0488C44.8964 42.0488 44.001 43.1681 44.001 44.5488C44.001 45.9295 44.8964 47.0488 46.001 47.0488Z" fill="#9FE28C"/>
<path d="M60.001 32.0488H48.001V36.0488H60.001V32.0488Z" fill="#9FE28C"/>
<path d="M60.581 29.8892H48.381C48.2208 29.8892 48.0622 29.9207 47.9141 29.982C47.7661 30.0433 47.6316 30.1332 47.5183 30.2465C47.4051 30.3598 47.3152 30.4943 47.2539 30.6423C47.1926 30.7903 47.161 30.9489 47.161 31.1092V41.0892C46.7703 40.9445 46.3576 40.8683 45.941 40.8642C45.2171 40.8642 44.5095 41.0788 43.9076 41.481C43.3057 41.8832 42.8366 42.4548 42.5596 43.1235C42.2826 43.7923 42.2101 44.5282 42.3513 45.2382C42.4926 45.9482 42.8411 46.6003 43.353 47.1122C43.8649 47.624 44.517 47.9726 45.227 48.1138C45.9369 48.2551 46.6729 48.1826 47.3416 47.9055C48.0104 47.6285 48.582 47.1594 48.9842 46.5576C49.3864 45.9557 49.601 45.248 49.601 44.5242V37.2042H59.36V41.0892C58.9693 40.9445 58.5566 40.8683 58.14 40.8642C57.4161 40.8642 56.7085 41.0788 56.1066 41.481C55.5047 41.8832 55.0356 42.4548 54.7586 43.1235C54.4816 43.7923 54.4091 44.5282 54.5503 45.2382C54.6916 45.9482 55.0401 46.6003 55.552 47.1122C56.0639 47.624 56.716 47.9726 57.426 48.1138C58.136 48.2551 58.8719 48.1826 59.5406 47.9055C60.2094 47.6285 60.781 47.1594 61.1832 46.5576C61.5854 45.9557 61.8 45.248 61.8 44.5242V31.1092C61.8 30.7858 61.6716 30.4756 61.443 30.2469C61.2144 30.0181 60.9044 29.8894 60.581 29.8892ZM45.941 45.7482C45.6997 45.7482 45.4638 45.6766 45.2632 45.5425C45.0626 45.4085 44.9062 45.218 44.8139 44.995C44.7215 44.7721 44.6974 44.5268 44.7444 44.2902C44.7915 44.0535 44.9077 43.8361 45.0783 43.6655C45.249 43.4949 45.4663 43.3787 45.703 43.3316C45.9397 43.2845 46.185 43.3087 46.4079 43.401C46.6308 43.4934 46.8213 43.6497 46.9554 43.8504C47.0895 44.051 47.161 44.2869 47.161 44.5282C47.161 44.8517 47.0325 45.162 46.8037 45.3908C46.5749 45.6196 46.2646 45.7482 45.941 45.7482ZM49.601 34.7692V32.3292H59.36V34.7692H49.601ZM58.141 45.7482C57.8997 45.7482 57.6638 45.6766 57.4632 45.5425C57.2626 45.4085 57.1062 45.218 57.0139 44.995C56.9215 44.7721 56.8974 44.5268 56.9444 44.2902C56.9915 44.0535 57.1077 43.8361 57.2783 43.6655C57.449 43.4949 57.6663 43.3787 57.903 43.3316C58.1397 43.2845 58.385 43.3087 58.6079 43.401C58.8308 43.4934 59.0213 43.6497 59.1554 43.8504C59.2895 44.051 59.361 44.2869 59.361 44.5282C59.361 44.6885 59.3294 44.8472 59.268 44.9953C59.2067 45.1434 59.1167 45.2779 59.0033 45.3912C58.8899 45.5045 58.7553 45.5943 58.6072 45.6556C58.4591 45.7168 58.3003 45.7483 58.14 45.7482H58.141Z" fill="#282868"/>
</svg>
