<svg width="86" height="73" viewBox="0 0 86 73" fill="none" xmlns="http://www.w3.org/2000/svg">
<path d="M77.272 29.0031H63.864C63.4028 29.0031 62.9605 28.8199 62.6343 28.4937C62.3082 28.1676 62.125 27.7253 62.125 27.2641V25.2771C62.125 24.8159 62.3082 24.3736 62.6343 24.0474C62.9605 23.7213 63.4028 23.5381 63.864 23.5381H77.272C77.7332 23.5381 78.1755 23.7213 78.5016 24.0474C78.8278 24.3736 79.011 24.8159 79.011 25.2771V27.2661C79.0105 27.7269 78.827 28.1688 78.5009 28.4944C78.1749 28.8201 77.7329 29.0031 77.272 29.0031Z" fill="#F6E266"/>
<path d="M77.272 23.5347H74.492C74.7204 23.5347 74.9465 23.5797 75.1575 23.6671C75.3685 23.7544 75.5602 23.8825 75.7216 24.044C75.8831 24.2055 76.0112 24.3972 76.0986 24.6082C76.186 24.8192 76.231 25.0453 76.231 25.2737V27.2627C76.231 27.7239 76.0478 28.1662 75.7216 28.4923C75.3955 28.8185 74.9532 29.0017 74.492 29.0017H77.272C77.7332 29.0017 78.1755 28.8185 78.5016 28.4923C78.8278 28.1662 79.011 27.7239 79.011 27.2627V25.2767C79.0114 25.0481 78.9667 24.8216 78.8795 24.6103C78.7923 24.3989 78.6642 24.2069 78.5027 24.0451C78.3412 23.8833 78.1494 23.7549 77.9382 23.6673C77.727 23.5797 77.5006 23.5347 77.272 23.5347Z" fill="#ECBE6B"/>
<path d="M75.465 67.281H62.057C61.5958 67.281 61.1535 67.0978 60.8273 66.7716C60.5012 66.4455 60.318 66.0032 60.318 65.542V63.553C60.318 63.0918 60.5012 62.6494 60.8273 62.3233C61.1535 61.9972 61.5958 61.814 62.057 61.814H75.465C75.9262 61.814 76.3685 61.9972 76.6947 62.3233C77.0208 62.6494 77.204 63.0918 77.204 63.553V65.542C77.204 66.0032 77.0208 66.4455 76.6947 66.7716C76.3685 67.0978 75.9262 67.281 75.465 67.281Z" fill="#EAB14D"/>
<path d="M75.465 61.8091H72.685C73.1462 61.8091 73.5885 61.9923 73.9147 62.3184C74.2408 62.6445 74.424 63.0869 74.424 63.5481V65.5371C74.424 65.9983 74.2408 66.4406 73.9147 66.7667C73.5885 67.0928 73.1462 67.2761 72.685 67.2761H75.465C75.9262 67.2761 76.3685 67.0928 76.6947 66.7667C77.0208 66.4406 77.204 65.9983 77.204 65.5371V63.5481C77.204 63.0869 77.0208 62.6445 76.6947 62.3184C76.3685 61.9923 75.9262 61.8091 75.465 61.8091Z" fill="#E49542"/>
<path d="M77.689 56.3371H64.281C63.8198 56.3371 63.3775 56.1539 63.0513 55.8278C62.7252 55.5016 62.542 55.0593 62.542 54.5981V52.6091C62.542 52.1479 62.7252 51.7056 63.0513 51.3795C63.3775 51.0533 63.8198 50.8701 64.281 50.8701H77.689C78.1502 50.8701 78.5925 51.0533 78.9186 51.3795C79.2448 51.7056 79.428 52.1479 79.428 52.6091V54.5981C79.428 55.0593 79.2448 55.5016 78.9186 55.8278C78.5925 56.1539 78.1502 56.3371 77.689 56.3371Z" fill="#EAB14D"/>
<path d="M77.689 50.873H74.909C75.3702 50.873 75.8125 51.0563 76.1386 51.3824C76.4648 51.7085 76.648 52.1508 76.648 52.612V54.601C76.648 55.0623 76.4648 55.5046 76.1386 55.8307C75.8125 56.1568 75.3702 56.34 74.909 56.34H77.689C78.1502 56.34 78.5925 56.1568 78.9186 55.8307C79.2448 55.5046 79.428 55.0623 79.428 54.601V52.612C79.428 52.1508 79.2448 51.7085 78.9186 51.3824C78.5925 51.0563 78.1502 50.873 77.689 50.873Z" fill="#E49542"/>
<path d="M77.692 45.4059H64.284C63.8228 45.4059 63.3804 45.2227 63.0543 44.8966C62.7282 44.5705 62.545 44.1282 62.545 43.667V41.6779C62.545 41.2167 62.7282 40.7744 63.0543 40.4483C63.3804 40.1222 63.8228 39.939 64.284 39.939H77.692C78.1532 39.939 78.5955 40.1222 78.9216 40.4483C79.2478 40.7744 79.431 41.2167 79.431 41.6779V43.667C79.431 43.8953 79.386 44.1214 79.2986 44.3324C79.2112 44.5434 79.0831 44.7351 78.9216 44.8966C78.7601 45.0581 78.5684 45.1862 78.3575 45.2736C78.1465 45.361 77.9204 45.4059 77.692 45.4059Z" fill="#EAB14D"/>
<path d="M77.692 39.938H74.912C75.3732 39.938 75.8155 40.1212 76.1416 40.4473C76.4678 40.7735 76.651 41.2158 76.651 41.677V43.666C76.651 44.1272 76.4678 44.5695 76.1416 44.8957C75.8155 45.2218 75.3732 45.405 74.912 45.405H77.692C78.1532 45.405 78.5955 45.2218 78.9216 44.8957C79.2478 44.5695 79.431 44.1272 79.431 43.666V41.677C79.431 41.2158 79.2478 40.7735 78.9216 40.4473C78.5955 40.1212 78.1532 39.938 77.692 39.938Z" fill="#E49542"/>
<path d="M75.465 61.8088H62.057C61.5958 61.8088 61.1535 61.6256 60.8273 61.2995C60.5012 60.9733 60.318 60.531 60.318 60.0698V58.0808C60.318 57.6196 60.5012 57.1773 60.8273 56.8511C61.1535 56.525 61.5958 56.3418 62.057 56.3418H75.465C75.9262 56.3418 76.3685 56.525 76.6947 56.8511C77.0208 57.1773 77.204 57.6196 77.204 58.0808V60.0698C77.204 60.531 77.0208 60.9733 76.6947 61.2995C76.3685 61.6256 75.9262 61.8088 75.465 61.8088Z" fill="#F6E266"/>
<path d="M75.465 56.3408H72.685C73.1462 56.3408 73.5885 56.524 73.9147 56.8502C74.2408 57.1763 74.424 57.6186 74.424 58.0798V60.0688C74.424 60.53 74.2408 60.9724 73.9147 61.2985C73.5885 61.6246 73.1462 61.8078 72.685 61.8078H75.465C75.9262 61.8078 76.3685 61.6246 76.6947 61.2985C77.0208 60.9724 77.204 60.53 77.204 60.0688V58.0798C77.204 57.6186 77.0208 57.1763 76.6947 56.8502C76.3685 56.524 75.9262 56.3408 75.465 56.3408Z" fill="#ECBE6B"/>
<path d="M75.465 50.8738H62.057C61.5958 50.8738 61.1535 50.6906 60.8273 50.3644C60.5012 50.0383 60.318 49.596 60.318 49.1348V47.1448C60.318 46.6836 60.5012 46.2412 60.8273 45.9151C61.1535 45.589 61.5958 45.4058 62.057 45.4058H75.465C75.9262 45.4058 76.3685 45.589 76.6947 45.9151C77.0208 46.2412 77.204 46.6836 77.204 47.1448V49.1338C77.2041 49.3622 77.1593 49.5885 77.0719 49.7996C76.9846 50.0107 76.8565 50.2025 76.695 50.3641C76.5335 50.5257 76.3418 50.6538 76.1307 50.7413C75.9197 50.8288 75.6934 50.8738 75.465 50.8738Z" fill="#F6E266"/>
<path d="M75.465 45.4058H72.685C73.1462 45.4058 73.5885 45.589 73.9147 45.9151C74.2408 46.2412 74.424 46.6836 74.424 47.1448V49.1338C74.424 49.595 74.2408 50.0373 73.9147 50.3634C73.5885 50.6896 73.1462 50.8728 72.685 50.8728H75.465C75.9262 50.8728 76.3685 50.6896 76.6947 50.3634C77.0208 50.0373 77.204 49.595 77.204 49.1338V47.1448C77.204 46.6836 77.0208 46.2412 76.6947 45.9151C76.3685 45.589 75.9262 45.4058 75.465 45.4058Z" fill="#ECBE6B"/>
<path d="M82.838 39.9377H69.43C68.9688 39.9377 68.5264 39.7545 68.2003 39.4284C67.8742 39.1022 67.691 38.6599 67.691 38.1987V36.2097C67.691 35.7485 67.8742 35.3062 68.2003 34.98C68.5264 34.6539 68.9688 34.4707 69.43 34.4707H82.838C83.2992 34.4707 83.7415 34.6539 84.0676 34.98C84.3938 35.3062 84.577 35.7485 84.577 36.2097V38.1987C84.577 38.6599 84.3938 39.1022 84.0676 39.4284C83.7415 39.7545 83.2992 39.9377 82.838 39.9377Z" fill="#F6E266"/>
<path d="M82.837 34.4697H80.057C80.5182 34.4697 80.9605 34.6529 81.2867 34.9791C81.6128 35.3052 81.796 35.7475 81.796 36.2087V38.1977C81.796 38.6589 81.6128 39.1013 81.2867 39.4274C80.9605 39.7535 80.5182 39.9367 80.057 39.9367H82.837C83.2982 39.9367 83.7405 39.7535 84.0667 39.4274C84.3928 39.1013 84.576 38.6589 84.576 38.1977V36.2087C84.576 35.7475 84.3928 35.3052 84.0667 34.9791C83.7405 34.6529 83.2982 34.4697 82.837 34.4697Z" fill="#ECBE6B"/>
<path d="M75.465 34.4709H62.057C61.5958 34.4709 61.1535 34.2877 60.8273 33.9616C60.5012 33.6354 60.318 33.1931 60.318 32.7319V30.7429C60.318 30.5145 60.363 30.2884 60.4504 30.0774C60.5378 29.8664 60.6659 29.6747 60.8273 29.5132C60.9888 29.3518 61.1805 29.2237 61.3915 29.1363C61.6025 29.0489 61.8286 29.0039 62.057 29.0039H75.465C75.6934 29.0039 75.9195 29.0489 76.1305 29.1363C76.3415 29.2237 76.5332 29.3518 76.6947 29.5132C76.8562 29.6747 76.9842 29.8664 77.0716 30.0774C77.159 30.2884 77.204 30.5145 77.204 30.7429V32.7319C77.204 33.1931 77.0208 33.6354 76.6947 33.9616C76.3685 34.2877 75.9262 34.4709 75.465 34.4709Z" fill="#EAB14D"/>
<path d="M75.465 29.0029H72.685C72.9134 29.0029 73.1395 29.0479 73.3505 29.1353C73.5615 29.2227 73.7532 29.3508 73.9147 29.5123C74.0762 29.6737 74.2042 29.8655 74.2916 30.0764C74.379 30.2874 74.424 30.5136 74.424 30.7419V32.7309C74.424 33.1921 74.2408 33.6345 73.9147 33.9606C73.5885 34.2867 73.1462 34.4699 72.685 34.4699H75.465C75.9262 34.4699 76.3685 34.2867 76.6947 33.9606C77.0208 33.6345 77.204 33.1921 77.204 32.7309V30.7419C77.204 30.2807 77.0208 29.8384 76.6947 29.5123C76.3685 29.1861 75.9262 29.0029 75.465 29.0029Z" fill="#E49542"/>
<path d="M54.509 6.21795L45.678 2.04395L36.847 6.21795L28.015 2.04395L19.184 6.21795L10.353 2.04395L5.69903 6.21795L1.04303 2.04395V71.1969L5.69903 67.0229L10.354 71.1969L19.185 67.0229L28.016 71.1969L36.847 67.0229L45.678 71.1969L54.51 67.0229L63.342 71.1969V2.04395L54.509 6.21795Z" fill="#ECF4FF"/>
<path d="M60.531 4.56295V68.6779L63.341 71.1969V2.04395L60.531 4.56295Z" fill="#DDEAFB"/>
<path d="M56.467 64.5238C62.2759 64.5238 66.985 59.8147 66.985 54.0058C66.985 48.1969 62.2759 43.4878 56.467 43.4878C50.658 43.4878 45.949 48.1969 45.949 54.0058C45.949 59.8147 50.658 64.5238 56.467 64.5238Z" fill="#F6E266"/>
<path d="M56.467 43.4878C55.744 43.4876 55.0229 43.5617 54.315 43.7088C56.68 44.2031 58.8028 45.4965 60.3265 47.3716C61.8502 49.2467 62.6819 51.5892 62.6819 54.0053C62.6819 56.4214 61.8502 58.7639 60.3265 60.639C58.8028 62.5141 56.68 63.8075 54.315 64.3018C55.7562 64.6027 57.2445 64.5977 58.6837 64.287C60.1228 63.9764 61.4807 63.3671 62.6695 62.4986C63.8583 61.6301 64.8515 60.5216 65.5848 59.245C66.3182 57.9684 66.7754 56.552 66.9268 55.0875C67.0782 53.6231 66.9205 52.1431 66.4638 50.7434C66.0072 49.3438 65.2618 48.0556 64.2758 46.9622C63.2899 45.8688 62.0854 44.9945 60.7402 44.3961C59.3951 43.7976 57.9393 43.4881 56.467 43.4878Z" fill="#ECBE6B"/>
<path d="M82.837 33.4269H78.155C78.2154 33.1984 78.2463 32.9632 78.247 32.7269V30.7369C78.2473 30.4558 78.2048 30.1762 78.121 29.9079C78.6814 29.7277 79.1703 29.3748 79.5178 28.8996C79.8652 28.4245 80.0533 27.8515 80.055 27.2629V25.2739C80.0542 24.536 79.7607 23.8286 79.239 23.3069C78.7173 22.7851 78.0099 22.4917 77.272 22.4909H73.072C72.9322 22.4866 72.7931 22.5104 72.6627 22.5608C72.5323 22.6113 72.4134 22.6875 72.313 22.7848C72.2126 22.8822 72.1328 22.9987 72.0783 23.1274C72.0238 23.2562 71.9957 23.3946 71.9957 23.5344C71.9957 23.6742 72.0238 23.8126 72.0783 23.9414C72.1328 24.0701 72.2126 24.1866 72.313 24.2839C72.4134 24.3813 72.5323 24.4574 72.6627 24.5079C72.7931 24.5584 72.9322 24.5822 73.072 24.5779H77.272C77.4577 24.5779 77.6357 24.6516 77.767 24.7829C77.8983 24.9142 77.972 25.0922 77.972 25.2779V27.2669C77.972 27.4525 77.8983 27.6306 77.767 27.7619C77.6357 27.8931 77.4577 27.9669 77.272 27.9669H64.385V24.5779H68.899C69.1702 24.5695 69.4274 24.4559 69.6162 24.2611C69.8051 24.0663 69.9107 23.8057 69.9107 23.5344C69.9107 23.2631 69.8051 23.0025 69.6162 22.8077C69.4274 22.6129 69.1702 22.4993 68.899 22.4909H64.385V2.04289C64.3852 1.84126 64.327 1.6439 64.2173 1.47468C64.1077 1.30546 63.9514 1.17165 63.7673 1.08944C63.5832 1.00723 63.3792 0.98014 63.18 1.01146C62.9808 1.04277 62.795 1.13115 62.645 1.26589L54.51 4.81589L46.374 1.26589C46.1825 1.09441 45.9345 0.999591 45.6775 0.999591C45.4205 0.999591 45.1725 1.09441 44.981 1.26589L36.847 4.81589L28.712 1.26589C28.5206 1.0942 28.2726 0.999248 28.0155 0.999248C27.7584 0.999248 27.5104 1.0942 27.319 1.26589L19.185 4.81589L11.055 1.26589C10.8632 1.09225 10.6137 0.996094 10.355 0.996094C10.0963 0.996094 9.8468 1.09225 9.655 1.26589L5.696 4.81589L1.74 1.26589C1.58998 1.13128 1.40418 1.04302 1.20506 1.01178C1.00594 0.980545 0.802028 1.00767 0.618001 1.08989C0.43399 1.17213 0.27772 1.30588 0.168057 1.47499C0.0583937 1.6441 2.59026e-05 1.84133 4.79876e-07 2.04289V12.5849C-0.000131067 12.722 0.0267838 12.8578 0.0792031 12.9846C0.131622 13.1113 0.208519 13.2264 0.305489 13.3234C0.40246 13.4204 0.517601 13.4973 0.644324 13.5497C0.771047 13.6021 0.906864 13.629 1.044 13.6289C1.18114 13.629 1.31696 13.6021 1.44368 13.5497C1.5704 13.4973 1.68554 13.4204 1.78251 13.3234C1.87948 13.2264 1.95638 13.1113 2.0088 12.9846C2.06122 12.8578 2.08813 12.722 2.088 12.5849V4.38489L5.003 6.99889C5.19437 7.17057 5.44241 7.26553 5.6995 7.26553C5.9566 7.26553 6.20463 7.17057 6.396 6.99889L10.355 3.44889L18.489 6.99889C18.6805 7.17036 18.9285 7.26518 19.1855 7.26518C19.4425 7.26518 19.6905 7.17036 19.882 6.99889L28.016 3.44889L36.155 6.99489C36.3465 7.16636 36.5945 7.26118 36.8515 7.26118C37.1085 7.26118 37.3565 7.16636 37.548 6.99489L45.682 3.44489L53.817 6.99489C54.0085 7.16636 54.2565 7.26118 54.5135 7.26118C54.7705 7.26118 55.0185 7.16636 55.21 6.99489L62.298 4.37989V44.0279C59.9702 42.6627 57.2373 42.1572 54.5752 42.5994C51.9131 43.0416 49.4905 44.4035 47.729 46.4479H6.255C6.11786 46.4478 5.98205 46.4747 5.85532 46.5271C5.7286 46.5795 5.61346 46.6564 5.51649 46.7534C5.41952 46.8503 5.34262 46.9655 5.2902 47.0922C5.23778 47.2189 5.21087 47.3547 5.211 47.4919C5.211 47.6289 5.23801 47.7646 5.29049 47.8913C5.34297 48.0179 5.41988 48.1329 5.51684 48.2298C5.6138 48.3266 5.7289 48.4034 5.85556 48.4558C5.98221 48.5081 6.11795 48.535 6.255 48.5349H46.285C45.5144 49.9644 45.056 51.5411 44.94 53.1609H6.255C5.97977 53.1619 5.7161 53.2717 5.52148 53.4664C5.32686 53.661 5.21706 53.9247 5.216 54.1999C5.21534 54.3369 5.2417 54.4728 5.29357 54.5996C5.34544 54.7265 5.42181 54.8419 5.5183 54.9392C5.6148 55.0365 5.72953 55.1139 5.85593 55.1669C5.98234 55.2198 6.11795 55.2474 6.255 55.2479H44.972C45.1092 56.5427 45.4667 57.8045 46.029 58.9789C46.1497 59.2264 46.3634 59.4162 46.6234 59.507C46.8835 59.5977 47.1688 59.582 47.4174 59.4633C47.6659 59.3445 47.8574 59.1324 47.9502 58.8731C48.0431 58.6138 48.0297 58.3284 47.913 58.0789C47.3044 56.8068 46.9903 55.414 46.994 54.0039C46.9936 51.8355 47.7367 49.7325 49.0991 48.0457C50.4616 46.3588 52.3612 45.19 54.4811 44.7342C56.601 44.2783 58.8131 44.563 60.7486 45.5407C62.684 46.5185 64.2258 48.1302 65.1167 50.107C66.0077 52.0839 66.1941 54.3064 65.6447 56.4041C65.0954 58.5017 63.8435 60.3476 62.0979 61.634C60.3523 62.9203 58.2185 63.5694 56.0523 63.4729C53.886 63.3765 51.8183 62.5403 50.194 61.1039C50.0922 61.0081 49.9722 60.9337 49.8411 60.8852C49.71 60.8366 49.5705 60.8149 49.4309 60.8213C49.2912 60.8277 49.1543 60.862 49.0282 60.9224C48.9021 60.9827 48.7893 61.0677 48.6967 61.1724C48.6041 61.2771 48.5334 61.3993 48.4889 61.5318C48.4444 61.6643 48.4269 61.8044 48.4376 61.9438C48.4483 62.0832 48.4868 62.219 48.5509 62.3432C48.6151 62.4674 48.7035 62.5775 48.811 62.6669C50.633 64.2798 52.9183 65.2756 55.3402 65.5117C57.7621 65.7479 60.1967 65.2125 62.296 63.9819V68.8599L55.204 66.2459C55.0125 66.0744 54.7645 65.9796 54.5075 65.9796C54.2505 65.9796 54.0025 66.0744 53.811 66.2459L45.678 69.7999L37.544 66.2499C37.3526 66.0782 37.1046 65.9832 36.8475 65.9832C36.5904 65.9832 36.3424 66.0782 36.151 66.2499L28.016 69.7999L19.882 66.2499C19.6906 66.0782 19.4426 65.9832 19.1855 65.9832C18.9284 65.9832 18.6804 66.0782 18.489 66.2499L10.355 69.7999L6.396 66.2499C6.20463 66.0782 5.9566 65.9832 5.6995 65.9832C5.44241 65.9832 5.19437 66.0782 5.003 66.2499L2.088 68.8639V16.7639C2.08813 16.6267 2.06122 16.4909 2.0088 16.3642C1.95638 16.2375 1.87948 16.1223 1.78251 16.0254C1.68554 15.9284 1.5704 15.8515 1.44368 15.7991C1.31696 15.7467 1.18114 15.7198 1.044 15.7199C0.906864 15.7198 0.771047 15.7467 0.644324 15.7991C0.517601 15.8515 0.40246 15.9284 0.305489 16.0254C0.208519 16.1223 0.131622 16.2375 0.0792031 16.3642C0.0267838 16.4909 -0.000131067 16.6267 4.79876e-07 16.7639V71.1999C2.59026e-05 71.4014 0.0583937 71.5987 0.168057 71.7678C0.27772 71.9369 0.43399 72.0706 0.618001 72.1529C0.802054 72.235 1.00593 72.262 1.20503 72.2308C1.40412 72.1996 1.58992 72.1114 1.74 71.9769L5.698 68.4269L9.655 71.9739C9.84637 72.1456 10.0944 72.2405 10.3515 72.2405C10.6086 72.2405 10.8566 72.1456 11.048 71.9739L19.182 68.4239L27.316 71.9739C27.5074 72.1456 27.7554 72.2405 28.0125 72.2405C28.2696 72.2405 28.5176 72.1456 28.709 71.9739L36.844 68.4239L44.978 71.9739C45.1695 72.1454 45.4175 72.2402 45.6745 72.2402C45.9315 72.2402 46.1795 72.1454 46.371 71.9739L54.506 68.4239L62.641 71.9739C62.791 72.1086 62.9768 72.197 63.176 72.2283C63.3752 72.2596 63.5792 72.2325 63.7633 72.1503C63.9474 72.0681 64.1037 71.9343 64.2133 71.7651C64.323 71.5959 64.3812 71.3985 64.381 71.1969V68.3199H75.465C76.2029 68.3191 76.9103 68.0256 77.432 67.5039C77.9537 66.9821 78.2472 66.2747 78.248 65.5369V63.5469C78.2482 62.9141 78.0315 62.3003 77.634 61.8079C78.0314 61.3154 78.2481 60.7017 78.248 60.0689V58.0799C78.2478 57.8312 78.2142 57.5836 78.148 57.3439C78.7972 57.2349 79.3868 56.8995 79.8122 56.3972C80.2376 55.8949 80.4714 55.2581 80.472 54.5999V52.6119C80.4708 51.9535 80.2364 51.3169 79.8104 50.8149C79.3844 50.313 78.7944 49.9781 78.145 49.8699C78.2113 49.6302 78.2449 49.3826 78.245 49.1339V47.1449C78.2448 46.8962 78.2112 46.6486 78.145 46.4089C78.795 46.3014 79.3859 45.967 79.8125 45.4649C80.2391 44.9628 80.4739 44.3257 80.475 43.6669V41.6769C80.4743 41.4406 80.4434 41.2053 80.383 40.9769H82.837C83.5738 40.9761 84.2803 40.6835 84.8019 40.163C85.3235 39.6426 85.6176 38.9367 85.62 38.1999V36.2099C85.6195 35.4721 85.3262 34.7647 84.8046 34.2429C84.2831 33.7212 83.5758 33.4277 82.838 33.4269H82.837ZM75.465 30.0459C75.6507 30.0459 75.8287 30.1196 75.96 30.2509C76.0913 30.3822 76.165 30.5602 76.165 30.7459V32.7359C76.165 32.9215 76.0913 33.0996 75.96 33.2309C75.8287 33.3621 75.6507 33.4359 75.465 33.4359H64.385V30.0459H75.465ZM66.739 38.8939H64.385V35.5139H66.739C66.6786 35.7423 66.6477 35.9776 66.647 36.2139V38.1999C66.6482 38.4342 66.6791 38.6674 66.739 38.8939ZM76.161 47.1439V49.1329C76.161 49.3185 76.0873 49.4966 75.956 49.6279C75.8247 49.7591 75.6467 49.8329 75.461 49.8329H67.241C66.76 48.5974 66.0703 47.4538 65.202 46.4519H75.465C75.6486 46.4532 75.8243 46.5266 75.9543 46.6562C76.0843 46.7858 76.1582 46.9613 76.16 47.1449L76.161 47.1439ZM76.161 58.0789V60.0689C76.161 60.2545 76.0873 60.4326 75.956 60.5639C75.8247 60.6951 75.6467 60.7689 75.461 60.7689H65.837C66.5811 59.7422 67.1507 58.5999 67.523 57.3879H75.465C75.6484 57.3892 75.824 57.4624 75.9539 57.5918C76.0839 57.7212 76.1579 57.8965 76.16 58.0799L76.161 58.0789ZM76.161 65.5359C76.161 65.7215 76.0873 65.8996 75.956 66.0309C75.8247 66.1621 75.6467 66.2359 75.461 66.2359H64.385V62.8519H75.465C75.6507 62.8519 75.8287 62.9256 75.96 63.0569C76.0913 63.1882 76.165 63.3662 76.165 63.5519L76.161 65.5359ZM78.385 52.6119V54.5999C78.385 54.6918 78.3669 54.7828 78.3317 54.8678C78.2965 54.9527 78.245 55.0299 78.18 55.0949C78.115 55.1599 78.0378 55.2114 77.9529 55.2466C77.868 55.2818 77.7769 55.2999 77.685 55.2999H67.955C68.084 54.1733 68.0439 53.0337 67.836 51.9189H77.69C77.8736 51.9202 78.0493 51.9936 78.1793 52.1232C78.3093 52.2528 78.3832 52.4283 78.385 52.6119ZM78.385 41.6769V43.6669C78.385 43.7588 78.3669 43.8498 78.3317 43.9348C78.2965 44.0197 78.245 44.0969 78.18 44.1619C78.115 44.2269 78.0378 44.2784 77.9529 44.3136C77.868 44.3488 77.7769 44.3669 77.685 44.3669H64.385V40.9869H77.692C77.8777 40.9869 78.0557 41.0606 78.187 41.1919C78.3183 41.3232 78.392 41.5012 78.392 41.6869L78.385 41.6769ZM83.533 38.1999C83.533 38.2918 83.5149 38.3828 83.4797 38.4678C83.4445 38.5527 83.393 38.6299 83.328 38.6949C83.263 38.7599 83.1858 38.8114 83.1009 38.8466C83.0159 38.8818 82.9249 38.8999 82.833 38.8999H69.43C69.3381 38.8999 69.2471 38.8818 69.1621 38.8466C69.0772 38.8114 69 38.7599 68.935 38.6949C68.87 38.6299 68.8185 38.5527 68.7833 38.4678C68.7481 38.3828 68.73 38.2918 68.73 38.1999V36.2099C68.73 36.118 68.7481 36.0269 68.7833 35.942C68.8185 35.8571 68.87 35.7799 68.935 35.7149C69 35.6499 69.0772 35.5984 69.1621 35.5632C69.2471 35.528 69.3381 35.5099 69.43 35.5099H82.837C82.9289 35.5099 83.02 35.528 83.1049 35.5632C83.1898 35.5984 83.267 35.6499 83.332 35.7149C83.397 35.7799 83.4485 35.8571 83.4837 35.942C83.5189 36.0269 83.537 36.118 83.537 36.2099L83.533 38.1999Z" fill="#282868"/>
<path d="M7.30997 26.0728C7.07833 25.9269 6.79864 25.8778 6.53114 25.9361C6.26364 25.9944 6.02975 26.1554 5.87985 26.3845C5.72996 26.6136 5.67605 26.8925 5.72976 27.1609C5.78346 27.4294 5.94048 27.666 6.16698 27.8198C6.88529 28.3391 7.72949 28.6568 8.61198 28.7398V29.3398C8.62037 29.611 8.73399 29.8682 8.92876 30.0571C9.12354 30.2459 9.38418 30.3515 9.65547 30.3515C9.92676 30.3515 10.1874 30.2459 10.3822 30.0571C10.577 29.8682 10.6906 29.611 10.699 29.3398V28.6398C11.461 28.4319 12.148 28.011 12.6794 27.4265C13.2107 26.8421 13.5644 26.1182 13.699 25.3398C13.8583 24.467 13.6947 23.566 13.2388 22.8048C12.7828 22.0437 12.0657 21.4743 11.221 21.2028C11.051 21.1428 10.878 21.0808 10.705 21.0158V17.7158C11.2079 17.789 11.6983 17.9317 12.162 18.1398C12.4084 18.2543 12.6898 18.2681 12.9463 18.1785C13.2027 18.0888 13.4142 17.9027 13.5356 17.6597C13.6571 17.4166 13.679 17.1358 13.5967 16.8768C13.5145 16.6179 13.3345 16.4012 13.095 16.2728C12.3404 15.9224 11.5326 15.7003 10.705 15.6158V15.1528C10.6966 14.8816 10.583 14.6244 10.3882 14.4356C10.1934 14.2467 9.93277 14.1411 9.66148 14.1411C9.39018 14.1411 9.12955 14.2467 8.93477 14.4356C8.73999 14.6244 8.62637 14.8816 8.61797 15.1528V15.7618C8.56197 15.7768 8.50597 15.7918 8.44997 15.8078C7.84621 15.9974 7.30635 16.3497 6.88968 16.826C6.473 17.3023 6.19562 17.8842 6.08797 18.5078C5.96441 19.0551 5.99353 19.6258 6.17217 20.1577C6.35081 20.6895 6.6721 21.1621 7.10098 21.5238C7.5699 21.8788 8.07909 22.1772 8.61797 22.4128V26.6398C8.14632 26.5543 7.70117 26.3598 7.31798 26.0718L7.30997 26.0728ZM11.643 24.9928C11.5937 25.2805 11.4841 25.5545 11.3214 25.7968C11.1587 26.0391 10.9466 26.2443 10.699 26.3988V23.2418C11.0382 23.3744 11.3193 23.623 11.4924 23.9435C11.6655 24.264 11.7192 24.6354 11.644 24.9918L11.643 24.9928ZM8.38297 19.8828C8.25841 19.7545 8.16976 19.5956 8.12589 19.4222C8.08201 19.2488 8.08445 19.067 8.13297 18.8948C8.19304 18.5653 8.36166 18.2654 8.61198 18.0428V20.0428C8.53098 19.9918 8.45397 19.9368 8.38397 19.8818L8.38297 19.8828Z" fill="#CC4586"/>
<path d="M19.284 16.7999H36.702C36.8418 16.8042 36.981 16.7804 37.1113 16.7299C37.2417 16.6795 37.3606 16.6033 37.461 16.506C37.5614 16.4086 37.6412 16.2921 37.6957 16.1634C37.7502 16.0346 37.7783 15.8962 37.7783 15.7564C37.7783 15.6166 37.7502 15.4782 37.6957 15.3494C37.6412 15.2207 37.5614 15.1042 37.461 15.0068C37.3606 14.9095 37.2417 14.8334 37.1113 14.7829C36.981 14.7324 36.8418 14.7086 36.702 14.7129H19.284C19.1443 14.7086 19.0051 14.7324 18.8747 14.7829C18.7443 14.8334 18.6254 14.9095 18.525 15.0068C18.4246 15.1042 18.3448 15.2207 18.2903 15.3494C18.2358 15.4782 18.2077 15.6166 18.2077 15.7564C18.2077 15.8962 18.2358 16.0346 18.2903 16.1634C18.3448 16.2921 18.4246 16.4086 18.525 16.506C18.6254 16.6033 18.7443 16.6795 18.8747 16.7299C19.0051 16.7804 19.1443 16.8042 19.284 16.7999Z" fill="#CC4586"/>
<path d="M19.023 21.8497H42.532C42.964 21.8497 43.315 21.3827 43.315 20.8057C43.315 20.2287 42.965 19.7617 42.532 19.7617H19.023C18.591 19.7617 18.24 20.2287 18.24 20.8057C18.24 21.3827 18.59 21.8497 19.023 21.8497Z" fill="#CC4586"/>
<path d="M25.389 31.5611C25.389 32.1371 25.702 32.6051 26.542 32.6051H53.472C54.313 32.6051 54.994 32.1381 54.994 31.5611C54.994 30.9841 54.313 30.5171 53.472 30.5171H26.542C25.702 30.5171 25.389 30.9841 25.389 31.5611Z" fill="#CC4586"/>
<path d="M53.472 37.23H26.542C25.701 37.23 25.389 37.697 25.389 38.274C25.389 38.851 25.702 39.318 26.542 39.318H53.472C54.313 39.318 54.994 38.851 54.994 38.274C54.994 37.697 54.313 37.23 53.472 37.23Z" fill="#CC4586"/>
</svg>
