<svg width="86" height="79" viewBox="0 0 86 79" fill="none" xmlns="http://www.w3.org/2000/svg">
<path d="M43.0006 15.5688L58.275 30.8365C58.8158 31.3772 59.5493 31.6809 60.3141 31.6809H81.3471V71.0456H4.6539V31.6811H25.6869C26.4517 31.6811 27.1852 31.3774 27.726 30.8367L43.0006 15.5688Z" fill="#F9D477"/>
<path d="M60.3143 31.6811C59.5495 31.6811 58.816 31.3774 58.2751 30.8367L43.0006 15.5688L27.7262 30.8365C27.1853 31.3772 26.4518 31.6809 25.6871 31.6809H4.6539V35.4138H25.6936C27.4613 35.4138 29.1232 34.7255 30.3727 33.4756L41.8006 22.0477C42.4633 21.3851 43.5376 21.3851 44.2002 22.0477L55.6279 33.4755C56.8776 34.7255 58.5397 35.4138 60.3072 35.4138H75.9174C76.8544 35.4138 77.6142 36.1735 77.6142 37.1106V71.0456H81.3471V31.6811H60.3143Z" fill="#F2C143"/>
<path d="M40.9609 9.44974C42.0873 8.32335 43.9137 8.32335 45.0401 9.44974L61.5023 25.9118H81.3473L73.3458 4.3692C72.8519 3.03956 71.5831 2.15723 70.1646 2.15723H15.8366C14.4181 2.15723 13.1492 3.0394 12.6554 4.3692L4.6539 25.9118H24.4989L40.9609 9.44974Z" fill="#8E83E2"/>
<path d="M73.3449 4.3692C72.851 3.03956 71.5822 2.15723 70.1637 2.15723H65.0734C66.4919 2.15723 67.7608 3.0394 68.2546 4.3692L76.2561 25.9118H81.3464L73.3449 4.3692Z" fill="#7E6DEC"/>
<path d="M84.7402 29.9841C84.7402 30.9212 83.9805 31.6809 83.0434 31.6809H60.3071C59.542 31.6809 58.8083 31.377 58.2674 30.836L43.0001 15.5687L27.7328 30.836C27.1919 31.3769 26.4582 31.6809 25.6931 31.6809H2.95658C2.01949 31.6809 1.25977 30.9212 1.25977 29.9841V27.6087C1.25977 26.6716 2.01949 25.9119 2.95658 25.9119H24.4984L40.9606 9.44978C42.087 8.32338 43.9133 8.32338 45.0397 9.44978L61.502 25.9119H83.0436C83.9807 25.9119 84.7404 26.6716 84.7404 27.6087V29.9841H84.7402Z" fill="#E7ECF6"/>
<path d="M83.0433 25.9116H77.2743C78.2114 25.9116 78.9711 26.6713 78.9711 27.6084V29.9838C78.9711 30.9209 78.2114 31.6807 77.2743 31.6807H83.0433C83.9804 31.6807 84.7402 30.9209 84.7402 29.9838V27.6084C84.74 26.6713 83.9804 25.9116 83.0433 25.9116Z" fill="#D8E2F1"/>
<path d="M58.7804 44.2368H75.7479V61.2043H58.7804V44.2368Z" fill="#9DC6FB"/>
<path d="M58.7804 61.2041H75.7479V66.6337H58.7804V61.2041Z" fill="#AA8080"/>
<path d="M10.2529 44.2368H27.2204V61.2043H10.2529V44.2368Z" fill="#9DC6FB"/>
<path d="M10.2529 61.2041H27.2204V66.6337H10.2529V61.2041Z" fill="#AA8080"/>
<path d="M33.4982 44.2368H52.5018V71.0456H33.4982V44.2368Z" fill="#8B5E5E"/>
<path d="M38.9272 49.6665H47.0717V55.0961H38.9272V49.6665Z" fill="#9DC6FB"/>
<path d="M42.9995 37.9588C45.9982 37.9588 48.4291 35.5279 48.4291 32.5292C48.4291 29.5305 45.9982 27.0996 42.9995 27.0996C40.0009 27.0996 37.5699 29.5305 37.5699 32.5292C37.5699 35.5279 40.0009 37.9588 42.9995 37.9588Z" fill="#9DC6FB"/>
<path d="M1.25977 71.0454H84.7402V76.8145H1.25977V71.0454Z" fill="#8E83E2"/>
<path d="M78.9714 71.0454H84.7404V76.8145H78.9714V71.0454Z" fill="#7E6DEC"/>
<path d="M83.0433 24.6521H82.2224L74.5259 3.93063C73.852 2.11641 72.0991 0.897461 70.1638 0.897461H15.8359C13.9007 0.897461 12.1476 2.11641 11.4738 3.93063L3.77744 24.6521H2.95658C1.32628 24.6521 0 25.9783 0 27.6086V29.984C0 31.6143 1.32628 32.9406 2.95658 32.9406H3.39363V60.553C3.39363 61.2487 3.9575 61.8127 4.6534 61.8127C5.34929 61.8127 5.91316 61.2487 5.91316 60.553V32.9406H25.6931C26.8 32.9406 27.8408 32.5096 28.6237 31.7267L42.9999 17.3501L57.3765 31.7267C58.1592 32.5095 59.2 32.9405 60.3069 32.9405H80.0868V36.2803C80.0868 36.9761 80.6507 37.5401 81.3466 37.5401C82.0425 37.5401 82.6064 36.9761 82.6064 36.2803V32.9405H83.0434C84.6736 32.9405 86 31.6142 86 29.9839V27.6085C85.9998 25.9783 84.6736 24.6521 83.0433 24.6521ZM13.8356 4.80777C14.1446 3.97582 14.9485 3.41699 15.8359 3.41699H70.1638C71.0512 3.41699 71.855 3.97599 72.1641 4.80777L79.5347 24.6521H62.0235L45.9303 8.559C45.1476 7.77627 44.107 7.3451 42.9999 7.3451C41.8928 7.3451 40.8523 7.7761 40.0695 8.559L23.9763 24.6521H6.46494L13.8356 4.80777ZM83.4803 29.984C83.4803 30.2251 83.2843 30.4211 83.0433 30.4211H60.3069C59.8729 30.4211 59.4647 30.2521 59.158 29.9452L43.8907 14.6779C43.6543 14.4416 43.334 14.3089 42.9998 14.3089C42.6655 14.3089 42.3453 14.4416 42.1088 14.6779L26.8417 29.9452C26.5348 30.2521 26.1266 30.4211 25.6926 30.4211H2.95658C2.71555 30.4211 2.51953 30.2251 2.51953 29.984V27.6086C2.51953 27.3676 2.71555 27.1716 2.95658 27.1716H24.4982C24.8323 27.1716 25.1526 27.0389 25.3891 26.8026L41.8514 10.3405C42.1581 10.0336 42.5661 9.86462 43.0001 9.86462C43.4341 9.86462 43.8421 10.0336 44.1488 10.3405L60.6111 26.8026C60.8474 27.0389 61.1677 27.1716 61.502 27.1716H83.0436C83.2846 27.1716 83.4807 27.3676 83.4807 27.6086V29.984H83.4803Z" fill="#653167"/>
<path d="M75.7471 67.8937C76.443 67.8937 77.0068 67.3296 77.0068 66.6339V44.2368C77.0068 43.5411 76.443 42.9771 75.7471 42.9771H58.7794C58.0835 42.9771 57.5197 43.5411 57.5197 44.2368V66.6339C57.5197 67.3296 58.0835 67.8937 58.7794 67.8937H75.7471ZM74.4873 59.9445H68.5229V53.9803H74.4873V59.9445ZM66.0034 59.9445H60.0392V53.9803H66.0034V59.9445ZM74.4873 65.3741H60.0392V62.4641H74.4873V65.3741ZM74.4873 51.4606H68.5229V45.4964H74.4873V51.4606ZM66.0034 45.4966V51.4608H60.0392V45.4966H66.0034Z" fill="#653167"/>
<path d="M27.2196 67.8937C27.9154 67.8937 28.4793 67.3296 28.4793 66.6339V44.2368C28.4793 43.5411 27.9154 42.9771 27.2196 42.9771H10.2519C9.556 42.9771 8.99213 43.5411 8.99213 44.2368V66.6339C8.99213 67.3296 9.556 67.8937 10.2519 67.8937H27.2196ZM25.9598 59.9445H19.9956V53.9803H25.9598V59.9445ZM17.476 59.9445H11.5117V53.9803H17.476V59.9445ZM25.9598 65.3741H11.5117V62.4641H25.9598V65.3741ZM25.9598 51.4606H19.9956V45.4964H25.9598V51.4606ZM17.476 45.4966V51.4608H11.5117V45.4966H17.476Z" fill="#653167"/>
<path d="M47.0717 48.4067H38.9272C38.2314 48.4067 37.6675 48.9708 37.6675 49.6665V55.0961C37.6675 55.7918 38.2314 56.3558 38.9272 56.3558H47.0717C47.7676 56.3558 48.3315 55.7918 48.3315 55.0961V49.6665C48.3315 48.9708 47.7676 48.4067 47.0717 48.4067ZM45.8119 53.8363H40.187V50.9263H45.8119V53.8363Z" fill="#653167"/>
<path d="M49.6889 32.5292C49.6889 28.8408 46.6881 25.8398 42.9995 25.8398C39.3109 25.8398 36.3102 28.8408 36.3102 32.5292C36.3102 36.2176 39.3109 39.2187 42.9995 39.2187C46.6881 39.2187 49.6889 36.2178 49.6889 32.5292ZM38.8297 32.5292C38.8297 30.23 40.7004 28.3594 42.9995 28.3594C45.2987 28.3594 47.1693 30.23 47.1693 32.5292C47.1693 34.8283 45.2987 36.6992 42.9995 36.6992C40.7004 36.6992 38.8297 34.8285 38.8297 32.5292Z" fill="#653167"/>
<path d="M84.7401 69.7857H82.6064V42.1733C82.6064 41.4776 82.0425 40.9136 81.3466 40.9136C80.6507 40.9136 80.0868 41.4776 80.0868 42.1733V69.7857H53.7615V44.2368C53.7615 43.5411 53.1976 42.9771 52.5017 42.9771H33.4981C32.8022 42.9771 32.2383 43.5411 32.2383 44.2368V69.7857H5.91299V66.4458C5.91299 65.7501 5.34912 65.186 4.65323 65.186C3.95734 65.186 3.39347 65.7501 3.39347 66.4458V69.7857H1.25976C0.56387 69.7857 0 70.3497 0 71.0454V76.8145C0 77.5102 0.56387 78.0742 1.25976 78.0742H84.7401C85.436 78.0742 85.9998 77.5102 85.9998 76.8145V71.0454C85.9998 70.3497 85.436 69.7857 84.7401 69.7857ZM34.7579 60.5976H36.5524C37.2483 60.5976 37.8122 60.0336 37.8122 59.3379C37.8122 58.6421 37.2483 58.0781 36.5524 58.0781H34.7579V45.4966H51.2421V69.7857H34.7579V60.5976ZM83.4803 75.5547H2.51953V72.3052H83.4803V75.5547Z" fill="#653167"/>
</svg>
