<svg width="84" height="83" viewBox="0 0 84 83" fill="none" xmlns="http://www.w3.org/2000/svg">
<path d="M80.336 44.8761L76.899 43.776C76.4941 43.6454 76.1266 43.4195 75.8273 43.1172C75.5279 42.8149 75.3056 42.4452 75.179 42.039C71.224 29.461 56.536 23.6851 41.753 23.6851C24.453 23.6851 10.436 31.585 10.436 49.043C10.436 59.102 15.37 66.148 22.993 70.218C23.0858 70.267 23.1664 70.3361 23.2289 70.4204C23.2914 70.5047 23.3341 70.602 23.354 70.705L25.062 79.576C25.1386 79.9812 25.3543 80.3469 25.6718 80.6099C25.9893 80.873 26.3886 81.017 26.801 81.0171H32.567C32.9793 81.017 33.3787 80.873 33.6962 80.6099C34.0137 80.3469 34.2293 79.9812 34.306 79.576L35.24 74.6441C35.2727 74.4685 35.3713 74.3122 35.5156 74.207C35.6598 74.1018 35.8388 74.0556 36.016 74.078C37.9205 74.2964 39.836 74.4046 41.753 74.4021C44.3605 74.4034 46.9644 74.2095 49.543 73.8221C49.7234 73.7929 49.9081 73.8354 50.0576 73.9406C50.2071 74.0458 50.3095 74.2053 50.343 74.3851L51.325 79.5751C51.4016 79.9802 51.6173 80.3459 51.9348 80.6089C52.2523 80.872 52.6516 81.016 53.064 81.0161H58.831C59.2433 81.016 59.6427 80.872 59.9602 80.6089C60.2777 80.3459 60.4933 79.9802 60.57 79.5751L62.344 70.1831C62.3639 70.0785 62.4073 69.9798 62.4711 69.8945C62.5349 69.8093 62.6173 69.7397 62.712 69.6911C67.1203 67.5347 70.8196 64.1619 73.373 59.9711C73.6876 59.4195 74.1963 59.0049 74.8 58.8081L80.338 57.0341C81.0221 56.8148 81.6189 56.3839 82.0423 55.8036C82.4658 55.2233 82.6939 54.5234 82.694 53.8051V48.1051C82.6938 47.3864 82.4653 46.6864 82.0415 46.106C81.6177 45.5257 81.0205 45.095 80.336 44.8761Z" fill="#FF7BAC"/>
<path d="M82.261 46.454C82.1119 46.1861 81.9272 45.9395 81.712 45.721L81.699 45.707C81.3177 45.3254 80.8508 45.0405 80.337 44.876L77.789 44.0601V47.0601C77.7889 48.8763 77.2197 50.647 76.1615 52.1231C75.1032 53.5993 73.6091 54.7068 71.889 55.29C70.2894 55.8118 68.8902 56.8153 67.883 58.1631C66.6163 59.8229 65.1415 61.313 63.495 62.597C61.526 64.1325 60.2146 66.3594 59.827 68.826C59.557 70.588 59.348 72.9561 59.215 74.2881C59.1654 74.7821 58.9337 75.2399 58.5652 75.5726C58.1966 75.9053 57.7175 76.089 57.221 76.088H54.368C53.9557 76.088 53.5563 75.944 53.2388 75.6809C52.9213 75.4179 52.7057 75.0522 52.629 74.647L51.647 68.968C51.6136 68.7883 51.5112 68.6288 51.3617 68.5236C51.2122 68.4184 51.0275 68.3758 50.847 68.405C47.8315 68.7925 44.7943 68.9862 41.754 68.985C39.794 68.985 36.248 68.877 34.388 68.661C34.2109 68.6386 34.0319 68.6847 33.8876 68.7899C33.7434 68.8952 33.6448 69.0515 33.612 69.2271L32.678 74.484C32.6014 74.8892 32.3857 75.2549 32.0682 75.5179C31.7507 75.781 31.3513 75.925 30.939 75.925H28.103C27.6907 75.925 27.2913 75.781 26.9738 75.5179C26.6563 75.2549 26.4407 74.8892 26.364 74.484L24.982 66.265C24.9622 66.162 24.9195 66.0647 24.857 65.9804C24.7945 65.8961 24.7138 65.827 24.621 65.778C17.694 62.078 11.36 54.947 10.558 46.306C10.5387 46.518 10.5217 46.7317 10.507 46.9471V46.9601C10.507 46.9811 10.507 47.003 10.507 47.024C10.4943 47.2174 10.4834 47.412 10.474 47.608C10.474 47.689 10.468 47.7711 10.465 47.8531C10.459 48.0021 10.453 48.153 10.45 48.302C10.444 48.546 10.441 48.792 10.441 49.04C10.4391 50.254 10.5149 51.4668 10.668 52.6711C10.8429 54.0476 11.1343 55.4068 11.539 56.734C11.56 56.804 11.583 56.874 11.605 56.944C11.6597 57.1167 11.7164 57.2887 11.775 57.4601C11.798 57.5281 11.822 57.597 11.846 57.66C12.008 58.1174 12.183 58.5651 12.371 59.0031L12.431 59.1421C12.5237 59.3541 12.6193 59.564 12.718 59.772L12.768 59.872C12.86 60.0634 12.955 60.253 13.053 60.441L13.103 60.541C13.209 60.741 13.3184 60.9411 13.431 61.1411L13.505 61.2701C13.8661 61.8971 14.2586 62.5056 14.681 63.093L14.803 63.26C14.905 63.3994 15.0087 63.537 15.114 63.673L15.239 63.834C15.381 64.015 15.526 64.195 15.674 64.371C15.822 64.548 15.974 64.721 16.127 64.893L16.268 65.048C16.3827 65.174 16.499 65.2987 16.617 65.4221L16.76 65.571C16.9213 65.737 17.0847 65.9007 17.25 66.062C17.4354 66.2414 17.624 66.418 17.816 66.592C18.2 66.9394 18.596 67.275 19.004 67.599C19.412 67.923 19.8324 68.2354 20.265 68.536C20.481 68.6867 20.7 68.8344 20.922 68.979C21.122 69.1124 21.3244 69.24 21.529 69.362L21.706 69.4691C21.8607 69.5624 22.016 69.654 22.172 69.744L22.358 69.851C22.568 69.9704 22.78 70.0874 22.994 70.2021C23.0405 70.2269 23.0841 70.2567 23.124 70.291C23.1606 70.3209 23.1941 70.3545 23.224 70.3911C23.233 70.4021 23.24 70.413 23.248 70.425C23.2676 70.4534 23.2849 70.4831 23.3 70.514C23.306 70.526 23.312 70.5381 23.318 70.5511C23.3365 70.5945 23.3506 70.6397 23.36 70.686L25.068 79.557C25.0875 79.6593 25.116 79.7597 25.153 79.8571C25.171 79.9051 25.192 79.957 25.214 79.998C25.236 80.039 25.261 80.0891 25.286 80.132C25.311 80.175 25.34 80.218 25.369 80.259C25.398 80.3 25.43 80.3401 25.463 80.3781C25.496 80.416 25.54 80.462 25.581 80.502L25.621 80.5381C25.651 80.5651 25.681 80.5911 25.712 80.6151L25.76 80.651C25.792 80.675 25.825 80.697 25.86 80.718L25.906 80.747C25.955 80.776 26.006 80.803 26.057 80.828C26.109 80.852 26.162 80.8731 26.216 80.8921L26.268 80.9091C26.307 80.9211 26.346 80.933 26.386 80.942L26.446 80.9561C26.486 80.9641 26.5267 80.9707 26.568 80.976L26.624 80.983C26.683 80.989 26.743 80.993 26.803 80.993H32.568C32.8265 80.9932 33.0819 80.9365 33.316 80.8271C33.4982 80.7418 33.6646 80.6261 33.808 80.485C34.0662 80.2325 34.2407 79.9069 34.308 79.552L35.242 74.6201C35.2499 74.5798 35.2612 74.5403 35.276 74.502C35.276 74.491 35.285 74.4801 35.29 74.4691C35.3017 74.4422 35.3151 74.4162 35.33 74.3911L35.348 74.3611C35.4272 74.2393 35.5442 74.1469 35.681 74.0981L35.708 74.114C35.7316 74.1061 35.7557 74.0994 35.78 74.0941C35.799 74.0941 35.818 74.087 35.837 74.084C35.856 74.081 35.874 74.0781 35.893 74.0771C35.9336 74.0734 35.9744 74.0734 36.015 74.0771C36.325 74.1131 36.637 74.145 36.95 74.177L37.185 74.199C37.498 74.228 37.812 74.254 38.128 74.277C38.444 74.299 38.762 74.318 39.081 74.334L39.322 74.346C39.642 74.361 39.963 74.3741 40.286 74.3831C40.7707 74.3964 41.258 74.403 41.748 74.403C42.4027 74.403 43.057 74.391 43.711 74.367C44.0443 74.355 44.3777 74.3394 44.711 74.32L44.811 74.313C45.111 74.295 45.417 74.2761 45.72 74.2531H45.741C46.4077 74.2024 47.0687 74.1394 47.724 74.0641H47.73C48.0313 74.0294 48.3313 73.9924 48.63 73.953C48.775 73.934 48.919 73.9121 49.064 73.8921C49.209 73.8721 49.382 73.849 49.541 73.824C49.6945 73.8014 49.8511 73.8304 49.9863 73.9064C50.1215 73.9824 50.2276 74.1012 50.288 74.244L50.294 74.255C50.3113 74.298 50.3244 74.3425 50.333 74.388L50.824 76.988L51.315 79.588C51.3952 79.9928 51.6143 80.3568 51.9343 80.6172C52.2544 80.8776 52.6554 81.0179 53.068 81.014H58.836C58.8958 81.0138 58.9556 81.0105 59.015 81.0041L59.071 80.997C59.112 80.992 59.153 80.9851 59.193 80.9771L59.253 80.9641C59.293 80.9541 59.332 80.943 59.371 80.931L59.423 80.914C59.478 80.895 59.531 80.874 59.583 80.849C59.635 80.825 59.683 80.797 59.735 80.768L59.781 80.739C59.815 80.718 59.848 80.695 59.881 80.6711L59.929 80.635C59.96 80.61 59.991 80.584 60.021 80.558L60.061 80.522C60.102 80.483 60.142 80.442 60.179 80.398C60.194 80.381 60.207 80.363 60.221 80.345C60.4007 80.1211 60.5222 79.8562 60.575 79.574L60.964 77.5161L61.364 75.377L61.617 74.036L62.345 70.182L62.41 69.836L62.697 69.694C62.6986 69.6948 62.7003 69.6953 62.702 69.6953C62.7038 69.6953 62.7055 69.6948 62.707 69.694H62.713C62.851 69.622 62.987 69.5471 63.123 69.4731C63.259 69.3991 63.411 69.321 63.552 69.242C63.675 69.174 63.794 69.1021 63.916 69.0331C64.069 68.9451 64.223 68.8591 64.373 68.7701C64.497 68.6961 64.618 68.619 64.74 68.544C64.885 68.455 65.031 68.368 65.173 68.277C65.315 68.186 65.425 68.111 65.551 68.028C65.677 67.945 65.821 67.853 65.951 67.763C66.081 67.673 66.197 67.5891 66.32 67.5031C66.443 67.4171 66.581 67.3221 66.709 67.2281C66.837 67.1341 66.944 67.051 67.061 66.962C67.178 66.873 67.319 66.7701 67.445 66.6721C67.571 66.5741 67.669 66.4901 67.781 66.4001C67.893 66.3101 68.034 66.2 68.157 66.1C68.28 66 68.38 65.9071 68.491 65.8101C68.602 65.7131 68.729 65.6101 68.845 65.5031C68.961 65.3961 69.057 65.303 69.163 65.203C69.269 65.103 69.395 64.99 69.508 64.881C69.621 64.772 69.708 64.6811 69.808 64.5811C69.908 64.4811 70.033 64.359 70.142 64.246C70.251 64.133 70.336 64.036 70.434 63.931C70.532 63.826 70.649 63.703 70.752 63.586C70.855 63.469 70.937 63.3701 71.03 63.2621C71.123 63.1541 71.236 63.026 71.33 62.906C71.424 62.786 71.506 62.6831 71.594 62.5721C71.682 62.4611 71.794 62.329 71.884 62.204C71.974 62.079 72.052 61.972 72.137 61.856C72.222 61.74 72.321 61.608 72.409 61.481C72.497 61.354 72.569 61.241 72.649 61.121C72.729 61.001 72.821 60.867 72.904 60.738C73.004 60.577 73.104 60.411 73.204 60.25C73.265 60.15 73.322 60.057 73.378 59.959C73.6858 59.4215 74.1822 59.0174 74.771 58.825L74.791 58.819L77.616 57.919L80.329 57.05C81.0131 56.8308 81.6099 56.3999 82.0333 55.8196C82.4568 55.2392 82.685 54.5394 82.685 53.821V48.121C82.6844 47.6294 82.5766 47.1438 82.369 46.6981C82.3383 46.6101 82.3023 46.5287 82.261 46.454Z" fill="#E8679C"/>
<path d="M55.186 26.7658C55.2759 26.3553 55.4606 25.9715 55.7254 25.6452C55.9902 25.3189 56.3278 25.0592 56.711 24.8868C59.683 23.5268 67.257 20.2518 69.203 21.2718C71.641 22.5488 70.364 36.3348 66.649 38.4398C63.061 40.4658 52.648 38.8058 55.186 26.7658Z" fill="#E8679C"/>
<path d="M37.807 32.1147C46.3381 32.1147 53.254 25.1988 53.254 16.6677C53.254 8.13656 46.3381 1.2207 37.807 1.2207C29.2758 1.2207 22.36 8.13656 22.36 16.6677C22.36 25.1988 29.2758 32.1147 37.807 32.1147Z" fill="#FFCC25"/>
<path d="M68.169 22.8667C66.469 22.8667 62.369 24.2667 57.456 26.5127C57.3273 26.5685 57.2135 26.6537 57.1235 26.7613C57.0336 26.869 56.9701 26.9961 56.938 27.1327C56.222 30.5327 56.605 33.2657 58.046 35.0407C58.2155 35.2492 58.4 35.4451 58.598 35.6267C58.6515 35.6747 58.7166 35.7081 58.7868 35.7235C58.8571 35.7389 58.9301 35.7358 58.9988 35.7145C59.0675 35.6933 59.1295 35.6546 59.1788 35.6022C59.2281 35.5498 59.263 35.4856 59.28 35.4157C60.988 28.6527 69.274 22.8667 68.169 22.8667Z" fill="#FF7BAC"/>
<path d="M48.919 5.93896L27.079 27.78C29.9925 30.5917 33.8937 32.147 37.9425 32.111C41.9914 32.0749 45.8643 30.4505 48.7273 27.5873C51.5903 24.7241 53.2146 20.8512 53.2505 16.8023C53.2863 12.7534 51.7309 8.85238 48.919 5.93896Z" fill="#F5BB34"/>
<path d="M37.452 24.3321C34.783 24.2891 32.974 22.8461 32.974 21.7921C32.974 21.2751 33.426 20.5651 33.964 20.5651C34.674 20.5651 35.256 22.0721 37.452 22.2441V17.1821C35.514 16.4931 33.362 15.7181 33.362 12.9621C33.362 10.2491 35.407 9.17311 37.452 8.96211V8.33811C37.4691 8.18934 37.5443 8.05334 37.6611 7.9597C37.778 7.86607 37.9271 7.82237 38.076 7.83811C38.399 7.83811 38.722 8.07511 38.722 8.33811V8.91911C40.186 8.96211 42.253 9.41911 42.253 10.4691C42.253 10.8781 41.953 11.6961 41.306 11.6961C40.789 11.6961 40.23 11.0071 38.723 10.8961V15.2661C40.596 15.9551 42.641 16.9021 42.641 19.8301C42.6768 20.379 42.6036 20.9295 42.4258 21.4499C42.2479 21.9704 41.9689 22.4506 41.6047 22.8628C41.2406 23.275 40.7985 23.6111 40.3039 23.8518C39.8094 24.0924 39.2721 24.2329 38.723 24.2651V24.9971C38.723 25.2551 38.4 25.4971 38.077 25.4971C37.9281 25.5128 37.779 25.4691 37.6621 25.3755C37.5453 25.2819 37.4701 25.1459 37.453 24.9971V24.3321H37.452ZM37.581 14.8591V10.9411C36.375 11.0921 35.514 11.6301 35.514 12.7491C35.514 13.9771 36.44 14.4291 37.583 14.8591H37.581ZM38.593 17.6591V22.2011C39.1237 22.1616 39.6182 21.9171 39.9717 21.5193C40.3252 21.1215 40.51 20.6018 40.487 20.0701C40.4811 19.5156 40.2923 18.9785 39.9498 18.5423C39.6073 18.1062 39.1303 17.7953 38.593 17.6581V17.6591Z" fill="white"/>
<path d="M70.467 44.7337C70.467 44.4099 70.3384 44.0993 70.1094 43.8703C69.8804 43.6413 69.5699 43.5127 69.246 43.5127C68.9222 43.5127 68.6116 43.6413 68.3826 43.8703C68.1536 44.0993 68.025 44.4099 68.025 44.7337C68.0325 44.9419 67.998 45.1495 67.9234 45.3441C67.8489 45.5387 67.7359 45.7163 67.5912 45.8662C67.4466 46.0162 67.2732 46.1355 67.0814 46.2169C66.8896 46.2984 66.6834 46.3404 66.475 46.3404C66.2666 46.3404 66.0604 46.2984 65.8687 46.2169C65.6769 46.1355 65.5035 46.0162 65.3588 45.8662C65.2141 45.7163 65.1011 45.5387 65.0266 45.3441C64.9521 45.1495 64.9175 44.9419 64.925 44.7337C64.925 44.4099 64.7964 44.0993 64.5674 43.8703C64.3384 43.6413 64.0278 43.5127 63.704 43.5127C63.3802 43.5127 63.0696 43.6413 62.8406 43.8703C62.6117 44.0993 62.483 44.4099 62.483 44.7337C62.483 45.7927 62.9037 46.8083 63.6526 47.5572C64.4014 48.306 65.417 48.7267 66.476 48.7267C67.535 48.7267 68.5507 48.306 69.2995 47.5572C70.0483 46.8083 70.469 45.7927 70.469 44.7337H70.467Z" fill="#6E4270"/>
<path d="M80.708 43.7129L77.271 42.6129C77.0525 42.5418 76.8541 42.4193 76.6927 42.2558C76.5312 42.0922 76.4113 41.8923 76.343 41.6729C75.6177 39.3678 74.5202 37.1968 73.094 35.2459C72.4324 34.3418 71.7072 33.4859 70.924 32.6849C71.4379 30.4156 71.6886 28.0946 71.671 25.7679C71.62 22.6559 70.998 20.8319 69.771 20.1879C69.11 19.8409 67.097 18.7879 56.204 23.7739C55.9488 23.8912 55.7067 24.0354 55.482 24.2039C54.748 24.0039 53.997 23.8239 53.242 23.6599C53.151 23.6399 53.057 23.6229 52.966 23.6029C53.8594 21.657 54.3687 19.5569 54.466 17.4179C54.4805 17.0943 54.3658 16.7783 54.1472 16.5393C53.9286 16.3003 53.6241 16.1579 53.3005 16.1434C52.9769 16.129 52.6609 16.2436 52.4219 16.4622C52.1829 16.6808 52.0405 16.9853 52.026 17.3089C51.9 20.1067 50.95 22.8048 49.2953 25.0644C47.6407 27.324 45.3552 29.0442 42.726 30.0089C39.4653 29.5519 36.1567 29.5519 32.896 30.0089C30.7216 29.2067 28.7763 27.8851 27.2294 26.1593C25.6824 24.4335 24.5807 22.3557 24.0203 20.1069C23.4598 17.858 23.4574 15.5063 24.0135 13.2563C24.5695 11.0064 25.6671 8.92645 27.2106 7.19758C28.7541 5.46871 30.6968 4.14332 32.8696 3.33678C35.0424 2.53025 37.3794 2.26701 39.6771 2.56999C41.9749 2.87298 44.1637 3.73299 46.0532 5.07518C47.9426 6.41736 49.4754 8.20103 50.518 10.2709C50.6639 10.5603 50.9187 10.7798 51.2265 10.8813C51.5342 10.9827 51.8696 10.9578 52.159 10.8119C52.4484 10.666 52.6679 10.4112 52.7694 10.1034C52.8708 9.7957 52.8459 9.46026 52.7 9.17091C51.5426 6.875 49.8698 4.87794 47.8124 3.33593C45.755 1.79392 43.3688 0.748743 40.8403 0.282149C38.3119 -0.184446 35.7098 -0.0598124 33.2375 0.646302C30.7652 1.35242 28.4898 2.62087 26.5892 4.35246C24.6886 6.08405 23.2143 8.23184 22.2816 10.6279C21.349 13.0239 20.9832 15.6032 21.213 18.164C21.4428 20.7249 22.2618 23.1978 23.6061 25.3896C24.9504 27.5813 26.7835 29.4323 28.962 30.7979C28.2027 30.9979 27.45 31.2206 26.704 31.4659C26.3967 31.5685 26.1429 31.789 25.9982 32.0789C25.8535 32.3687 25.8299 32.7042 25.9325 33.0114C26.0351 33.3187 26.2556 33.5726 26.5455 33.7172C26.8353 33.8619 27.1707 33.8855 27.478 33.7829C34.1833 31.5564 41.4287 31.5564 48.134 33.7829C48.4413 33.8855 48.7767 33.8619 49.0665 33.7172C49.3564 33.5726 49.5769 33.3187 49.6795 33.0114C49.7821 32.7042 49.7585 32.3687 49.6138 32.0789C49.4692 31.789 49.2153 31.5685 48.908 31.4659C48.1627 31.2166 47.41 30.9939 46.65 30.7979C48.6758 29.5289 50.4046 27.8386 51.719 25.8419C52.056 25.9069 52.39 25.9759 52.719 26.0469C53.1577 26.1422 53.5937 26.2422 54.027 26.3469C54.013 26.3999 53.999 26.4529 53.988 26.5069C53.3834 28.9515 53.423 31.5112 54.103 33.9359C54.6623 35.7635 55.7987 37.3606 57.342 38.4879C59.0961 39.7384 61.1988 40.4059 63.353 40.3959C64.708 40.4287 66.0494 40.1191 67.253 39.4959C68.6507 38.5079 69.6648 37.0678 70.124 35.4189C70.476 35.8296 70.8093 36.2502 71.124 36.6809C72.3935 38.4171 73.3704 40.3493 74.016 42.4009C74.202 42.9932 74.5272 43.5323 74.9644 43.9731C75.4017 44.4138 75.9382 44.7433 76.529 44.9339L79.966 46.0339C80.4044 46.1732 80.7869 46.4486 81.0581 46.8201C81.3293 47.1916 81.475 47.6399 81.474 48.0999V53.7999C81.475 54.2599 81.3293 54.7082 81.0581 55.0797C80.7869 55.4512 80.4044 55.7266 79.966 55.8659L74.426 57.6449C73.5336 57.9342 72.781 58.5457 72.315 59.3599C69.8847 63.3552 66.355 66.5659 62.148 68.6079C61.8897 68.7419 61.6654 68.9331 61.4921 69.1668C61.3188 69.4006 61.2011 69.6708 61.148 69.9569L59.374 79.3489C59.35 79.4743 59.2831 79.5875 59.1847 79.6689C59.0864 79.7503 58.9627 79.7948 58.835 79.7949H53.063C52.9353 79.7948 52.8116 79.7503 52.7133 79.6689C52.6149 79.5875 52.548 79.4743 52.524 79.3489L51.542 74.1589C51.4502 73.6685 51.1711 73.2332 50.7637 72.9452C50.3564 72.6571 49.8529 72.539 49.36 72.6159C46.8417 72.9941 44.2986 73.1833 41.752 73.1819C39.8808 73.1843 38.011 73.0788 36.152 72.8659C35.6688 72.8114 35.1828 72.9408 34.7907 73.2284C34.3986 73.516 34.1292 73.9407 34.036 74.4179L33.102 79.3499C33.078 79.4753 33.0111 79.5885 32.9127 79.6699C32.8144 79.7513 32.6907 79.7958 32.563 79.7959H26.8C26.6716 79.7957 26.5474 79.7506 26.4487 79.6684C26.3501 79.5862 26.2833 79.4721 26.26 79.3459L24.552 70.4759C24.498 70.1942 24.3815 69.9282 24.211 69.6974C24.0405 69.4667 23.8205 69.2772 23.567 69.1429C15.775 64.9829 11.656 58.0329 11.656 49.0429C11.5625 44.8726 12.5817 40.7526 14.609 37.1069C16.5241 33.8685 19.2626 31.1949 22.546 29.3579C22.8263 29.1957 23.0308 28.9288 23.1143 28.6159C23.1979 28.303 23.1537 27.9697 22.9915 27.6894C22.8293 27.4091 22.5624 27.2046 22.2495 27.1211C21.9366 27.0375 21.6033 27.0817 21.323 27.2439C18.1318 29.0096 15.4009 31.5014 13.351 34.5179C11.3011 37.5343 9.98979 40.9908 9.523 44.6079C9.405 44.5969 9.288 44.5869 9.171 44.5749C9.19085 43.7405 9.03869 42.9109 8.724 42.1379C8.4381 41.3247 7.9468 40.5992 7.2978 40.0318C6.6488 39.4645 5.86415 39.0746 5.02 38.8999C4.41172 38.825 3.79453 38.9171 3.23464 39.1664C2.67476 39.4157 2.19332 39.8127 1.842 40.3149C1.40578 40.7745 1.11506 41.3528 1.00636 41.9771C0.897656 42.6014 0.975806 43.2439 1.231 43.8239C1.846 45.0909 3.431 45.9879 6.051 46.5519C5.979 46.6599 5.89967 46.7682 5.813 46.8769C5.28052 47.5941 4.59443 48.1832 3.80493 48.601C3.01543 49.0189 2.14249 49.2549 1.25 49.2919C0.916777 49.3002 0.599894 49.438 0.366542 49.676C0.133189 49.914 0.00171629 50.2336 0 50.5669L0 50.5729C0.000736425 50.9023 0.128509 51.2187 0.356704 51.4562C0.584899 51.6937 0.895925 51.834 1.225 51.8479C1.313 51.8519 1.40467 51.8539 1.5 51.8539C3 51.8539 5.409 51.3009 7.723 48.3989C8.07781 47.957 8.37736 47.4734 8.615 46.9589C8.84567 46.9849 9.067 47.0076 9.279 47.0269C9.237 47.6889 9.214 48.3599 9.214 49.0439C9.12015 53.7857 10.3681 58.4575 12.814 62.5209C15.1295 66.1797 18.3664 69.1652 22.2 71.1779L23.86 79.8009C23.9897 80.4858 24.3544 81.1039 24.8911 81.5486C25.4279 81.9933 26.103 82.2367 26.8 82.2369H32.567C33.2637 82.2365 33.9385 81.9931 34.475 81.5486C35.0115 81.1041 35.3761 80.4864 35.506 79.8019L36.35 75.3429C38.1438 75.5308 39.9463 75.6243 41.75 75.6229C44.2531 75.624 46.7532 75.4499 49.232 75.1019L50.122 79.8019C50.2521 80.4863 50.6167 81.104 51.1532 81.5484C51.6897 81.9929 52.3643 82.2364 53.061 82.2369H58.83C59.5267 82.2364 60.2013 81.9929 60.7378 81.5484C61.2743 81.104 61.6389 80.4863 61.769 79.8019L63.5 70.6579C68.0249 68.4055 71.8153 64.9118 74.428 60.5849C74.5907 60.2958 74.8552 60.0776 75.17 59.9729L80.708 58.1989C81.6398 57.9024 82.4528 57.3166 83.0291 56.5267C83.6054 55.7368 83.915 54.7837 83.913 53.8059V48.1059C83.915 47.1281 83.6054 46.1751 83.0291 45.3851C82.4528 44.5952 81.6398 44.0094 80.708 43.7129ZM69.045 29.1989C68.575 33.2189 67.314 36.6569 66.045 37.3749C64.863 37.8666 63.5745 38.0463 62.3031 37.897C61.0316 37.7476 59.8199 37.2741 58.784 36.5219C56.284 34.6939 55.453 31.4069 56.378 27.0149C56.4287 26.7914 56.5309 26.5828 56.6763 26.4058C56.8218 26.2287 57.0066 26.088 57.216 25.9949C63.33 23.1949 66.855 22.2809 68.164 22.2809C68.314 22.2744 68.464 22.2944 68.607 22.3399C69 22.7589 69.519 25.1419 69.045 29.1989ZM3.429 42.7579C3.303 42.4969 3.601 42.0389 3.79 41.7889C3.87152 41.651 3.98581 41.5353 4.12274 41.4521C4.25967 41.3689 4.41501 41.3207 4.575 41.3119C4.61616 41.3121 4.65725 41.3152 4.698 41.3209C5.11004 41.445 5.48585 41.6671 5.79325 41.9682C6.10064 42.2694 6.33046 42.6405 6.463 43.0499C6.60928 43.4178 6.69571 43.8067 6.719 44.2019C5.027 43.8509 3.714 43.3459 3.429 42.7579Z" fill="#6E4270"/>
</svg>
