<svg width="102" height="87" viewBox="0 0 102 87" fill="none" xmlns="http://www.w3.org/2000/svg">
<path d="M43.4425 51.8973C37.7884 49.8401 35.0585 44.7808 33.0729 41.0897C31.8189 38.7526 30.7338 36.7409 29.4427 36.2637L27.9575 35.7234L28.5822 34.2699C31.1615 28.2535 35.9449 23.4518 41.9515 20.8497C47.9581 18.2476 54.7327 18.0421 60.8859 20.2755C61.3872 20.4579 61.8769 20.652 62.3548 20.8578L62.8567 21.0404L63.1008 21.5135C65.7364 26.6098 64.3384 30.6921 58.97 33.6161C56.7136 34.7738 54.3775 35.7693 51.9797 36.5951C48.7556 37.8234 45.7331 38.9165 44.3038 40.4019C43.975 40.6709 43.7223 41.0213 43.5708 41.4183C43.4193 41.8152 43.3743 42.2449 43.4401 42.6646C43.8802 44.1407 44.7582 45.4482 45.9579 46.4142C47.1452 47.4609 48.1792 48.6695 49.0297 50.0044L49.2177 50.0728L49.6719 51.4867L48.5847 53.0677L47.7434 52.7617C46.423 52.7415 45.116 52.4936 43.88 52.0288L43.4425 51.8973Z" fill="#CCD33D"/>
<path d="M43.3819 68.4503C37.1401 66.1796 32.0236 61.5746 29.1103 55.6057C26.1971 49.6367 25.7146 42.77 27.7647 36.4524L28.2624 34.9293L29.751 35.5188C31.3684 36.1552 32.4459 38.1641 33.8123 40.7017C35.8456 44.4751 38.3626 49.16 43.7121 51.1063L44.1408 51.2623C45.3616 51.7318 46.6619 51.9601 47.9697 51.9347C48.2898 51.8916 48.499 51.7995 48.5887 51.6639C48.6785 51.5284 48.7275 51.4579 48.5666 50.9991C48.4057 50.5404 47.7449 49.2994 45.3839 47.0321C44.2378 46.045 43.37 44.7751 42.8665 43.3487C42.6843 42.7455 42.671 42.1039 42.8281 41.4937C42.9852 40.8835 43.3066 40.328 43.7575 39.8878C45.324 38.265 48.2877 37.158 51.7295 35.8811C54.0776 35.0692 56.3659 34.0938 58.5777 32.9622C63.015 30.5318 64.4255 27.8868 63.3308 24.2867L62.1928 20.5102L65.5687 22.5389C68.8427 24.534 71.6242 27.2423 73.7061 30.4619L74.2742 31.3402L70.2224 36.7572L71.4633 39.4173L76.2155 35.2643L76.8496 37.5675C77.7671 40.866 78.0097 44.3157 77.5629 47.7102L77.4079 48.8619L76.2622 48.9975C71.8079 49.5377 71.2874 50.5735 70.3347 52.443C69.3018 54.4686 67.8632 57.3226 59.6455 60.2872C57.4211 60.9856 55.3415 62.0807 53.507 63.5197C51.9932 64.8139 50.9835 66.5999 50.6552 68.5642L50.3831 69.9938L48.975 69.8178C47.0653 69.5725 45.1892 69.1138 43.3819 68.4503Z" fill="#73DDCD"/>
<path d="M81.1109 42.8649L83.7421 39.3516L80.4144 32.7463L71.1673 40.7841L69.2471 36.6676L77.1231 26.1756L74.2987 20.5625C73.9997 20.0018 73.8815 19.3623 73.9605 18.7318C74.0396 18.1013 74.3119 17.5107 74.74 17.0412C75.42 16.3111 76.3566 15.8731 77.3528 15.8193L77.4233 15.8449C77.7992 15.8399 78.1728 15.9036 78.5257 16.0331C78.9234 16.1861 79.2857 16.4187 79.5902 16.7168C79.8947 17.0148 80.1351 17.372 80.2965 17.7663L82.7776 23.5271L95.8874 24.252L97.8059 28.37L85.7099 30.2684L88.6352 37.0551L93.0282 37.3005L94.5884 40.6453L88.8201 41.5642L87.8105 41.677L87.1334 42.3269L82.6429 46.1994L81.1109 42.8649Z" fill="white"/>
<path d="M49.8304 68.1949C50.2364 66.1374 51.3257 64.2776 52.9215 62.917C54.8517 61.4055 57.0422 60.2602 59.3848 59.5376C67.2901 56.6829 68.554 54.1336 69.616 52.0952C70.5512 50.2502 71.5138 48.9037 75.4696 48.2939L77.6591 47.9548L77.1295 50.1155C76.8914 51.139 76.5914 52.1471 76.2313 53.1343C75.0866 56.3024 73.3247 59.212 71.0477 61.6945C68.7707 64.177 66.0238 66.183 62.966 67.5965C59.3124 69.2971 55.3105 70.1161 51.2825 69.9877L49.4878 69.9266L49.8304 68.1949Z" fill="#CCD33D"/>
<path d="M95.8391 23.5008L83.3414 22.8112L81.0162 17.4116C80.7435 16.6961 80.2524 16.0846 79.6128 15.6637C78.9731 15.2428 78.2172 15.0338 77.4521 15.0664L77.3872 15.0428C76.8019 15.0673 76.2272 15.2074 75.6962 15.455C75.1653 15.7027 74.6887 16.053 74.2938 16.4858C74.0894 16.7155 73.9116 16.9675 73.7639 17.2372C73.4912 17.6163 73.3173 18.0573 73.2577 18.5204C73.198 18.9836 73.2547 19.4542 73.4224 19.89C73.4928 20.206 73.5986 20.5129 73.7377 20.8052L76.3667 26.0513L73.8459 29.4164C70.0562 23.9002 64.3203 20.0216 57.7894 18.5593C51.2586 17.097 44.4164 18.1592 38.6362 21.5326C32.8561 24.9061 28.5659 30.3411 26.627 36.7466C24.688 43.1521 25.2438 50.0539 28.1827 56.0667C31.1216 62.0794 36.2262 66.7579 42.4716 69.163C48.7171 71.568 55.6411 71.5217 61.8538 69.0332C68.0665 66.5447 73.108 61.7983 75.9661 55.7468C78.8243 49.6953 79.2876 42.7866 77.2631 36.4076L80.2607 33.8004L83.0186 39.2861L80.7904 42.2595C80.6638 42.416 80.583 42.6045 80.5569 42.8042C80.5309 43.0038 80.5606 43.2067 80.6429 43.3905C80.6429 43.3905 81.965 46.193 81.992 46.2827C82.0828 46.3937 82.1946 46.4857 82.3211 46.5535C82.4475 46.6213 82.586 46.6634 82.7288 46.6776C82.8715 46.6918 83.0156 46.6776 83.1529 46.6361C83.2902 46.5945 83.418 46.5262 83.5288 46.4352L83.5441 46.4227L88.1514 42.3606L94.131 41.4547C94.3064 41.4396 94.4756 41.3827 94.6244 41.2886C94.7732 41.1946 94.8973 41.0663 94.9862 40.9144C95.0752 40.7625 95.1264 40.5915 95.1356 40.4157C95.1447 40.2399 95.1116 40.0645 95.0389 39.9041L93.8978 37.2537C93.814 37.0744 93.683 36.9213 93.5188 36.8108C93.3546 36.7002 93.1635 36.6364 92.9659 36.6262L89.2147 36.4216L86.7838 30.7834L97.4677 29.0684C97.643 29.0534 97.8122 28.9964 97.9611 28.9024C98.1099 28.8084 98.234 28.6801 98.3229 28.5282C98.4119 28.3763 98.4631 28.2052 98.4722 28.0294C98.4814 27.8537 98.4483 27.6782 98.3756 27.5179L96.7916 24.1187C96.704 23.9389 96.569 23.7863 96.4012 23.6774C96.2334 23.5685 96.0391 23.5075 95.8391 23.5008ZM41.8633 22.4466C44.7427 21.1043 47.8587 20.3433 51.0327 20.2071C54.2067 20.0709 57.3764 20.5622 60.3602 21.653C60.8315 21.8244 61.2963 22.0095 61.7548 22.2083C64.4173 27.3623 62.0108 30.3049 58.2186 32.3665C56.0221 33.472 53.7509 34.4227 51.4218 35.2114C48.0058 36.4817 44.8216 37.6681 43.1488 39.4045C41.1653 41.4684 41.1544 43.985 44.8435 47.5285C46.6863 49.3038 47.606 50.4943 47.864 51.2364C47.8995 51.3376 47.9909 51.2825 47.9768 51.2774C47.9267 51.2634 47.8746 51.2581 47.8228 51.2618C46.611 51.2798 45.4072 51.062 44.2785 50.6205C38.8672 48.9083 36.3112 44.1198 34.3233 40.4118C32.8894 37.7528 31.7005 35.5437 29.8754 34.8637C32.2056 29.3894 36.4743 24.9678 41.8633 22.4466ZM74.8803 52.6876C73.1284 57.4922 69.9022 61.62 65.663 64.4807C61.4238 67.3413 56.3886 68.7884 51.2775 68.615C51.6175 66.863 52.5412 65.278 53.898 64.1186C55.6721 62.7272 57.6839 61.6693 59.8357 60.9961C68.3395 57.927 69.8127 55.0217 70.9469 52.785C71.6609 51.3725 72.1965 50.3188 75.6989 49.7762C75.4745 50.7567 75.19 51.7224 74.8469 52.668L74.8803 52.6876ZM76.3411 44.5589C76.3331 45.5637 76.2621 46.567 76.1284 47.563C70.8603 48.2073 70.0758 49.7463 69.007 51.8472C68.0465 53.7383 66.7951 56.2123 59.1106 58.9867C56.696 59.7453 54.4422 60.9432 52.4625 62.5202C50.6832 64.0404 49.4951 66.1378 49.106 68.4455C45.5645 68.0035 42.1644 66.7846 39.1487 64.876C36.133 62.9675 33.576 60.4164 31.6606 57.405C29.7452 54.3937 28.5185 50.9964 28.0684 47.456C27.6182 43.9156 27.9556 40.3194 29.0565 36.9245C30.1845 37.3349 31.1499 39.1987 32.36 41.44C34.5457 45.5084 37.345 50.7047 43.5949 52.7306C45.0396 53.2842 46.5826 53.5351 48.1283 53.4678C48.4532 53.4459 48.7695 53.3539 49.0555 53.1981C49.3415 53.0423 49.5904 52.8265 49.785 52.5654C49.9778 52.2668 50.0936 51.9251 50.122 51.5708C50.1504 51.2165 50.0905 50.8607 49.9478 50.5352C49.5791 49.4803 48.4725 47.9898 46.3775 45.9631C43.8682 43.5535 43.6868 42.0303 44.7515 40.9296C46.06 39.5333 49.0197 38.4813 52.2089 37.2403C54.6463 36.4035 57.0216 35.3957 59.3171 34.2244C63.4955 31.935 66.363 28.7844 64.8064 23.7124C67.8964 25.6097 70.5178 28.1805 72.4751 31.2328L68.898 36.006C68.7737 36.165 68.6956 36.355 68.672 36.5554C68.6485 36.7558 68.6805 36.9588 68.7646 37.1422C68.7646 37.1422 70.4451 40.7149 70.5163 40.7972C70.6997 41.0208 70.9643 41.1625 71.252 41.1911C71.5398 41.2198 71.8271 41.1331 72.051 40.95L72.0662 40.9375L75.4755 37.968C76.0658 40.1157 76.3568 42.3345 76.3401 44.5617L76.3411 44.5589ZM85.0419 28.8362C84.899 28.8552 84.7613 28.9024 84.6368 28.975C84.5123 29.0476 84.4034 29.1442 84.3164 29.2591C84.2295 29.3741 84.1661 29.5052 84.1302 29.6447C84.0942 29.7843 84.0862 29.9297 84.1068 30.0723C84.1081 30.0835 84.1103 30.0949 84.1125 30.1064C84.1264 30.1998 87.4441 37.918 87.4441 37.918C87.525 38.1046 87.6564 38.265 87.8236 38.3809C87.9907 38.4968 88.187 38.5637 88.3901 38.574L92.1804 38.7822L92.5177 39.5052L88.6965 40.1076L87.6202 40.228C87.3791 40.253 87.1533 40.3583 86.9792 40.527L86.1929 41.2808L83.2759 43.8216L82.965 43.0698L85.2208 40.0586C85.3497 39.8859 85.4246 39.6789 85.4361 39.4637C85.4475 39.2485 85.3949 39.0347 85.2851 38.8494L81.617 31.5764C81.4947 31.3144 81.2734 31.1118 81.0018 31.013C80.7302 30.9142 80.4304 30.9272 80.1685 31.0493C80.0696 31.1017 71.7619 38.3157 71.7619 38.3157L71.0602 36.8214L78.5824 26.7926C78.7132 26.6195 78.7894 26.4114 78.8013 26.1948C78.8132 25.9782 78.7601 25.763 78.6491 25.5767L75.687 19.8156C75.5221 19.5263 75.4539 19.1921 75.492 18.8614C75.5302 18.5307 75.6729 18.2209 75.8993 17.9768C76.3117 17.5452 76.8724 17.2859 77.4683 17.2512L77.504 17.2642C77.8296 17.2579 78.149 17.3533 78.4177 17.5371C78.6865 17.7209 78.8912 17.984 79.0033 18.2897L81.6177 24.313C81.6973 24.5006 81.8279 24.6622 81.9947 24.7794C82.1615 24.8965 82.3578 24.9645 82.5613 24.9756L95.1117 25.6758L95.8084 27.1693L85.0419 28.8362Z" fill="#282868"/>
<path fill-rule="evenodd" clip-rule="evenodd" d="M30.678 73.3971V43.7861C30.6761 43.2676 30.4694 42.7709 30.1027 42.4043C29.7361 42.0377 29.2394 41.8309 28.721 41.8291H3.13498C2.61652 41.8309 2.11982 42.0377 1.75321 42.4043C1.3866 42.7709 1.17982 43.2676 1.17798 43.7861V73.3971H30.678ZM22.131 51.9301H9.72498C9.1084 51.9174 8.52136 51.6635 8.0898 51.223C7.65823 50.7824 7.41652 50.1903 7.41652 49.5736C7.41652 48.9569 7.65823 48.3647 8.0898 47.9242C8.52136 47.4836 9.1084 47.2298 9.72498 47.2171H22.13C22.7466 47.2298 23.3336 47.4836 23.7652 47.9242C24.1967 48.3647 24.4384 48.9569 24.4384 49.5736C24.4384 50.1903 24.1967 50.7824 23.7652 51.223C23.3336 51.6635 22.7466 51.9174 22.13 51.9301H22.131Z" fill="#A0C8FF"/>
<path fill-rule="evenodd" clip-rule="evenodd" d="M24.486 49.5748C24.4847 48.9503 24.2362 48.3518 23.795 47.91C23.3537 47.4681 22.7555 47.2189 22.131 47.2168H9.72601C9.10102 47.2168 8.50164 47.4651 8.05971 47.907C7.61778 48.3489 7.36951 48.9483 7.36951 49.5733C7.36951 50.1983 7.61778 50.7977 8.05971 51.2396C8.50164 51.6815 9.10102 51.9298 9.72601 51.9298H22.131C22.7551 51.9282 23.3532 51.6796 23.7945 51.2383C24.2358 50.797 24.4844 50.1989 24.486 49.5748Z" fill="#FFD077"/>
<path fill-rule="evenodd" clip-rule="evenodd" d="M53.174 85.6322V58.7402H30.674V77.5403C30.6729 78.0593 30.4665 78.5569 30.0999 78.9243C29.7332 79.2917 29.236 79.4991 28.717 79.5013H27.261V82.9413C27.261 83.6573 26.9765 84.3441 26.4702 84.8504C25.9638 85.3568 25.2771 85.6412 24.561 85.6412H53.161L53.174 85.6322ZM40.574 63.5032L46.412 66.1523L44.418 70.5443L38.583 67.8952L40.574 63.5032ZM39.706 75.2343C40.2511 75.2346 40.7838 75.3966 41.2369 75.6997C41.69 76.0028 42.0431 76.4334 42.2515 76.9371C42.4599 77.4408 42.5143 77.995 42.4079 78.5296C42.3015 79.0642 42.0389 79.5553 41.6535 79.9407C41.268 80.3262 40.7769 80.5887 40.2423 80.6952C39.7077 80.8016 39.1535 80.7472 38.6498 80.5388C38.1461 80.3303 37.7155 79.9773 37.4124 79.5242C37.1094 79.0711 36.9474 78.5384 36.947 77.9933C36.9467 77.6311 37.0178 77.2725 37.1562 76.9378C37.2945 76.6031 37.4975 76.299 37.7534 76.0428C38.0093 75.7866 38.3132 75.5833 38.6478 75.4446C38.9823 75.3058 39.3408 75.2344 39.703 75.2343H39.706Z" fill="#FFCD69"/>
<path fill-rule="evenodd" clip-rule="evenodd" d="M30.678 77.536V73.397H1.17798V77.536C1.17903 78.0551 1.38542 78.5526 1.75209 78.92C2.11876 79.2875 2.61591 79.4949 3.13498 79.497H28.72C29.2392 79.4951 29.7366 79.2878 30.1035 78.9204C30.4704 78.5529 30.6769 78.0552 30.678 77.536Z" fill="#DFEDFF"/>
<path fill-rule="evenodd" clip-rule="evenodd" d="M27.265 82.9361V79.4961H21.877V82.9361C21.877 83.6506 22.1609 84.3358 22.6661 84.8411C23.1713 85.3463 23.8565 85.6301 24.571 85.6301C25.2855 85.6301 25.9707 85.3463 26.476 84.8411C26.9812 84.3358 27.265 83.6506 27.265 82.9361Z" fill="#89A7BC"/>
<path fill-rule="evenodd" clip-rule="evenodd" d="M9.97998 82.9361V79.4961H4.59198V82.9361C4.59198 83.2899 4.66166 83.6402 4.79705 83.9671C4.93243 84.2939 5.13087 84.5909 5.38103 84.8411C5.6312 85.0912 5.92818 85.2897 6.25503 85.425C6.58188 85.5604 6.9322 85.6301 7.28598 85.6301C7.63976 85.6301 7.99008 85.5604 8.31693 85.425C8.64378 85.2897 8.94076 85.0912 9.19093 84.8411C9.44109 84.5909 9.63952 84.2939 9.77491 83.9671C9.9103 83.6402 9.97998 83.2899 9.97998 82.9361Z" fill="#89A7BC"/>
<path fill-rule="evenodd" clip-rule="evenodd" d="M58.562 82.5592V61.8132C58.5599 60.9994 58.2359 60.2195 57.6607 59.6437C57.0855 59.068 56.3058 58.7431 55.492 58.7402H53.174V85.6322H55.492C56.3058 85.6293 57.0855 85.3045 57.6607 84.7288C58.2359 84.153 58.5599 83.3731 58.562 82.5592Z" fill="#FFE6B4"/>
<path fill-rule="evenodd" clip-rule="evenodd" d="M46.41 66.1519L40.572 63.5029L38.581 67.8949L44.416 70.5439L46.41 66.1519Z" fill="#DFEDFF"/>
<path fill-rule="evenodd" clip-rule="evenodd" d="M42.459 77.9929C42.4592 77.4475 42.2977 76.9143 41.9948 76.4608C41.6919 76.0073 41.2613 75.6537 40.7575 75.4449C40.2537 75.2361 39.6993 75.1814 39.1644 75.2878C38.6295 75.3941 38.1381 75.6567 37.7525 76.0424C37.3669 76.428 37.1043 76.9193 36.9979 77.4542C36.8916 77.9891 36.9463 78.5436 37.1551 79.0474C37.3639 79.5512 37.7174 79.9818 38.1709 80.2846C38.6244 80.5875 39.1576 80.749 39.703 80.7488C40.4339 80.7486 41.1347 80.4581 41.6515 79.9414C42.1683 79.4246 42.4587 78.7237 42.459 77.9929Z" fill="#D5EA7A"/>
<path d="M55.492 57.562H50.938V54.378C50.9372 53.5182 50.5953 52.6938 49.9873 52.0858C49.3793 51.4777 48.5549 51.1358 47.695 51.135H31.856V43.786C31.8552 42.9546 31.5246 42.1574 30.9366 41.5694C30.3487 40.9815 29.5515 40.6508 28.72 40.65H25.236V30.836C25.2347 29.6806 24.7751 28.5729 23.9581 27.7559C23.1411 26.9389 22.0334 26.4794 20.878 26.478H10.978C9.82259 26.4794 8.71489 26.9389 7.89789 27.7559C7.08089 28.5729 6.62132 29.6806 6.62 30.836V40.65H3.136C2.30452 40.6508 1.50733 40.9815 0.919391 41.5694C0.331449 42.1574 0.000794438 42.9546 1.60686e-07 43.786V55.557C1.60686e-07 55.8696 0.124163 56.1693 0.345175 56.3904C0.566186 56.6114 0.865942 56.7355 1.1785 56.7355C1.49106 56.7355 1.79081 56.6114 2.01183 56.3904C2.23284 56.1693 2.357 55.8696 2.357 55.557V43.786C2.35959 43.5802 2.4425 43.3836 2.58803 43.2381C2.73356 43.0925 2.9302 43.0096 3.136 43.007H28.721C28.9268 43.0096 29.1234 43.0925 29.269 43.2381C29.4145 43.3836 29.4974 43.5802 29.5 43.786V72.219H2.357V66.142C2.357 65.8295 2.23284 65.5297 2.01183 65.3087C1.79081 65.0877 1.49106 64.9635 1.1785 64.9635C0.865942 64.9635 0.566186 65.0877 0.345175 65.3087C0.124163 65.5297 1.60686e-07 65.8295 1.60686e-07 66.142V77.536C-0.00026589 78.3684 0.329856 79.1668 0.917856 79.7559C1.50586 80.3451 2.30365 80.6767 3.136 80.678H3.414V82.94C3.414 83.9669 3.82194 84.9518 4.54808 85.6779C5.27422 86.4041 6.25908 86.812 7.286 86.812C8.31292 86.812 9.29778 86.4041 10.0239 85.6779C10.7501 84.9518 11.158 83.9669 11.158 82.94V80.678H20.699V82.94C20.6998 83.9667 21.1078 84.9512 21.8335 85.6774C22.5592 86.4037 23.5433 86.8124 24.57 86.814H55.492C56.6187 86.8124 57.6987 86.364 58.4951 85.567C59.2915 84.77 59.7392 83.6897 59.74 82.563V61.813C59.7389 60.6864 59.2911 59.6062 58.4948 58.8093C57.6985 58.0124 56.6186 57.5639 55.492 57.562ZM22.884 40.65H8.984V30.836C8.984 30.3056 9.19471 29.7969 9.56979 29.4218C9.94486 29.0467 10.4536 28.836 10.984 28.836H20.884C21.4144 28.836 21.9231 29.0467 22.2982 29.4218C22.6733 29.7969 22.884 30.3056 22.884 30.836V40.65ZM31.861 53.492H47.701C47.9359 53.4923 48.1611 53.5857 48.3272 53.7518C48.4933 53.9179 48.5867 54.1431 48.587 54.378V57.562H31.856L31.861 53.492ZM8.801 82.937C8.801 83.339 8.64133 83.7244 8.35712 84.0086C8.07291 84.2929 7.68744 84.4525 7.2855 84.4525C6.88356 84.4525 6.49809 84.2929 6.21388 84.0086C5.92967 83.7244 5.77 83.339 5.77 82.937V80.678H8.801V82.937ZM3.136 78.318C2.92985 78.3149 2.73306 78.2314 2.58755 78.0854C2.44205 77.9393 2.35932 77.7422 2.357 77.536V74.578H29.5V77.538C29.4977 77.7442 29.415 77.9413 29.2694 78.0874C29.1239 78.2334 28.9271 78.3169 28.721 78.32L3.136 78.318ZM26.084 82.937C26.084 83.339 25.9243 83.7244 25.6401 84.0086C25.3559 84.2929 24.9704 84.4525 24.5685 84.4525C24.1666 84.4525 23.7811 84.2929 23.4969 84.0086C23.2127 83.7244 23.053 83.339 23.053 82.937V80.678H26.084V82.937ZM51.993 84.454H28.133C28.3379 83.9745 28.4434 83.4585 28.443 82.937V80.678H28.721C29.5528 80.6767 30.3502 80.3455 30.9381 79.757C31.526 79.1685 31.8565 78.3709 31.857 77.539V59.919H51.995V84.454H51.993ZM57.384 82.559C57.3827 83.0605 57.1832 83.5411 56.8289 83.8961C56.4747 84.2511 55.9945 84.4517 55.493 84.454H54.353V59.919H55.493C55.9943 59.9214 56.4744 60.1218 56.8286 60.4766C57.1828 60.8313 57.3824 61.3117 57.384 61.813V82.559Z" fill="#282868"/>
<path d="M8.55002 55.4639C8.23746 55.4639 7.9377 55.588 7.71669 55.8091C7.49568 56.0301 7.37152 56.3298 7.37152 56.6424C7.37152 56.9549 7.49568 57.2547 7.71669 57.4757C7.9377 57.6967 8.23746 57.8209 8.55002 57.8209H23.31C23.6226 57.8209 23.9223 57.6967 24.1433 57.4757C24.3644 57.2547 24.4885 56.9549 24.4885 56.6424C24.4885 56.3298 24.3644 56.0301 24.1433 55.8091C23.9223 55.588 23.6226 55.4639 23.31 55.4639H8.55002Z" fill="#282868"/>
<path d="M25.664 49.5751C25.6635 48.6379 25.2912 47.7391 24.6289 47.076C23.9665 46.413 23.0682 46.0397 22.131 46.0381H9.725C8.78746 46.0381 7.88832 46.4105 7.22538 47.0735C6.56244 47.7364 6.19 48.6355 6.19 49.5731C6.19 50.5106 6.56244 51.4098 7.22538 52.0727C7.88832 52.7356 8.78746 53.1081 9.725 53.1081H22.131C23.0677 53.107 23.9657 52.7345 24.628 52.0721C25.2904 51.4098 25.6629 50.5118 25.664 49.5751ZM22.131 50.7511H9.725C9.41258 50.7511 9.11295 50.627 8.89203 50.4061C8.67111 50.1851 8.547 49.8855 8.547 49.5731C8.547 49.2607 8.67111 48.961 8.89203 48.7401C9.11295 48.5192 9.41258 48.3951 9.725 48.3951H22.131C22.4434 48.3951 22.7431 48.5192 22.964 48.7401C23.1849 48.961 23.309 49.2607 23.309 49.5731C23.309 49.8855 23.1849 50.1851 22.964 50.4061C22.7431 50.627 22.4434 50.7511 22.131 50.7511Z" fill="#282868"/>
<path d="M38.093 68.9692L43.928 71.6182C44.0689 71.6822 44.221 71.7178 44.3757 71.723C44.5304 71.7281 44.6846 71.7028 44.8295 71.6484C44.9743 71.594 45.107 71.5115 45.22 71.4058C45.333 71.3001 45.4241 71.1731 45.488 71.0322L47.48 66.6392C47.544 66.4983 47.5796 66.3461 47.5848 66.1915C47.59 66.0368 47.5647 65.8826 47.5102 65.7378C47.4558 65.5929 47.3734 65.4601 47.2677 65.3471C47.1619 65.2341 47.035 65.1431 46.894 65.0792L41.055 62.4302C40.7703 62.3013 40.446 62.2906 40.1535 62.4007C39.861 62.5108 39.6242 62.7325 39.495 63.0171L37.504 67.4091C37.4402 67.5502 37.4049 67.7026 37.4 67.8573C37.3951 68.0121 37.4207 68.1663 37.4754 68.3112C37.5301 68.456 37.6128 68.5887 37.7188 68.7016C37.8247 68.8145 37.9519 68.9054 38.093 68.9692ZM41.157 65.0642L44.849 66.7392L43.829 68.9852L40.139 67.3101L41.157 65.0642Z" fill="#282868"/>
<path d="M39.703 81.9272C40.4815 81.927 41.2425 81.6959 41.8896 81.2632C42.5368 80.8305 43.0412 80.2156 43.3389 79.4963C43.6366 78.7769 43.7143 77.9854 43.5621 77.2219C43.41 76.4585 43.0348 75.7572 42.4841 75.2069C41.9334 74.6567 41.2319 74.2821 40.4683 74.1305C39.7046 73.9789 38.9132 74.0572 38.1941 74.3555C37.475 74.6537 36.8605 75.1585 36.4283 75.806C35.9961 76.4535 35.7656 77.2147 35.766 77.9932C35.7673 79.0367 36.1826 80.037 36.9207 80.7745C37.6589 81.5121 38.6595 81.9267 39.703 81.9272ZM39.703 76.4122C40.0151 76.4126 40.3201 76.5054 40.5795 76.6791C40.8388 76.8528 41.0409 77.0994 41.1602 77.3878C41.2794 77.6763 41.3105 77.9936 41.2495 78.2997C41.1886 78.6058 41.0382 78.887 40.8175 79.1077C40.5968 79.3284 40.3156 79.4787 40.0095 79.5397C39.7034 79.6007 39.3861 79.5696 39.0977 79.4504C38.8092 79.3311 38.5626 79.129 38.3889 78.8697C38.2153 78.6103 38.1224 78.3053 38.122 77.9932C38.1222 77.5741 38.289 77.1722 38.5854 76.8759C38.8819 76.5796 39.2838 76.4132 39.703 76.4132V76.4122Z" fill="#282868"/>
<path d="M1.178 62.0299C1.41138 62.0303 1.63964 61.9615 1.83391 61.8322C2.02818 61.7028 2.17973 61.5188 2.26941 61.3033C2.35909 61.0879 2.38286 60.8507 2.33771 60.6217C2.29257 60.3927 2.18054 60.1823 2.0158 60.017C1.85105 59.8517 1.64099 59.7389 1.41217 59.693C1.18335 59.6471 0.946049 59.67 0.730281 59.759C0.514513 59.8479 0.329966 59.9989 0.199977 60.1927C0.0699885 60.3865 0.000395897 60.6145 0 60.8479V60.8549C-5.03753e-07 61.0095 0.0304909 61.1625 0.0897276 61.3053C0.148964 61.448 0.235783 61.5777 0.34521 61.6868C0.454636 61.796 0.584522 61.8825 0.727426 61.9414C0.87033 62.0002 1.02344 62.0303 1.178 62.0299Z" fill="#282868"/>
</svg>
