<svg width="14" height="14" viewBox="0 0 14 14" fill="none" xmlns="http://www.w3.org/2000/svg">
<path d="M5.87402 12.8731V8.12506H1.12695C0.828054 8.12506 0.541432 8.00634 0.330078 7.79498C0.118725 7.58363 0 7.29701 0 6.99811C0 6.69921 0.118725 6.41259 0.330078 6.20123C0.541432 5.98988 0.828054 5.87115 1.12695 5.87115H5.87402V1.12897C5.87402 0.830201 5.99284 0.543352 6.2041 0.332092C6.41536 0.120833 6.70221 0.00201416 7.00098 0.00201416C7.29974 0.00201416 7.58562 0.120833 7.79688 0.332092C8.00813 0.543352 8.12695 0.830201 8.12695 1.12897V5.87115H12.8701C13.169 5.87115 13.4556 5.98988 13.667 6.20123C13.8783 6.41259 13.9971 6.69921 13.9971 6.99811C13.9971 7.29701 13.8783 7.58363 13.667 7.79498C13.4556 8.00634 13.169 8.12506 12.8701 8.12506H8.12695V12.8731C8.12695 13.1719 8.00813 13.4587 7.79688 13.67C7.58562 13.8812 7.29974 14.0001 7.00098 14.0001C6.70221 14.0001 6.41536 13.8812 6.2041 13.67C5.99284 13.4587 5.87402 13.1719 5.87402 12.8731Z" fill="white"/>
</svg>
