<svg width="21" height="23" viewBox="0 0 21 23" fill="none" xmlns="http://www.w3.org/2000/svg">
<path d="M0.822037 22.032C0.606946 22.032 0.400666 21.9466 0.248574 21.7945C0.0964816 21.6424 0.0110362 21.4361 0.0110362 21.221C0.0110362 21.197 0.00103624 19.91 0.0110362 19.572C0.0410362 15.848 5.33704 11.572 9.38404 11.572H10.6C11.4276 11.5712 12.2495 11.7098 13.031 11.982C13.2346 12.0524 13.4018 12.2008 13.496 12.3945C13.5901 12.5883 13.6035 12.8115 13.533 13.015C13.4626 13.2186 13.3142 13.3858 13.1205 13.4799C12.9268 13.5741 12.7036 13.5874 12.5 13.517C11.8892 13.3046 11.2468 13.1967 10.6 13.198H9.38304C6.42904 13.198 1.98304 16.433 1.63304 19.607C1.63304 19.516 1.63304 20.998 1.63304 21.22C1.63317 21.3266 1.61229 21.4322 1.57159 21.5307C1.53089 21.6292 1.47117 21.7187 1.39585 21.7941C1.32053 21.8695 1.23108 21.9294 1.13262 21.9702C1.03416 22.011 0.928623 22.032 0.822037 22.032ZM15.387 5.476C15.387 4.39295 15.0659 3.33422 14.4642 2.4337C13.8625 1.53318 13.0072 0.831304 12.0066 0.416838C11.006 0.00237265 9.90496 -0.10607 8.84272 0.105222C7.78048 0.316515 6.80475 0.838053 6.03892 1.60389C5.27309 2.36972 4.75155 3.34545 4.54026 4.40769C4.32896 5.46993 4.43741 6.57097 4.85187 7.57158C5.26634 8.57219 5.96821 9.42742 6.86873 10.0291C7.76926 10.6308 8.82798 10.952 9.91104 10.952C11.3628 10.9502 12.7546 10.3726 13.7811 9.34607C14.8077 8.31953 15.3852 6.92776 15.387 5.476ZM13.764 5.476C13.7642 6.23829 13.5384 6.98352 13.115 7.61744C12.6916 8.25136 12.0898 8.74549 11.3856 9.03735C10.6814 9.3292 9.90644 9.40567 9.15877 9.25707C8.4111 9.10848 7.72429 8.7415 7.1852 8.20255C6.64611 7.66359 6.27895 6.97688 6.13016 6.22925C5.98138 5.48162 6.05764 4.70666 6.34931 4.00237C6.64098 3.29809 7.13496 2.69612 7.76877 2.27259C8.40258 1.84906 9.14774 1.623 9.91004 1.623C10.9317 1.62406 11.9112 2.03031 12.6337 2.75263C13.3562 3.47495 13.7627 4.45436 13.764 5.476ZM19.564 16.901H17.131V14.468C17.131 14.2528 17.0455 14.0464 16.8934 13.8942C16.7412 13.742 16.5348 13.6565 16.3195 13.6565C16.1043 13.6565 15.8979 13.742 15.7457 13.8942C15.5935 14.0464 15.508 14.2528 15.508 14.468V16.9H13.074C12.8588 16.9 12.6524 16.9855 12.5002 17.1377C12.348 17.2899 12.2625 17.4963 12.2625 17.7115C12.2625 17.9267 12.348 18.1331 12.5002 18.2853C12.6524 18.4375 12.8588 18.523 13.074 18.523H15.508V20.957C15.508 21.1722 15.5935 21.3786 15.7457 21.5308C15.8979 21.683 16.1043 21.7685 16.3195 21.7685C16.5348 21.7685 16.7412 21.683 16.8934 21.5308C17.0455 21.3786 17.131 21.1722 17.131 20.957V18.524H19.565C19.7803 18.524 19.9867 18.4385 20.1389 18.2863C20.291 18.1341 20.3765 17.9277 20.3765 17.7125C20.3765 17.4973 20.291 17.2909 20.1389 17.1387C19.9867 16.9865 19.7803 16.901 19.565 16.901H19.564Z" fill="#ECD9FF"/>
</svg>
