<svg width="23" height="22" viewBox="0 0 23 22" fill="none" xmlns="http://www.w3.org/2000/svg">
<path d="M7.66191 21.9841C7.5616 21.9601 7.46914 21.9108 7.39347 21.8407C7.3178 21.7706 7.26147 21.6822 7.22991 21.5841L5.77691 17.2221L1.41291 15.7701C1.31451 15.7384 1.22595 15.6819 1.15582 15.606C1.08569 15.53 1.03636 15.4373 1.01262 15.3367C0.988883 15.2361 0.991532 15.1311 1.02031 15.0318C1.0491 14.9325 1.10304 14.8424 1.17691 14.7701L3.22591 12.7211C3.3312 12.616 3.47143 12.5534 3.61991 12.5451L6.47191 12.4001L10.7069 8.16207L2.81991 4.48807C2.73174 4.44753 2.65472 4.38621 2.59546 4.30937C2.53619 4.23253 2.49645 4.14246 2.47963 4.04689C2.46282 3.95132 2.46944 3.85309 2.49892 3.76064C2.5284 3.66819 2.57987 3.58427 2.64891 3.51607L4.34891 1.81607C4.42335 1.7414 4.51616 1.68766 4.61798 1.66027C4.71981 1.63289 4.82705 1.63282 4.92891 1.66007L14.6489 4.22207L16.9669 1.90307C17.676 1.19966 18.5364 0.667521 19.4825 0.347252C20.4286 0.026983 21.4353 -0.0729525 22.4259 0.0550705C22.5573 0.0720852 22.6794 0.132133 22.7731 0.225841C22.8668 0.319549 22.9269 0.441644 22.9439 0.573071C23.0722 1.56499 22.972 2.57312 22.6508 3.52034C22.3296 4.46755 21.7961 5.32876 21.0909 6.03807L18.7729 8.35607L20.3999 14.5431L21.3309 18.0761C21.3578 18.1779 21.3575 18.285 21.33 18.3866C21.3024 18.4882 21.2486 18.5808 21.1739 18.6551L19.4739 20.3551C19.4056 20.4241 19.3217 20.4755 19.2292 20.5049C19.1367 20.5343 19.0384 20.5408 18.9428 20.5239C18.8472 20.507 18.7572 20.4672 18.6804 20.4078C18.6036 20.3484 18.5423 20.2713 18.5019 20.1831L14.8289 12.2951L10.5999 16.5271L10.4519 19.3801C10.4436 19.5285 10.3809 19.6688 10.2759 19.7741L8.22691 21.8231C8.17097 21.8793 8.10443 21.924 8.03114 21.9543C7.95784 21.9847 7.87925 22.0003 7.79991 22.0001C7.75344 22.0002 7.70712 21.9948 7.66191 21.9841ZM4.10791 3.76007L11.9999 7.43307C12.0881 7.47351 12.1653 7.53475 12.2246 7.61155C12.284 7.68834 12.3238 7.77839 12.3408 7.87397C12.3577 7.96955 12.3511 8.06781 12.3217 8.16032C12.2923 8.25282 12.2409 8.33681 12.1719 8.40507L7.23891 13.3331C7.18653 13.4075 7.11789 13.4691 7.03819 13.5131C6.9585 13.5571 6.86983 13.5824 6.77891 13.5871L3.91391 13.7391L2.71391 14.9391L6.43991 16.1781C6.52901 16.2074 6.60999 16.2573 6.67633 16.3236C6.74268 16.39 6.79254 16.471 6.82191 16.5601L8.06091 20.2871L9.26091 19.0871L9.41291 16.2221C9.41742 16.131 9.44265 16.0421 9.48666 15.9622C9.53067 15.8823 9.59232 15.8136 9.66691 15.7611L14.5949 10.8331C14.6631 10.764 14.747 10.7126 14.8395 10.6831C14.9319 10.6536 15.0302 10.647 15.1257 10.6638C15.2213 10.6806 15.3114 10.7204 15.3882 10.7796C15.4651 10.8389 15.5264 10.9159 15.5669 11.0041L19.2399 18.8921L20.0819 18.0501L17.5199 8.32907C17.4928 8.22713 17.493 8.11983 17.5206 8.018C17.5481 7.91617 17.6021 7.82341 17.6769 7.74907L20.2389 5.18707C20.7567 4.66598 21.1617 4.04389 21.4287 3.35952C21.6957 2.67515 21.819 1.94315 21.7909 1.20907C21.0569 1.18047 20.3248 1.30343 19.6404 1.57028C18.956 1.83713 18.3339 2.24215 17.8129 2.76007L15.2499 5.32307C15.1756 5.39757 15.0829 5.45121 14.9813 5.47859C14.8797 5.50597 14.7726 5.50614 14.6709 5.47907L4.95191 2.91707L4.10791 3.76007Z" fill="#ECD9FF"/>
</svg>
