<svg width="15" height="8" viewBox="0 0 15 8" fill="none" xmlns="http://www.w3.org/2000/svg">
<path d="M6.79695 7.50498L1.13995 1.84898C0.952483 1.66145 0.847168 1.40715 0.847168 1.14198C0.847168 0.876817 0.952483 0.622509 1.13995 0.434981L1.28195 0.292982C1.46948 0.10551 1.72379 0.000195027 1.98895 0.000195027C2.25412 0.000195027 2.50843 0.10551 2.69595 0.292982L7.50395 5.09998L12.312 0.292982C12.4048 0.200005 12.5151 0.126246 12.6365 0.0759218C12.7579 0.0255975 12.888 -0.000305176 13.0195 -0.000305176C13.1509 -0.000305176 13.281 0.0255975 13.4024 0.0759218C13.5238 0.126246 13.6341 0.200005 13.727 0.292982L13.868 0.434981C14.0554 0.622509 14.1607 0.876817 14.1607 1.14198C14.1607 1.40715 14.0554 1.66145 13.868 1.84898L8.35295 7.36398L8.21195 7.50498C8.11908 7.59796 8.00879 7.67172 7.88739 7.72204C7.766 7.77237 7.63587 7.79827 7.50445 7.79827C7.37304 7.79827 7.24291 7.77237 7.12151 7.72204C7.00012 7.67172 6.88983 7.59796 6.79695 7.50498Z" fill="#5E00B9"/>
</svg>
