<svg width="8" height="14" viewBox="0 0 8 14" fill="none" xmlns="http://www.w3.org/2000/svg">
<path d="M0.29403 6.19197L5.95003 0.534974C6.13756 0.347503 6.39187 0.242188 6.65703 0.242188C6.92219 0.242188 7.1765 0.347503 7.36403 0.534974L7.50603 0.676974C7.6935 0.864502 7.79882 1.11881 7.79882 1.38397C7.79882 1.64914 7.6935 1.90345 7.50603 2.09097L2.69903 6.89897L7.50603 11.707C7.59901 11.7998 7.67277 11.9101 7.72309 12.0315C7.77341 12.1529 7.79932 12.2831 7.79932 12.4145C7.79932 12.5459 7.77341 12.676 7.72309 12.7974C7.67277 12.9188 7.59901 13.0291 7.50603 13.122L7.36403 13.263C7.1765 13.4504 6.92219 13.5558 6.65703 13.5558C6.39187 13.5558 6.13756 13.4504 5.95003 13.263L0.43503 7.74797L0.29403 7.60697C0.201053 7.5141 0.127295 7.40381 0.0769701 7.28241C0.0266457 7.16102 0.000743389 7.03089 0.000743389 6.89947C0.000743389 6.76806 0.0266457 6.63793 0.0769701 6.51653C0.127295 6.39514 0.201053 6.28485 0.29403 6.19197Z" fill="#5E00B9"/>
</svg>
