<svg width="8" height="14" viewBox="0 0 8 14" fill="none" xmlns="http://www.w3.org/2000/svg">
<path d="M7.50602 7.60698L1.85002 13.264C1.66249 13.4514 1.40818 13.5568 1.14302 13.5568C0.877855 13.5568 0.623547 13.4514 0.436019 13.264L0.294019 13.122C0.106548 12.9344 0.00123262 12.6801 0.00123262 12.415C0.00123262 12.1498 0.106548 11.8955 0.294019 11.708L5.10102 6.89998L0.294019 2.09198C0.201043 1.9991 0.127284 1.88881 0.0769594 1.76742C0.0266351 1.64602 0.000732422 1.51589 0.000732422 1.38448C0.000732422 1.25306 0.0266351 1.12293 0.0769594 1.00154C0.127284 0.880138 0.201043 0.769849 0.294019 0.676976L0.436019 0.535976C0.623547 0.348505 0.877855 0.24319 1.14302 0.24319C1.40818 0.24319 1.66249 0.348505 1.85002 0.535976L7.36502 6.05098L7.50602 6.19198C7.599 6.28485 7.67275 6.39514 7.72308 6.51654C7.7734 6.63793 7.79931 6.76806 7.79931 6.89948C7.79931 7.03089 7.7734 7.16102 7.72308 7.28242C7.67275 7.40381 7.599 7.5141 7.50602 7.60698Z" fill="#5E00B9"/>
</svg>
