<svg width="21" height="27" viewBox="0 0 21 27" fill="none" xmlns="http://www.w3.org/2000/svg">
<path d="M8.033 26.9999C7.80297 26.9996 7.58253 26.908 7.41997 26.7452C7.2574 26.5825 7.16606 26.362 7.16606 26.132C7.16606 25.9019 7.2574 25.6812 7.41997 25.5184C7.58253 25.3557 7.80297 25.2641 8.033 25.2638H12.9781C13.092 25.2638 13.2049 25.2863 13.3101 25.33C13.4154 25.3736 13.5108 25.4376 13.5914 25.5182C13.6719 25.5988 13.7358 25.6944 13.7793 25.7997C13.8229 25.905 13.8451 26.018 13.845 26.132C13.8451 26.2459 13.8229 26.3587 13.7793 26.464C13.7358 26.5693 13.6719 26.6649 13.5914 26.7455C13.5108 26.8261 13.4154 26.8901 13.3101 26.9337C13.2049 26.9773 13.092 26.9999 12.9781 26.9999H8.033ZM0.868942 23.6888C0.713817 23.6897 0.561447 23.6491 0.427292 23.5712C0.293137 23.4933 0.182137 23.3811 0.106003 23.246C0.0311786 23.1121 -0.00542052 22.9602 4.54707e-05 22.807C0.00551146 22.6538 0.0528389 22.505 0.137008 22.3768L0.429001 22.0829L0.868942 21.9479H1.74516L1.72099 11.5209C1.73142 9.56814 2.39758 7.67559 3.61259 6.14685C4.82761 4.61811 6.52096 3.5419 8.42094 3.09094C8.44881 2.52361 8.69516 1.98893 9.1082 1.599C9.52124 1.20907 10.069 0.994087 10.637 0.998902C11.2176 0.992762 11.777 1.21701 12.1924 1.62268C12.6078 2.02835 12.8454 2.58238 12.8531 3.16296C14.6903 3.6623 16.3132 4.7499 17.4734 6.2594C18.6336 7.7689 19.2673 9.61704 19.2771 11.5209V21.9479H20.2081L20.638 22.0829L20.8589 22.3829C20.9433 22.5108 20.9909 22.6595 20.9964 22.8126C21.0019 22.9657 20.965 23.1173 20.8899 23.2509C20.8138 23.3858 20.7031 23.4979 20.5691 23.5758C20.4352 23.6537 20.2829 23.6946 20.128 23.694L0.868942 23.6888ZM3.45903 11.5219V18.87C3.45903 18.898 3.45903 18.9368 3.45903 18.9928C3.46403 19.2558 3.48203 19.9529 3.45903 21.9489H17.5401C17.5581 21.7517 17.5621 21.5535 17.552 21.3558C17.552 21.3018 17.5401 21.2258 17.5401 20.9178V11.5179C17.5292 9.66023 16.782 7.8825 15.4622 6.57507C14.1424 5.26765 12.3578 4.53717 10.5 4.54382C8.64162 4.53718 6.85658 5.26825 5.53667 6.57654C4.21675 7.88483 3.4698 9.66344 3.46001 11.5219H3.45903Z" fill="#5E00B9"/>
</svg>
