<svg width="44" height="44" viewBox="0 0 44 44" fill="none" xmlns="http://www.w3.org/2000/svg">
<path d="M43.35 22C43.35 10.2087 33.7913 0.650024 22 0.650024C10.2087 0.650024 0.650024 10.2087 0.650024 22C0.650024 33.7913 10.2087 43.35 22 43.35C33.7913 43.35 43.35 33.7913 43.35 22Z" stroke="#A1ECAE" stroke-width="1.3"/>
<path d="M30.867 33.083H15.465C14.8229 33.0825 14.2072 32.8269 13.7534 32.3726C13.2996 31.9182 13.0448 31.3022 13.045 30.66V14.38C13.0456 13.7384 13.3007 13.1231 13.7544 12.6694C14.2082 12.2157 14.8234 11.9606 15.465 11.96H29.107C29.2821 11.96 29.45 12.0296 29.5737 12.1533C29.6975 12.2771 29.767 12.445 29.767 12.62V15.48H30.867C31.0421 15.48 31.21 15.5496 31.3337 15.6733C31.4575 15.7971 31.527 15.965 31.527 16.14V32.423C31.527 32.5097 31.51 32.5955 31.4768 32.6756C31.4436 32.7557 31.395 32.8284 31.3337 32.8897C31.2724 32.951 31.1997 32.9996 31.1196 33.0328C31.0395 33.066 30.9537 33.083 30.867 33.083ZM14.365 16.536V30.66C14.365 30.9518 14.4809 31.2316 14.6872 31.4378C14.8935 31.6441 15.1733 31.76 15.465 31.76H30.207V16.801H15.465C15.0825 16.8016 14.7054 16.7108 14.365 16.536ZM15.465 13.28C15.1733 13.28 14.8935 13.3959 14.6872 13.6022C14.4809 13.8085 14.365 14.0883 14.365 14.38C14.365 14.6718 14.4809 14.9515 14.6872 15.1578C14.8935 15.3641 15.1733 15.48 15.465 15.48H28.445V13.28H15.465Z" fill="#03BF23"/>
<path d="M22.9461 28.6831C22.8234 28.6824 22.7033 28.6478 22.5991 28.5831L20.0851 27.0381L17.5721 28.5851C17.472 28.6469 17.3573 28.6809 17.2398 28.6835C17.1222 28.6861 17.0061 28.6573 16.9034 28.6C16.8007 28.5427 16.7152 28.459 16.6558 28.3575C16.5963 28.2561 16.565 28.1406 16.5651 28.0231V16.1411H17.8851V26.8411L19.7391 25.7011C19.8433 25.6371 19.9633 25.6033 20.0856 25.6033C20.2079 25.6033 20.3278 25.6371 20.4321 25.7011L22.2851 26.8411V16.1411H23.6061V28.0231C23.6062 28.1098 23.5892 28.1956 23.5561 28.2758C23.523 28.3559 23.4744 28.4287 23.413 28.49C23.3517 28.5513 23.2789 28.6 23.1988 28.6331C23.1187 28.6662 23.0328 28.6832 22.9461 28.6831Z" fill="#03BF23"/>
</svg>
