<svg width="19" height="20" viewBox="0 0 19 20" fill="none" xmlns="http://www.w3.org/2000/svg">
<path d="M18.258 14.063C18.3555 14.063 18.4521 14.0438 18.5422 14.0065C18.6323 13.9691 18.7141 13.9144 18.783 13.8454C18.8519 13.7764 18.9066 13.6944 18.9438 13.6043C18.981 13.5142 19.0001 13.4176 19 13.32V5.45304C18.9992 4.66585 18.6861 3.91114 18.1295 3.35451C17.5729 2.79789 16.8182 2.48483 16.031 2.48404H15.066V1.74204C15.066 1.54525 14.9878 1.35652 14.8487 1.21736C14.7095 1.07821 14.5208 1.00004 14.324 1.00004C14.1272 1.00004 13.9385 1.07821 13.7993 1.21736C13.6602 1.35652 13.582 1.54525 13.582 1.74204V2.48404H10.205V1.74204C10.205 1.54525 10.1268 1.35652 9.98767 1.21736C9.84852 1.07821 9.65979 1.00004 9.463 1.00004C9.26621 1.00004 9.07748 1.07821 8.93833 1.21736C8.79918 1.35652 8.721 1.54525 8.721 1.74204V2.48404H5.381V1.74204C5.38744 1.64083 5.37308 1.53937 5.33878 1.44394C5.30448 1.3485 5.25098 1.26111 5.18159 1.18715C5.1122 1.1132 5.02838 1.05426 4.93531 1.01396C4.84225 0.97367 4.74191 0.952881 4.6405 0.952881C4.53909 0.952881 4.43875 0.97367 4.34569 1.01396C4.25262 1.05426 4.1688 1.1132 4.09941 1.18715C4.03002 1.26111 3.97652 1.3485 3.94222 1.44394C3.90792 1.53937 3.89355 1.64083 3.9 1.74204V2.48404H2.969C2.18182 2.48483 1.4271 2.79789 0.870477 3.35451C0.313854 3.91114 0.0007942 4.66585 0 5.45304L0 17.031C0.0007942 17.8182 0.313854 18.5729 0.870477 19.1296C1.4271 19.6862 2.18182 19.9992 2.969 20H16.031C16.8182 19.9992 17.5729 19.6862 18.1295 19.1296C18.6861 18.5729 18.9992 17.8182 19 17.031C19 16.8342 18.9218 16.6455 18.7827 16.5064C18.6435 16.3672 18.4548 16.289 18.258 16.289C18.0612 16.289 17.8725 16.3672 17.7333 16.5064C17.5942 16.6455 17.516 16.8342 17.516 17.031C17.5155 17.4245 17.359 17.8016 17.0808 18.0798C16.8026 18.358 16.4254 18.5145 16.032 18.515H2.969C2.57558 18.5145 2.19843 18.358 1.92024 18.0798C1.64205 17.8016 1.48553 17.4245 1.485 17.031V5.45304C1.48553 5.05962 1.64205 4.68246 1.92024 4.40428C2.19843 4.12609 2.57558 3.96957 2.969 3.96904H3.9V4.71104C3.9 4.90783 3.97817 5.09656 4.11733 5.23571C4.25648 5.37486 4.44521 5.45304 4.642 5.45304C4.83879 5.45304 5.02752 5.37486 5.16667 5.23571C5.30583 5.09656 5.384 4.90783 5.384 4.71104V3.96904H8.724V4.71104C8.724 4.90783 8.80218 5.09656 8.94133 5.23571C9.08048 5.37486 9.26921 5.45304 9.466 5.45304C9.66279 5.45304 9.85152 5.37486 9.99067 5.23571C10.1298 5.09656 10.208 4.90783 10.208 4.71104V3.96904H13.585V4.71104C13.585 4.90783 13.6632 5.09656 13.8023 5.23571C13.9415 5.37486 14.1302 5.45304 14.327 5.45304C14.5238 5.45304 14.7125 5.37486 14.8517 5.23571C14.9908 5.09656 15.069 4.90783 15.069 4.71104V3.96904H16.034C16.4274 3.96957 16.8046 4.12609 17.0828 4.40428C17.361 4.68246 17.5175 5.05962 17.518 5.45304V13.32C17.5177 13.5167 17.5955 13.7053 17.7343 13.8447C17.873 13.984 18.0614 14.0625 18.258 14.063Z" fill="#858199"/>
<path d="M12.793 8.76901L9.13501 13.879C9.09766 13.9221 9.052 13.9572 9.00077 13.9823C8.94953 14.0073 8.89378 14.0217 8.83683 14.0247C8.77988 14.0277 8.72291 14.0192 8.66933 13.9996C8.61575 13.9801 8.56667 13.95 8.52501 13.911L6.15702 11.637C6.01499 11.5007 5.82463 11.4264 5.62781 11.4304C5.43099 11.4344 5.24384 11.5165 5.10752 11.6585C4.9712 11.8005 4.89688 11.9909 4.90091 12.1877C4.90494 12.3845 4.98699 12.5717 5.12902 12.708L7.50002 14.984C7.85547 15.3215 8.32686 15.5098 8.81702 15.51C8.85902 15.51 8.90101 15.51 8.94301 15.51C9.20651 15.4921 9.46345 15.4199 9.69768 15.2979C9.93191 15.1759 10.1384 15.0067 10.304 14.801L10.329 14.768L14.002 9.63701C14.1166 9.47695 14.1629 9.27793 14.1307 9.08374C14.0986 8.88954 13.9906 8.71609 13.8305 8.60152C13.6705 8.48694 13.4714 8.44064 13.2773 8.47281C13.0831 8.50497 12.9096 8.61295 12.795 8.77301L12.793 8.76901Z" fill="#858199"/>
</svg>
