<svg width="15" height="13" viewBox="0 0 15 13" fill="none" xmlns="http://www.w3.org/2000/svg">
<path d="M11.1001 12.211V8.79396H9.8999C9.75085 8.79396 9.60808 8.73481 9.50269 8.62941C9.39729 8.52402 9.33789 8.381 9.33789 8.23195C9.33789 8.15806 9.35255 8.08511 9.38086 8.01686C9.40917 7.94861 9.45064 7.88644 9.50293 7.83424C9.55522 7.78204 9.61725 7.7406 9.68555 7.71242C9.75385 7.68423 9.82699 7.66981 9.90088 7.66994H13.4431C13.5924 7.66994 13.7355 7.72939 13.8411 7.83498C13.9466 7.94056 14.0061 8.08361 14.0061 8.23293C14.0061 8.38207 13.9469 8.52532 13.8416 8.63088C13.7362 8.73643 13.5932 8.79589 13.4441 8.79616H12.2439V12.2132C12.244 12.2882 12.2293 12.3623 12.2007 12.4317C12.172 12.501 12.1302 12.5642 12.0771 12.6172C12.0241 12.6703 11.9609 12.7121 11.8916 12.7407C11.8223 12.7694 11.7481 12.7841 11.6731 12.784C11.5977 12.7843 11.5231 12.7699 11.4534 12.7412C11.3837 12.7126 11.3201 12.6705 11.2668 12.6172C11.2136 12.5639 11.1715 12.5004 11.1428 12.4307C11.1142 12.361 11.0997 12.2863 11.1001 12.211ZM6.9519 12.782C6.80981 12.7773 6.67542 12.7165 6.57812 12.6128C6.48083 12.5091 6.42879 12.3711 6.43311 12.229V6.08693H7.57397V12.229C7.57829 12.3711 7.526 12.5091 7.42871 12.6128C7.33142 12.7165 7.19702 12.7773 7.05493 12.782H6.9519ZM1.76709 12.2119V8.79396H0.566895C0.417924 8.7937 0.27526 8.7345 0.169922 8.62917C0.0645837 8.52383 0.00514718 8.38092 0.00488281 8.23195C0.00514772 8.08281 0.0646117 7.93986 0.170166 7.83449C0.27572 7.72912 0.418971 7.66994 0.568115 7.66994H4.11011C4.18408 7.66981 4.25732 7.68442 4.32568 7.71266C4.39405 7.74091 4.456 7.78243 4.5083 7.83473C4.56061 7.88704 4.60212 7.94898 4.63037 8.01735C4.65862 8.08572 4.67323 8.15896 4.6731 8.23293C4.67323 8.30681 4.6588 8.3802 4.63062 8.4485C4.60243 8.5168 4.56099 8.57883 4.50879 8.63112C4.45659 8.68341 4.39467 8.72488 4.32642 8.75319C4.25817 8.7815 4.18497 8.79616 4.11108 8.79616H2.91089V12.2141C2.91089 12.2891 2.89614 12.3632 2.86743 12.4324C2.83872 12.5016 2.79669 12.5645 2.74365 12.6174C2.69062 12.6704 2.62762 12.7124 2.55835 12.741C2.48908 12.7696 2.41503 12.7841 2.34009 12.784C2.26448 12.7849 2.18924 12.7708 2.11914 12.7424C2.04904 12.7141 1.98534 12.6721 1.93164 12.6189C1.87794 12.5657 1.83536 12.5022 1.8064 12.4324C1.77743 12.3625 1.76267 12.2875 1.76294 12.2119H1.76709ZM11.1001 6.64699V0.511002C11.1006 0.443371 11.1143 0.376507 11.1406 0.314225C11.167 0.251942 11.2055 0.195416 11.2537 0.147965C11.3019 0.100514 11.3589 0.0630085 11.4216 0.0376134C11.4843 0.0122183 11.5513 -0.000511595 11.6189 1.57365e-05H11.719C11.7866 -0.000511595 11.8538 0.0122183 11.9165 0.0376134C11.9792 0.0630085 12.036 0.100514 12.0842 0.147965C12.1324 0.195416 12.1709 0.251942 12.1973 0.314225C12.2236 0.376507 12.2375 0.443371 12.238 0.511002V6.64699H11.1001ZM1.76709 6.64699V0.511002C1.76761 0.443371 1.78125 0.376507 1.80762 0.314225C1.83398 0.251942 1.87246 0.195416 1.92065 0.147965C1.96885 0.100514 2.02594 0.0630085 2.08862 0.0376134C2.15131 0.0122183 2.21826 -0.000511595 2.28589 1.57365e-05H2.38599C2.45362 -0.000511595 2.52081 0.0122183 2.5835 0.0376134C2.64618 0.0630085 2.70303 0.100514 2.75122 0.147965C2.79941 0.195416 2.83789 0.251942 2.86426 0.314225C2.89062 0.376507 2.90451 0.443371 2.90503 0.511002V6.64699H1.76709ZM5.23291 5.11208C5.08386 5.11208 4.94109 5.05292 4.83569 4.94753C4.7303 4.84213 4.6709 4.69912 4.6709 4.55006C4.67116 4.40092 4.73063 4.25797 4.83618 4.1526C4.94174 4.04724 5.08474 3.98805 5.23389 3.98805H6.43408V0.511002C6.43461 0.443371 6.44824 0.376507 6.47461 0.314225C6.50098 0.251942 6.53945 0.195416 6.58765 0.147965C6.63584 0.100514 6.69293 0.0630085 6.75562 0.0376134C6.8183 0.0122183 6.88525 -0.000511595 6.95288 1.57365e-05H7.05298C7.12061 -0.000511595 7.1878 0.0122183 7.25049 0.0376134C7.31317 0.0630085 7.37026 0.100514 7.41846 0.147965C7.46665 0.195416 7.50488 0.251942 7.53125 0.314225C7.55762 0.376507 7.5715 0.443371 7.57202 0.511002V3.98805H8.77197C8.84591 3.98805 8.91924 4.00248 8.98755 4.03078C9.05585 4.05907 9.11789 4.10057 9.17017 4.15285C9.22245 4.20513 9.26394 4.2674 9.29224 4.33571C9.32053 4.40402 9.33496 4.47711 9.33496 4.55104C9.33509 4.62493 9.32066 4.69807 9.29248 4.76637C9.2643 4.83467 9.22285 4.8967 9.17065 4.94899C9.11845 5.00128 9.05653 5.04276 8.98828 5.07106C8.92003 5.09937 8.84684 5.11403 8.77295 5.11403L5.23291 5.11208Z" fill="#5E00B9"/>
</svg>
