<svg width="44" height="44" viewBox="0 0 44 44" fill="none" xmlns="http://www.w3.org/2000/svg">
<path d="M43.35 22C43.35 10.2087 33.7913 0.650024 22 0.650024C10.2087 0.650024 0.650024 10.2087 0.650024 22C0.650024 33.7913 10.2087 43.35 22 43.35C33.7913 43.35 43.35 33.7913 43.35 22Z" stroke="#FFD5AF" stroke-width="1.3"/>
<path d="M35.7701 19.168C35.7477 19.0462 35.6837 18.9359 35.5891 18.856C34.9291 18.287 34.5152 17.4846 34.4341 16.617L34.4181 16.531C34.3978 16.4206 34.3433 16.3195 34.2624 16.2418C34.1814 16.1641 34.0781 16.1138 33.9671 16.098C33.8849 16.0866 33.802 16.0809 33.7191 16.081C33.0911 16.0888 32.4899 16.3368 32.0391 16.774C31.9611 16.8564 31.9114 16.9615 31.8971 17.074C31.8591 17.361 31.8391 17.624 31.8221 17.856C31.7561 18.73 31.6991 18.823 31.4321 18.907C31.3499 18.9331 31.2753 18.9786 31.2145 19.0397C31.1538 19.1008 31.1087 19.1757 31.0831 19.258C30.8333 20.0592 30.5026 20.8329 30.0961 21.567C29.896 21.187 29.6771 20.845 29.4731 20.528C28.9477 19.9374 28.6745 19.1646 28.7121 18.375C29.1501 15.908 28.9281 14.049 28.0511 12.851C27.5552 12.1796 26.8367 11.7064 26.0241 11.516C26.0605 11.0583 26.2298 10.6213 26.5112 10.2586C26.7926 9.8958 27.1738 9.62312 27.6081 9.474C27.7412 9.43388 27.8535 9.3435 27.9211 9.22202C27.9887 9.10053 28.0064 8.95749 27.9704 8.82319C27.9344 8.6889 27.8475 8.57389 27.7282 8.50255C27.6088 8.43121 27.4664 8.40913 27.3311 8.441C26.6912 8.64435 26.1252 9.0314 25.7036 9.55398C25.282 10.0766 25.0235 10.7116 24.9601 11.38C24.1386 11.3659 23.3377 11.6374 22.6941 12.148C21.5291 13.079 20.8241 14.81 20.6011 17.291C20.5341 18.038 20.0511 18.473 19.3821 19.076C18.739 19.6081 18.1863 20.2406 17.7451 20.949C17.1265 20.6972 16.4735 20.5405 15.8081 20.484C15.856 20.0405 16.0294 19.6198 16.3081 19.2714C16.5867 18.923 16.9589 18.6613 17.3811 18.517C17.4508 18.5006 17.5165 18.4703 17.5743 18.428C17.6322 18.3857 17.6809 18.3322 17.7176 18.2707C17.7544 18.2093 17.7784 18.141 17.7883 18.07C17.7982 17.9991 17.7937 17.9269 17.7752 17.8577C17.7566 17.7885 17.7244 17.7237 17.6803 17.6672C17.6362 17.6107 17.5813 17.5637 17.5187 17.5288C17.4561 17.494 17.3871 17.472 17.3159 17.4643C17.2447 17.4566 17.1726 17.4633 17.1041 17.484C16.8203 17.563 16.5504 17.6855 16.3041 17.847C16.2187 17.4236 16.0474 17.0222 15.8008 16.6676C15.5543 16.3129 15.2377 16.0126 14.8705 15.7851C14.5034 15.5575 14.0935 15.4077 13.6662 15.3447C13.2389 15.2818 12.8032 15.307 12.3861 15.419C12.2951 15.4433 12.2122 15.4911 12.1457 15.5576C12.0791 15.6242 12.0313 15.7071 12.0071 15.798C11.8646 16.3342 11.8653 16.8984 12.009 17.4343C12.1527 17.9702 12.4345 18.459 12.8261 18.852C13.3729 19.4016 14.1039 19.7294 14.8781 19.772C14.8079 20.0024 14.7587 20.2387 14.7311 20.478C13.0117 20.6113 11.4107 21.4048 10.2633 22.6921C9.11594 23.9795 8.51123 25.661 8.57586 27.3842C8.64049 29.1075 9.36944 30.7389 10.61 31.9367C11.8506 33.1345 13.5066 33.8058 15.2311 33.81C16.5859 33.814 17.9092 33.4018 19.0221 32.629C19.1981 32.706 19.3741 32.78 19.5511 32.85C21.0877 33.4707 22.7278 33.7954 24.3851 33.807C26.8981 33.8275 29.339 32.9682 31.2851 31.378C33.4374 29.5214 34.9517 27.0352 35.6141 24.271C35.9811 22.5943 36.034 20.864 35.7701 19.168ZM20.1021 19.868C20.5166 19.5802 20.869 19.212 21.1384 18.7853C21.4077 18.3585 21.5885 17.882 21.6701 17.384C21.8701 15.204 22.4371 13.723 23.3701 12.984C23.6542 12.7639 23.9812 12.6057 24.3301 12.5196C24.6791 12.4335 25.0422 12.4213 25.3961 12.484C25.7493 12.5157 26.092 12.621 26.402 12.7933C26.7121 12.9655 26.9825 13.2008 27.1961 13.484C27.8961 14.438 28.0521 16.021 27.6671 18.19C27.6181 18.7129 27.6737 19.2404 27.8308 19.7416C27.9879 20.2428 28.2433 20.7076 28.5821 21.109C28.9186 21.5947 29.2015 22.1154 29.4261 22.662C27.6369 25.2655 24.9499 27.1171 21.8801 27.862C22.0164 26.601 21.7907 25.3272 21.2292 24.1899C20.6678 23.0525 19.794 22.0987 18.7101 21.44C19.0919 20.8495 19.5613 20.3205 20.1021 19.871V19.868ZM13.5821 18.092C13.3621 17.871 13.1941 17.6037 13.0903 17.3097C12.9866 17.0156 12.9496 16.7021 12.9821 16.392C13.0561 16.3841 13.1306 16.3801 13.2051 16.38C13.4799 16.3793 13.7521 16.4331 14.006 16.5383C14.2598 16.6436 14.4903 16.7981 14.6841 16.993C14.904 17.214 15.072 17.4813 15.1758 17.7753C15.2795 18.0694 15.3165 18.3829 15.2841 18.693C15.21 18.7009 15.1355 18.7049 15.0611 18.705C14.7864 18.7061 14.5144 18.6527 14.2605 18.548C14.0066 18.4433 13.776 18.2894 13.5821 18.095V18.092ZM15.2351 32.74C14.0887 32.7388 12.9703 32.3858 12.0309 31.7288C11.0916 31.0717 10.3765 30.1421 9.98231 29.0657C9.58811 27.9892 9.53377 26.8177 9.82664 25.7094C10.1195 24.601 10.7455 23.6093 11.62 22.8681C12.4945 22.1268 13.5754 21.6719 14.7167 21.5646C15.8581 21.4573 17.0048 21.7029 18.0022 22.2681C18.9995 22.8334 19.7993 23.6911 20.2935 24.7255C20.7878 25.7598 20.9527 26.9209 20.7661 28.052C20.4221 28.0967 20.0761 28.1247 19.7281 28.136C19.9343 27.2171 19.853 26.2571 19.4951 25.386C19.4704 25.3182 19.4324 25.2561 19.3831 25.2034C19.3339 25.1507 19.2746 25.1085 19.2086 25.0793C19.1427 25.0502 19.0715 25.0346 18.9994 25.0337C18.9273 25.0327 18.8557 25.0463 18.789 25.0737C18.7223 25.1011 18.6618 25.1417 18.6112 25.193C18.5606 25.2444 18.5208 25.3054 18.4944 25.3725C18.468 25.4396 18.4554 25.5114 18.4574 25.5835C18.4594 25.6555 18.4759 25.7265 18.5061 25.792C18.8098 26.5316 18.8535 27.3523 18.6301 28.12C17.8571 28.0697 17.0911 27.943 16.3431 27.742C16.2671 27.7216 16.1876 27.7182 16.1101 27.732C16.0327 27.7458 15.9593 27.7766 15.8951 27.822C15.3187 28.1944 14.8838 28.7493 14.6601 29.398C14.6243 29.5005 14.6205 29.6114 14.6493 29.7161C14.678 29.8207 14.7379 29.9142 14.8211 29.984C15.7685 30.7847 16.796 31.4858 17.8871 32.076C17.0722 32.5148 16.1606 32.743 15.2351 32.74ZM34.5801 23.996C33.1131 29.471 29.3021 32.74 24.3801 32.74C21.2317 32.6318 18.2126 31.4613 15.8141 29.419C15.9398 29.1945 16.11 28.9978 16.3141 28.841C17.3083 29.0875 18.3287 29.2127 19.3531 29.214C22.2622 29.1995 25.0811 28.203 27.3531 26.386C28.5511 25.4473 29.5909 24.3227 30.4331 23.055C30.4431 23.042 30.452 23.028 30.4611 23.013C31.1182 22.019 31.6424 20.9432 32.0201 19.813C32.7691 19.436 32.8271 18.672 32.8821 17.931C32.8951 17.762 32.9081 17.588 32.9281 17.405C33.0848 17.2961 33.2615 17.2193 33.4481 17.179C33.6102 18.0866 34.0671 18.9154 34.7481 19.537C34.9508 21.0218 34.894 22.5306 34.5801 23.996Z" fill="#F87300"/>
<path d="M25.805 13.58C25.6753 13.5306 25.5316 13.5336 25.404 13.5882C25.2765 13.6429 25.1752 13.7449 25.1214 13.8729C25.0677 14.0008 25.0658 14.1446 25.1161 14.2739C25.1664 14.4033 25.265 14.508 25.391 14.566C25.78 14.729 25.991 15.903 25.653 17.831C25.6383 17.9011 25.6378 17.9735 25.6516 18.0438C25.6654 18.1142 25.6931 18.181 25.7333 18.2404C25.7734 18.2998 25.825 18.3505 25.8851 18.3896C25.9452 18.4286 26.0125 18.4552 26.0831 18.4677C26.1536 18.4803 26.226 18.4785 26.2958 18.4625C26.3657 18.4465 26.4316 18.4167 26.4898 18.3747C26.5479 18.3328 26.597 18.2796 26.6341 18.2183C26.6713 18.157 26.6957 18.0889 26.706 18.018C27.012 16.294 27.104 14.124 25.805 13.58Z" fill="#F87300"/>
<path d="M28.112 29.749C28.0473 29.6228 27.935 29.5274 27.8 29.4839C27.665 29.4404 27.5183 29.4523 27.392 29.517C26.343 30.0746 25.1795 30.3826 23.992 30.417C23.8521 30.4148 23.717 30.4675 23.6155 30.5637C23.514 30.66 23.4542 30.7921 23.449 30.9319C23.4438 31.0717 23.4935 31.208 23.5875 31.3115C23.6815 31.4151 23.8124 31.4777 23.952 31.486H24.037C25.3775 31.4431 26.6907 31.0956 27.877 30.47C27.9399 30.4382 27.9959 30.3943 28.0418 30.3408C28.0876 30.2873 28.1225 30.2253 28.1443 30.1583C28.1661 30.0913 28.1745 30.0207 28.169 29.9504C28.1634 29.8802 28.1441 29.8117 28.112 29.749Z" fill="#F87300"/>
</svg>
