<svg width="24" height="23" viewBox="0 0 24 23" fill="none" xmlns="http://www.w3.org/2000/svg">
<path d="M1.956 12.936C1.956 12.8092 2.00636 12.6876 2.096 12.598C2.18565 12.5084 2.30723 12.458 2.434 12.458H11.522C11.612 12.4576 11.7003 12.4828 11.7766 12.5306C11.8529 12.5784 11.914 12.6468 11.953 12.728L15.9 20.917C15.9272 20.9736 15.943 21.035 15.9464 21.0977C15.9499 21.1604 15.941 21.2232 15.9202 21.2824C15.8994 21.3417 15.8671 21.3962 15.8252 21.443C15.7833 21.4898 15.7326 21.5278 15.676 21.555C14.2174 22.2564 12.6048 22.5764 10.9889 22.4853C9.37302 22.3941 7.80664 21.8947 6.43617 21.0338C5.0657 20.1729 3.93591 18.9785 3.15241 17.5623C2.36891 16.1462 1.95728 14.5545 1.956 12.936ZM11.522 21.545C12.6567 21.5476 13.7805 21.3243 14.828 20.888L11.222 13.414H2.927C3.05154 15.6101 4.01104 17.6756 5.60897 19.1872C7.2069 20.6989 9.32234 21.5424 11.522 21.545ZM17.228 19.184C17.1685 19.1634 17.1137 19.1312 17.0667 19.0893C17.0196 19.0475 16.9814 18.9967 16.954 18.94L13 10.752C12.9686 10.6872 12.9525 10.616 12.953 10.544V1.457C12.9529 1.39419 12.9651 1.33197 12.9891 1.27392C13.0131 1.21587 13.0483 1.16312 13.0927 1.11871C13.1371 1.0743 13.1899 1.03909 13.2479 1.01512C13.306 0.991142 13.3682 0.978868 13.431 0.979C15.5975 0.979378 17.6998 1.71504 19.3939 3.06561C21.0879 4.41619 22.2734 6.30172 22.7565 8.41372C23.2395 10.5257 22.9915 12.7391 22.053 14.6918C21.1144 16.6445 19.541 18.2209 17.59 19.163C17.5253 19.1948 17.4541 19.2112 17.382 19.211C17.3296 19.2109 17.2775 19.2021 17.228 19.185V19.184ZM13.914 10.435L17.6 18.081C19.234 17.1765 20.5296 15.7654 21.2917 14.0604C22.0537 12.3554 22.2408 10.4488 21.8249 8.62814C21.4089 6.80747 20.4123 5.17137 18.9854 3.96646C17.5585 2.76155 15.7786 2.05313 13.914 1.948V10.435ZM1.478 10.545C1.41514 10.545 1.35291 10.5326 1.29485 10.5085C1.23679 10.4844 1.18405 10.4491 1.13965 10.4046C1.09525 10.3602 1.06006 10.3073 1.0361 10.2492C1.01214 10.1911 0.99987 10.1289 1 10.066C1.00291 7.52983 2.01169 5.09837 3.80503 3.30503C5.59838 1.51169 8.02983 0.502911 10.566 0.5C10.6289 0.5 10.6911 0.512397 10.7492 0.536481C10.8072 0.560565 10.86 0.595864 10.9044 0.640356C10.9488 0.684849 10.9839 0.737661 11.0079 0.79577C11.0319 0.853879 11.0441 0.916144 11.044 0.979V10.066C11.0441 10.1289 11.0319 10.1911 11.0079 10.2492C10.9839 10.3073 10.9488 10.3602 10.9044 10.4046C10.86 10.4491 10.8072 10.4844 10.7492 10.5085C10.6911 10.5326 10.6289 10.545 10.566 10.545H1.478ZM1.97 9.589H10.087V1.471C7.97333 1.59132 5.97781 2.4851 4.48071 3.98201C2.9836 5.47893 2.08958 7.47434 1.969 9.588L1.97 9.589Z" fill="#ECD9FF" stroke="#ECD9FF" stroke-width="0.3"/>
</svg>
