<svg width="22" height="22" viewBox="0 0 23 20" fill="none" xmlns="http://www.w3.org/2000/svg">
<path d="M14.2871 19.5289C14.1428 19.5293 14.0037 19.4749 13.8979 19.3767C13.7921 19.2786 13.7275 19.1439 13.7171 18.9999C13.7164 18.9853 13.7164 18.9706 13.7171 18.9559V13.4449C13.7171 12.9901 13.5365 12.5539 13.2148 12.2323C12.8932 11.9106 12.457 11.7299 12.0021 11.7299C11.5473 11.7299 11.1111 11.9106 10.7894 12.2323C10.4678 12.5539 10.2871 12.9901 10.2871 13.4449V18.9599C10.2879 18.9746 10.2879 18.9893 10.2871 19.0039C10.2758 19.147 10.2109 19.2805 10.1054 19.3779C9.99997 19.4752 9.86166 19.5291 9.71814 19.5289H4.00014C3.9252 19.5292 3.85095 19.5147 3.78163 19.4862C3.7123 19.4578 3.64928 19.4159 3.59615 19.3631C3.54302 19.3102 3.50083 19.2474 3.472 19.1782C3.44318 19.1091 3.42827 19.0349 3.42814 18.9599V9.32994C3.43431 9.18251 3.49721 9.04316 3.60372 8.94102C3.71022 8.83888 3.85207 8.78185 3.99964 8.78185C4.1472 8.78185 4.28906 8.83888 4.39556 8.94102C4.50206 9.04316 4.56497 9.18251 4.57114 9.32994V18.3899H9.14214V13.4449C9.14214 12.6868 9.4433 11.9598 9.97937 11.4237C10.5154 10.8876 11.2425 10.5864 12.0006 10.5864C12.7588 10.5864 13.4858 10.8876 14.0219 11.4237C14.558 11.9598 14.8591 12.6868 14.8591 13.4449V18.3899H19.4321V9.32994C19.4383 9.18251 19.5012 9.04316 19.6077 8.94102C19.7142 8.83888 19.8561 8.78185 20.0036 8.78185C20.1512 8.78185 20.2931 8.83888 20.3996 8.94102C20.5061 9.04316 20.569 9.18251 20.5751 9.32994V18.9599C20.575 19.0349 20.5601 19.1091 20.5313 19.1782C20.5024 19.2474 20.4603 19.3102 20.4071 19.3631C20.354 19.4159 20.291 19.4578 20.2217 19.4862C20.1523 19.5147 20.0781 19.5292 20.0031 19.5289H14.2871ZM1.11014 8.50894C1.06513 8.44855 1.03257 8.37981 1.01438 8.30671C0.996184 8.23362 0.992709 8.15764 1.00416 8.08319C1.0156 8.00874 1.04174 7.93732 1.08105 7.87306C1.12036 7.80881 1.17206 7.75302 1.23314 7.70894L11.6621 0.109942C11.7602 0.038495 11.8783 0 11.9996 0C12.1209 0 12.2391 0.038495 12.3371 0.109942L22.7651 7.70994C22.8255 7.75426 22.8765 7.81004 22.9153 7.87407C22.9541 7.93811 22.9799 8.00917 22.9912 8.08317C23.0025 8.15718 22.9992 8.2327 22.9813 8.30541C22.9635 8.37812 22.9315 8.4466 22.8871 8.50694C22.8428 8.56728 22.787 8.61831 22.723 8.65709C22.659 8.69588 22.5879 8.72168 22.5139 8.73301C22.4399 8.74433 22.3644 8.74098 22.2917 8.72312C22.219 8.70526 22.1505 8.67326 22.0901 8.62894L12.0001 1.27494L1.90914 8.63194C1.78668 8.72154 1.63368 8.75891 1.48371 8.73585C1.33373 8.7128 1.19902 8.63119 1.10914 8.50894H1.11014Z" fill="#ECD9FF"/>
</svg>
