<svg width="305" height="384" viewBox="0 0 305 384" fill="none" xmlns="http://www.w3.org/2000/svg">
<path d="M305 359.053C305 345.493 236.723 334.498 152.501 334.498C68.2766 334.498 0 345.493 0 359.053C0 372.616 68.2766 383.608 152.501 383.608C236.723 383.608 305 372.616 305 359.053Z" fill="#4F0FA2"/>
<path d="M154.83 15.2211C152.764 5.00435 143.04 -1.65195 133.104 0.358288C123.168 2.36392 116.792 12.2771 118.857 22.4939C120.923 32.7107 130.652 39.367 140.583 37.3567C150.52 35.3511 156.895 25.4379 154.83 15.2211Z" fill="#00EC7E"/>
<path d="M138.537 33.2842L137.835 29.7936C135.877 30.1541 133.733 29.9351 132.382 29.31L132.72 26.8278C134.098 27.4164 135.978 27.7175 137.862 27.3388C140.248 26.8552 141.581 25.1122 141.179 23.141C140.796 21.2383 139.245 20.3258 136.548 19.7919C132.834 19.1029 130.397 17.9394 129.79 14.9279C129.211 12.0579 130.753 9.4799 133.742 8.33463L133.035 4.83952L135.12 4.41973L135.795 7.77341C137.83 7.43576 139.322 7.70954 140.413 8.10195L140.034 10.5522C139.245 10.283 137.711 9.79933 135.562 10.2328C132.971 10.7575 132.314 12.5462 132.597 13.9287C132.962 15.7264 134.39 16.3744 137.565 17.0314C141.321 17.7843 143.433 19.2261 144.058 22.306C144.606 25.0392 143.278 27.9731 139.929 29.2598L140.659 32.8553L138.537 33.2842Z" fill="#5E00B9"/>
<path d="M194.653 129.649L184.883 132.506L179.119 112.801L188.889 109.946C189.334 109.816 189.801 110.072 189.931 110.517L195.224 128.607C195.354 129.052 195.098 129.519 194.653 129.649Z" fill="#FF9C94"/>
<path d="M189.185 119.002C188.807 116.778 188.691 114.877 188.926 114.76C189.161 114.641 189.659 116.349 190.037 118.573C190.416 120.799 190.532 122.699 190.296 122.818C190.061 122.934 189.563 121.228 189.185 119.002Z" fill="#060633"/>
<path d="M58.7658 222.989C60.6096 219.938 59.6312 215.97 56.5802 214.128C53.5295 212.283 49.5618 213.261 47.718 216.312C45.8743 219.363 46.8527 223.331 49.9034 225.175C52.9542 227.019 56.9219 226.039 58.7658 222.989Z" fill="#6094E8"/>
<path d="M66.0844 288.469C66.6559 284.05 63.5369 280.003 59.1178 279.432C54.6988 278.861 50.653 281.981 50.0812 286.399C49.5097 290.817 52.6287 294.862 57.0478 295.435C61.4671 296.007 65.5129 292.887 66.0844 288.469Z" fill="#91B5F8"/>
<path d="M120.408 318.095C120.408 318.095 124.095 339.977 124.241 340.246C124.384 340.514 122.892 342.858 122.892 342.858L117.07 343.916L111.752 341.436C111.752 341.436 108.685 323.797 108.13 321.052C107.574 318.306 120.408 318.095 120.408 318.095Z" fill="#9E5950"/>
<path d="M112.242 342.057C112.242 342.057 118.728 344.151 124.271 340.688C124.271 340.688 145.862 348.156 145.203 353.835C145.203 353.835 146.122 355.527 136.766 355.161C127.411 354.796 112.872 354.413 112.483 354.214C112.094 354.013 110.261 354.925 112.242 342.057Z" fill="#060633"/>
<path d="M56.4689 318.096C56.4689 318.096 50.8633 339.978 51.0046 340.246C51.1462 340.514 49.6785 342.858 49.6785 342.858L43.9476 343.916L38.7168 341.436C38.7168 341.436 41.5696 323.437 41.0224 320.692C40.4748 317.946 56.4689 318.096 56.4689 318.096Z" fill="#9E5950"/>
<path d="M39.5788 342.057C39.5788 342.057 45.7547 344.151 51.0336 340.688C51.0336 340.688 71.5975 348.156 70.9697 353.835C70.9697 353.835 71.8453 355.527 62.9353 355.161C54.0257 354.796 40.1787 354.413 39.8073 354.214C39.4364 354.013 37.6919 354.925 39.5788 342.057Z" fill="#060633"/>
<path d="M114.373 187.851L125.864 331.006H106.115C106.115 331.006 85.237 217.885 82.2745 217.388C79.312 216.892 58.1561 331.006 58.1561 331.006H35.4893L47.0747 184.148L114.373 187.851Z" fill="#131375"/>
<path d="M90.5613 78.4268C98.8556 80.2987 113.458 87.7863 118.87 97.4874C124.28 107.189 125.863 117.452 125.863 117.452C125.863 117.452 114.625 122.422 110.468 122.171C110.468 122.171 110.112 179.023 115.779 193.123C115.779 193.123 111.892 200.928 95.105 200.242C78.3185 199.557 62.3022 196.027 54.7451 196.99C51.4224 197.414 45.6636 199.493 45.6636 199.493C45.6636 199.493 45.0561 156.005 45.7749 133.658C46.4938 111.312 55.3666 112.928 55.3666 112.928L38.7808 113.706C38.7808 113.706 37.1478 92.8207 50.3847 85.6937C61.7867 79.5513 76.3419 77.6344 76.3419 77.6344C76.3419 77.6344 87.0863 77.6439 90.5613 78.4268Z" fill="#FFCD4D"/>
<path d="M96.8149 48.7569C96.8149 48.7569 97.8304 46.3254 98.8434 47.1374C101.426 49.2072 99.2621 52.5505 97.7145 53.4268L96.8149 48.7569Z" fill="#97544B"/>
<path d="M95.3462 39.463L95.3279 39.4677C95.3125 39.2183 95.2977 38.9665 95.273 38.7148C94.2017 27.7918 84.3018 19.8663 73.3391 21.3235C63.2296 22.6675 55.7975 31.7985 56.5163 41.9802C56.7292 44.9961 57.6185 47.7927 59.0139 50.2429C64.1062 60.1567 67.2849 67.0269 72.9591 69.8119C73.9881 70.3176 74.6575 71.3476 74.7689 72.4907L75.2465 77.3864C75.4544 79.5156 74.6247 81.617 73.0174 83.0257L73.0172 83.028C84.0614 86.0948 88.1965 81.5431 88.1965 81.5431C86.4432 80.3515 85.3101 78.4417 85.104 76.331L84.8438 73.6638C84.6816 72.0011 85.7554 70.4677 87.3721 70.0544L87.4019 70.0474C105.527 65.408 95.9984 46.1115 95.3462 39.463Z" fill="#9E5950"/>
<path d="M77.4386 50.7684C77.3078 49.4387 76.1234 48.465 74.7931 48.5973C73.4627 48.7265 72.4901 49.9113 72.6206 51.241C72.7508 52.5708 73.9355 53.5444 75.2661 53.4153C76.5962 53.2829 77.5691 52.0981 77.4386 50.7684Z" fill="#060633"/>
<path d="M93.8214 46.6949C93.6946 45.406 92.5466 44.4623 91.2572 44.5906C89.9678 44.7158 89.0248 45.8641 89.1516 47.153C89.2777 48.4418 90.426 49.3856 91.7154 49.2603C93.0048 49.1321 93.9478 47.9837 93.8214 46.6949Z" fill="#060633"/>
<path d="M64.5399 56.6562C64.5399 56.6562 68.6883 43.7848 67.5754 37.2903L56.6816 37.4191C56.6816 37.4191 54.9187 47.8071 61.528 55.7478L64.5399 56.6562Z" fill="#060633"/>
<path d="M85.5608 58.2535C85.1469 58.3214 84.8182 58.1378 84.7982 58.1278C84.6648 58.0498 84.5939 57.8058 84.6397 57.5845C84.6851 57.3606 84.8307 57.2424 84.9631 57.3178C84.9686 57.3203 85.4965 57.6071 85.9527 57.1795C86.2716 56.8802 86.4936 56.2941 86.6129 55.4364C86.6381 55.2528 86.6422 55.2251 86.2884 54.9384C85.6689 54.4378 84.5149 53.5047 83.9123 49.1079C83.8807 48.879 83.9667 48.6502 84.1043 48.5973C84.2459 48.542 84.3789 48.6879 84.4103 48.9168C84.958 52.9136 85.9302 53.7009 86.5109 54.1687C86.8489 54.4429 87.2322 54.7522 87.1103 55.6301C86.9566 56.7368 86.649 57.5115 86.1961 57.9316C85.9814 58.1303 85.7611 58.2208 85.5608 58.2535Z" fill="#7C433C"/>
<path d="M86.3106 43.7399C86.0531 43.7703 85.7895 43.6354 85.6374 43.3588C85.4183 42.9642 85.5079 42.4348 85.8391 42.1717C85.9595 42.0739 88.846 39.8413 92.9915 40.7215C93.3839 40.8059 93.6452 41.251 93.5755 41.7198C93.5049 42.1852 93.1306 42.4988 92.7376 42.4145C89.1855 41.6591 86.6617 43.5848 86.6362 43.605C86.5356 43.6826 86.4234 43.7265 86.3106 43.7399Z" fill="#060633"/>
<path d="M70.0663 48.5834C69.8916 48.5978 69.7102 48.5507 69.5735 48.4423C69.3227 48.2438 69.3132 47.9144 69.5516 47.7057C72.071 45.5022 75.0528 45.361 75.179 45.3589C75.5243 45.3446 75.8176 45.5676 75.8336 45.8541C75.8493 46.1405 75.5715 46.386 75.2387 46.3983C75.1974 46.4024 72.6116 46.5415 70.4587 48.4238C70.351 48.518 70.2104 48.5712 70.0663 48.5834Z" fill="#060633"/>
<path d="M85.4411 64.6472C83.7657 64.8299 81.7726 64.7052 79.4091 64.1022C79.1687 64.0413 79.0187 63.7746 79.0747 63.5108C79.1305 63.2469 79.3707 63.0788 79.6109 63.1426C90.0534 65.8068 92.6198 58.8809 92.7232 58.5852C92.8121 58.333 93.0718 58.2054 93.3002 58.3011C93.5301 58.3997 93.6456 58.6838 93.5583 58.936C93.5362 58.9998 91.7305 63.9717 85.4411 64.6472Z" fill="#060633"/>
<path d="M65.075 55.4742C64.7208 54.6883 64.1611 54.1278 63.523 53.8658C62.2086 53.3297 59.925 52.8575 58.5427 55.2062C56.5147 58.6545 61.623 66.3554 65.8039 61.6063C65.8039 61.6063 66.956 59.6476 65.075 55.4742Z" fill="#9E5950"/>
<path d="M54.0521 33.9033C52.5945 32.2928 51.7239 30.1837 51.6299 28.031C52.6491 27.4911 53.9794 27.946 54.7687 28.78C55.558 29.6117 55.9328 30.7328 56.2856 31.8149C56.0156 28.9822 58.2659 26.7422 60.2517 25.0122C62.6636 22.9146 65.2841 20.8355 68.4229 19.9096C72.7516 18.6299 77.4688 18.8252 81.9438 18.6207C85.271 18.3014 88.6848 18.3933 91.9892 18.1291C92.638 18.1084 93.2848 18.0877 93.9339 18.0694C94.9006 18.0579 96.7499 17.433 96.8781 18.862C97.0181 20.4242 96.1786 21.9451 95.0185 23.0226C93.9024 24.0611 92.5194 24.7503 91.1549 25.4166C91.9612 25.2374 92.7906 25.2718 93.6205 25.3913C94.6666 25.5406 95.7182 25.7658 96.7422 26.0208C97.3069 26.1632 97.8812 26.4251 98.1833 26.9145C98.3465 27.1787 98.4168 27.4888 98.4283 27.7967C98.5324 30.6248 95.4135 32.92 93.1183 33.986C85.6935 37.4321 77.0105 36.3156 68.8697 37.3977C65.2201 37.8824 60.9997 39.3964 57.3145 38.7417C56.0737 38.5211 52.9857 37.0002 51.831 35.5505C51.4562 35.0818 51.7518 34.3811 52.3542 34.2938C52.9283 34.2111 53.497 34.0985 54.0521 33.9033Z" fill="#060633"/>
<path d="M93.5854 33.4355C93.5854 33.4355 95.6808 36.4806 96.8125 40.5166C96.8125 40.5166 96.8848 33.4753 95.4703 31.414C94.0556 29.3552 93.5854 33.4355 93.5854 33.4355Z" fill="#060633"/>
<path d="M151.889 80.8625L158.139 103.455C158.139 103.455 146.722 103.801 144.05 94.1431C141.378 84.4856 151.889 80.8625 151.889 80.8625Z" fill="#FF9C94"/>
<path d="M157.517 103.447C154.235 101.784 150.733 98.7407 149.125 93.1775C147.4 87.2038 149.293 83.2873 151.616 80.8625L158.139 103.454C158.139 103.454 157.911 103.461 157.517 103.447Z" fill="#060633"/>
<path d="M86.746 148.461C80.688 127.64 97.6252 104.34 124.578 96.4207C151.527 88.4989 178.288 98.9574 184.346 119.778C190.404 140.599 173.467 163.897 146.515 171.819C119.563 179.738 92.8041 169.282 86.746 148.461Z" fill="#FFB0AA"/>
<path d="M164.759 118.888C164.135 117.177 165.362 115.385 167.497 114.884C169.636 114.385 171.876 115.366 172.503 117.077C173.127 118.785 171.9 120.58 169.761 121.079C167.626 121.578 165.386 120.599 164.759 118.888Z" fill="#060633"/>
<path d="M138.979 84.0905L145.229 108.296C145.229 108.296 133.812 108.665 131.14 98.3197C128.468 87.9723 138.979 84.0905 138.979 84.0905Z" fill="#FF9C94"/>
<path d="M144.608 108.288C141.325 106.506 137.821 103.246 136.216 97.2862C134.491 90.8865 136.383 86.6882 138.704 84.0905L145.23 108.296C145.23 108.296 144.999 108.304 144.608 108.288Z" fill="#060633"/>
<path d="M111.467 105.067C111.473 105.065 111.482 105.061 111.488 105.06C120.167 100.693 125.71 100.414 125.766 100.412C125.821 100.41 125.866 100.366 125.862 100.317C125.86 100.266 125.813 100.227 125.756 100.229C125.702 100.231 120.11 100.511 111.39 104.898C111.34 104.924 111.324 104.979 111.35 105.023C111.374 105.061 111.423 105.078 111.467 105.067Z" fill="#060633"/>
<path d="M159.754 154.639L175.986 150.257L180.734 165.241L164.499 169.623L159.754 154.639Z" fill="#FF9C94"/>
<path d="M112.953 169.161L127.936 164.782L132.319 179.765L117.335 184.147L112.953 169.161Z" fill="#FF9C94"/>
<path d="M80.6415 132.818C79.8145 133.901 79.5258 135.539 79.9393 136.805C80.3799 138.153 81.6637 138.907 82.6361 138.382C83.6073 137.857 84.0309 136.346 84.0134 135.161C83.9938 133.824 83.5554 132.517 83.1582 131.354C82.1582 131.492 81.2626 132.006 80.6415 132.818ZM79.6447 136.968C79.1817 135.55 79.4983 133.724 80.4142 132.528C81.0649 131.674 81.989 131.124 83.0195 130.959C82.9367 130.735 82.8429 130.519 82.7189 130.343C82.1953 129.594 81.2749 129.63 80.3582 129.779L76.014 130.489C75.9264 130.503 75.8463 130.423 75.8352 130.309C75.8244 130.193 75.8863 130.091 75.9741 130.077L80.3183 129.367C81.3205 129.204 82.3337 129.177 82.9558 130.064C83.1337 130.318 83.2554 130.624 83.3579 130.917C83.4878 130.906 83.6193 130.901 83.7516 130.903C84.8935 130.917 85.872 131.392 86.5067 132.238C86.832 132.672 87.0766 133.21 87.3128 133.73C87.6818 134.542 88.0304 135.307 88.6446 135.63C88.7266 135.675 88.766 135.793 88.7328 135.901C88.6994 136.006 88.606 136.059 88.5242 136.014C87.8097 135.639 87.417 134.774 87.0372 133.94C86.8105 133.442 86.5759 132.926 86.2774 132.528C85.5017 131.495 84.36 131.326 83.7484 131.318C83.6642 131.318 83.5807 131.318 83.4976 131.323C83.8939 132.486 84.3132 133.788 84.3332 135.152C84.3534 136.517 83.8743 138.164 82.759 138.766C82.6942 138.799 82.6282 138.83 82.5613 138.854C81.4669 139.272 80.1213 138.426 79.6447 136.968Z" fill="#FA7267"/>
<path d="M38.7168 114.343C38.7168 114.343 42.508 139.499 63.3326 140.544C84.1574 141.586 103.27 114.514 103.27 114.514L97.9391 109.911C97.9391 109.911 70.2896 125.92 63.407 123.127C56.5248 120.335 55.7644 113.587 55.7644 113.587L38.7168 114.343Z" fill="#9E5950"/>
<path d="M96.8149 109.773C96.8149 109.773 99.6988 104.503 101.254 102.815C102.808 101.125 104.022 98.2058 105.32 98.6626C106.618 99.1194 104.198 103.413 104.198 103.413C104.198 103.413 108.704 101.686 110.002 100.961C111.298 100.236 112.97 99.5536 113.618 100.391C114.264 101.229 108.772 104.242 108.772 104.242C108.772 104.242 114.516 102.147 115.292 102.802C116.067 103.458 109.182 107.118 109.182 107.118C109.182 107.118 115.191 104.605 115.848 104.789C116.504 104.974 116.277 105.76 114.381 107.127C112.488 108.495 110.172 109.441 110.172 109.441C110.172 109.441 114.538 107.969 115.127 107.96C115.717 107.952 116.538 108.341 113.499 110.093C110.462 111.846 105.689 111.879 101.358 114.753L96.8149 109.773Z" fill="#9E5950"/>
<path d="M145.111 180.919C145.111 180.919 148.734 173.695 150.088 173.96C151.439 174.224 150.259 180.315 150.32 180.227C150.383 180.137 152.949 173.951 154.899 173.81C156.85 173.669 155.088 180.63 155.088 180.63C155.088 180.63 156.958 174.69 158.296 174.651C159.638 174.611 158.641 180.449 159.152 180.511C159.66 180.575 160.035 175.51 161.699 175.405C163.359 175.3 163.181 182.456 161.563 183.22C159.942 183.986 158.629 182.887 158.629 182.887C158.629 182.887 155.74 183.937 154.404 183.066C154.404 183.066 150.068 183.305 149.575 181.841C149.575 181.841 146.21 183.247 145.111 180.919Z" fill="#FB9391"/>
<path d="M212.327 39.443C209.844 33.8903 203.455 31.3461 198.056 33.7589C192.659 36.1717 190.295 42.6292 192.778 48.1819C195.259 53.7346 201.648 56.2802 207.046 53.8674C212.445 51.4532 214.808 44.9957 212.327 39.443Z" fill="#9039FF"/>
<path d="M204.917 51.6182L204.031 49.7022C202.916 50.1614 201.613 50.3135 200.727 50.1286L200.596 48.6585C201.493 48.818 202.652 48.7494 203.721 48.2872C205.076 47.7013 205.631 46.5278 205.131 45.4454C204.649 44.4016 203.607 44.0781 201.931 44.1183C199.634 44.2004 198.029 43.847 197.266 42.1964C196.538 40.6204 197.11 38.9385 198.734 37.8948L197.849 35.9774L199.031 35.466L199.882 37.3074C201.044 36.8511 201.966 36.8153 202.669 36.8988L202.771 38.3585C202.265 38.3034 201.29 38.2243 200.069 38.7522C198.599 39.3873 198.45 40.4996 198.801 41.2586C199.258 42.2456 200.192 42.435 202.167 42.3992C204.501 42.347 205.949 42.9061 206.73 44.5955C207.422 46.0939 207.023 47.9532 205.207 49.1252L206.12 51.0993L204.917 51.6182Z" fill="white"/>
<path d="M238.237 71.9994C241.341 74.1299 243.542 77.3557 243.962 82.0717C244.362 86.578 242.861 91.6782 245.493 95.299C248.751 99.7835 256.004 98.6474 259.897 102.56C261.987 104.658 262.695 107.921 262.281 110.899C261.869 113.877 260.466 116.615 258.837 119.114C257.085 121.802 254.941 124.648 255.252 127.873C255.587 131.371 258.715 133.924 259.614 137.313C260.829 141.879 257.333 146.803 252.911 148.071C248.492 149.34 243.675 147.617 240.041 144.727C234.878 140.621 230.95 133.978 224.495 133.035C217.605 132.029 211.026 138.218 204.198 136.824C202.506 136.48 200.94 135.683 199.411 134.863C197.065 133.606 194.676 132.201 193.153 129.974C190.213 125.681 191.864 118.855 196.414 116.493C197.112 116.13 197.899 115.831 198.351 115.171C198.755 114.591 198.82 113.833 198.785 113.122C198.689 111.147 197.918 109.218 196.638 107.75C195.447 106.382 193.864 105.437 192.614 104.126C189.66 101.037 189.233 95.8929 191.134 92.1141C193.543 87.3327 196.61 85.1885 199.556 80.9329C202.732 76.3449 205.01 73.408 210.606 70.6998C213.107 69.4902 215.878 69.0107 218.619 68.6701C224.844 67.8964 232.887 68.3214 238.237 71.9994Z" fill="#0B0755"/>
<path d="M192.737 138.303C192.737 138.303 176.72 186.704 159.753 195.456L162.994 202.856C162.994 202.856 197.848 187.644 203.327 154.971L192.737 138.303Z" fill="#FB9391"/>
<path d="M211.083 356.069L207.642 337.73L218.134 336.68L221.87 357.979C221.87 357.979 213.49 359.1 211.083 356.069Z" fill="#FB9391"/>
<path d="M259.522 355.267L254.488 338.897L264.838 336.886L270.426 355.926C270.426 355.926 262.18 357.786 259.522 355.267Z" fill="#FB9391"/>
<path d="M198.863 91.2012C199.053 87.5981 199.264 83.9194 200.578 80.5796C205.607 67.7965 225.797 66.4903 234.487 75.3235C238.236 79.1352 241.19 84.5998 242.275 89.9211C243.576 96.2983 241.328 103.671 235.924 107.045C232.115 109.423 227.341 109.574 222.974 108.685C218.607 107.793 214.482 105.958 210.243 104.558C208.217 103.89 206.139 103.306 204.325 102.162C202.982 101.312 200.39 100.225 199.509 98.8742C198.252 96.9475 198.745 93.3756 198.863 91.2012Z" fill="#0B0755"/>
<path d="M210.012 246.012C209.302 248.441 229.15 320.765 257.092 350.428L267.189 342.975C267.189 342.975 243.075 255.31 255.063 231.785L210.012 246.012Z" fill="#060633"/>
<path d="M256.252 195.034C256.252 195.034 261.711 213.136 258.982 226.714C256.252 240.29 232.599 291.581 230.327 305.662C228.051 319.74 223.957 351.421 223.957 351.421H205.763C205.763 351.421 192.57 283.537 199.847 245.823L204.398 219.675L202.126 199.559L256.252 195.034Z" fill="#0B0755"/>
<path d="M221.545 355.093C221.545 355.093 217.564 356.724 211.166 355.808C211.166 355.808 193.088 362.587 193.668 367.436C193.668 367.436 192.85 368.876 201.153 368.597C209.455 368.318 222.358 368.042 222.7 367.875C223.047 367.705 226.209 365.816 221.545 355.093Z" fill="#060633"/>
<path d="M270.14 354.556C270.14 354.556 266.155 356.411 259.767 355.363C259.767 355.363 241.655 363.075 242.197 368.604C242.197 368.604 241.367 370.244 249.668 369.935C257.968 369.623 270.862 369.321 271.208 369.13C271.555 368.936 274.727 366.786 270.14 354.556Z" fill="#060633"/>
<path d="M251.696 159.084L259.739 199.436C259.739 199.436 230.601 213.014 197.657 204.339V159.084L184.154 154.102C184.154 154.102 192.056 131.175 197.657 127.027C203.258 122.878 223.045 116.466 240.102 122.124C257.159 127.781 269.439 145.884 269.439 145.884C269.439 145.884 262.043 159.391 254.88 162.596L251.696 159.084Z" fill="white"/>
<path d="M256.392 161.77C256.392 161.77 272.624 179.445 279.903 203.584L288.318 202.075C288.318 202.075 280.528 164.643 267.924 148.448C267.924 148.448 261.311 158.925 256.392 161.77Z" fill="#FB9391"/>
<path d="M198.487 89.9667C198.487 89.9667 197.361 87.5853 196.373 88.472C193.854 90.7275 196.176 93.95 197.774 94.7295L198.487 89.9667Z" fill="#EA6868"/>
<path d="M199.214 92.9928C199.214 81.1602 207.832 71.5696 218.462 71.5696C229.091 71.5696 237.707 81.1602 237.707 92.9928C237.707 104.825 229.091 114.416 218.462 114.416C207.832 114.416 199.214 104.825 199.214 92.9928Z" fill="#FB9391"/>
<path d="M229.65 112.2C227.644 114.193 226.909 117.195 227.631 119.972C228.25 122.819 231.265 123.771 231.265 123.771C231.148 127.472 215.855 134.792 211.725 125.44C212.985 125.313 215.41 123.74 215.327 121.131C214.616 118.634 212.778 116.656 210.397 115.797C208.41 115.08 206.419 114.089 204.455 112.847C192.765 105.442 199.605 88.6718 199.605 88.6718C199.605 88.6718 240.455 90.9441 235.1 103.752C233.615 107.308 231.767 110.103 229.65 112.2Z" fill="#FB9391"/>
<path d="M221.265 97.995C221.315 96.8598 222.248 95.979 223.349 96.0314C224.449 96.0838 225.3 97.0469 225.25 98.1822C225.2 99.3174 224.269 100.196 223.169 100.143C222.069 100.093 221.215 99.1303 221.265 97.995Z" fill="#060633"/>
<path d="M202.514 94.2773C202.564 93.142 203.496 92.2638 204.596 92.3138C205.696 92.3662 206.548 93.3277 206.498 94.463C206.445 95.6006 205.515 96.4788 204.413 96.4265C203.313 96.3741 202.461 95.4126 202.514 94.2773Z" fill="#060633"/>
<path d="M211.847 102.036C212.097 102.036 212.3 101.828 212.3 101.569C212.3 101.312 212.097 101.102 211.847 101.102C211.327 101.102 210.947 100.799 210.765 100.516C210.623 100.291 210.579 100.056 210.647 99.8867C210.768 99.6422 211.787 99.0007 212.83 98.5166C213.058 98.4125 213.162 98.1341 213.058 97.8993C212.956 97.6645 212.69 97.558 212.46 97.6645C211.763 97.9865 210.109 98.8143 209.817 99.5187C209.625 99.9786 209.698 100.543 210.01 101.029C210.407 101.651 211.112 102.036 211.847 102.036Z" fill="#EA6868"/>
<path d="M227.077 95.2959C227.273 95.2959 227.466 95.2105 227.602 95.0448C227.841 94.7461 227.803 94.3042 227.514 94.0556C225.571 92.3861 222.754 92.2003 222.636 92.1928C222.254 92.1752 221.938 92.4664 221.918 92.8531C221.898 93.2397 222.182 93.5711 222.556 93.5937C222.581 93.5937 225.051 93.7644 226.643 95.1327C226.771 95.2432 226.927 95.2959 227.077 95.2959Z" fill="#0B0755"/>
<path d="M202.384 91.0557C202.486 91.0557 202.591 91.0318 202.687 90.9816C204.552 90.0121 206.983 90.4324 207.007 90.4372C207.379 90.5064 207.73 90.2461 207.793 89.8664C207.857 89.4843 207.609 89.1213 207.238 89.0545C207.124 89.0354 204.337 88.5554 202.078 89.7279C201.744 89.9022 201.61 90.3225 201.777 90.6688C201.896 90.9148 202.135 91.0557 202.384 91.0557Z" fill="#0B0755"/>
<path d="M205.721 102.922C205.721 102.922 213.056 106.232 219.17 105.979C219.17 105.979 216.003 109.847 211.063 108.753C206.129 107.662 205.721 102.922 205.721 102.922Z" fill="white"/>
<path d="M234.294 102.037C233.762 102.184 230.136 95.3202 227.748 88.1525C225.366 80.9823 218.46 77.3998 218.46 77.3998C218.46 77.3998 204.529 79.7121 202.507 82.5195C200.488 85.327 198.816 91.0559 198.816 91.0559C198.816 91.0559 199.518 81.8015 204.503 76.7854C209.486 71.7668 217.226 68.0806 229.135 73.6099C241.044 79.1392 241.143 100.15 234.294 102.037Z" fill="#0B0755"/>
<path d="M232.674 100.732C233.044 100.043 233.663 99.5328 234.383 99.2727C235.866 98.7342 238.462 98.1957 240.148 100.1C242.619 102.894 237.099 109.735 232.102 105.971C232.102 105.971 230.697 104.384 232.674 100.732Z" fill="#FB9391"/>
<path d="M280.332 201.349C280.332 201.349 278.056 209.433 277.819 212.556C277.582 215.679 275.256 218.509 276.751 219.263C278.246 220.015 280.815 214.695 280.815 214.695C280.815 214.695 283.004 220.594 283.425 222.52C283.847 224.446 285.398 227.678 286.694 227.444C287.993 227.213 285.377 218.118 285.377 218.118C285.377 218.118 288.259 225.537 289.5 225.605C290.741 225.674 288.327 215.639 288.327 215.639C288.327 215.639 291.051 223.717 291.765 224.144C292.479 224.571 293.003 223.577 292.666 220.459C292.33 217.339 291.259 214.249 291.259 214.249C291.259 214.249 293.556 219.768 294.041 220.322C294.527 220.88 295.563 221.252 294.621 216.69C293.678 212.129 290.188 202.633 286.703 198.669L280.332 201.349Z" fill="#FB9391"/>
<path d="M174.277 189.721C174.14 180.81 166.444 173.685 157.087 173.808C147.73 173.933 140.253 181.256 140.391 190.167C140.528 199.079 148.223 206.204 157.583 206.081C166.94 205.957 174.414 198.633 174.277 189.721Z" fill="#00EC7E"/>
<path d="M154.779 202.856L154.735 199.683C152.974 199.676 151.144 199.138 150.071 198.367L150.77 196.252C151.873 196.99 153.461 197.564 155.159 197.54C157.315 197.51 158.755 196.201 158.729 194.409C158.704 192.682 157.506 191.63 155.245 190.72C152.132 189.508 150.198 188.09 150.158 185.358C150.124 182.751 151.887 180.745 154.672 180.234L154.629 177.061L156.509 177.035L156.553 180.081C158.376 180.118 159.627 180.603 160.515 181.126L159.786 183.21C159.142 182.841 157.887 182.168 155.944 182.196C153.606 182.228 152.748 183.686 152.766 184.944C152.789 186.576 153.922 187.377 156.581 188.471C159.726 189.745 161.328 191.356 161.367 194.151C161.402 196.635 159.765 198.982 156.645 199.56L156.692 202.829L154.779 202.856Z" fill="#5E00B9"/>
<path d="M158.138 207.025C158.138 207.025 158.062 199.104 156.722 198.909C155.382 198.711 153.755 204.771 153.737 204.669C153.719 204.567 154.138 197.961 152.437 197.189C150.737 196.417 149.247 203.48 149.247 203.48C149.247 203.48 150.188 197.333 148.993 196.856C147.797 196.379 146.115 202.144 145.625 202.037C145.137 201.929 147.041 197.087 145.584 196.444C144.13 195.8 141.122 202.526 142.246 203.768C143.373 205.013 145.046 204.42 145.046 204.42C145.046 204.42 147.193 206.346 148.79 205.976C148.79 205.976 152.602 207.622 153.696 206.42C153.696 206.42 156.115 208.834 158.138 207.025Z" fill="#FB9391"/>
</svg>
