<svg width="388" height="108" viewBox="0 0 388 108" fill="none" xmlns="http://www.w3.org/2000/svg">
<path d="M253.888 33.4995C257.522 31.6129 261.57 30.6652 265.663 30.7427C269.03 30.7125 272.366 31.3936 275.452 32.7415C278.537 34.0894 281.304 36.0738 283.57 38.5646L284.89 39.9495L298.778 27.1373L297.546 25.7199C293.685 21.2766 288.831 17.806 283.378 15.5899C277.477 13.2307 271.169 12.0576 264.815 12.1374C257.157 12.0303 249.592 13.8112 242.786 17.3227C236.403 20.6265 231.062 25.6383 227.36 31.7993C223.72 38.1612 221.805 45.3636 221.805 52.6933C221.805 60.023 223.72 67.2255 227.36 73.5873C231.039 79.7267 236.336 84.7352 242.672 88.064C249.403 91.5797 256.903 93.3671 264.496 93.2655C270.151 93.2527 275.772 92.3969 281.174 90.7265C286.46 89.1543 291.43 86.6688 295.858 83.3825L296.635 82.8007L293.173 53.0574H276.951V72.2154C273.348 73.8812 269.418 74.7188 265.449 74.6667C261.409 74.7394 257.417 73.7757 253.856 71.8676C250.569 70.0709 247.852 67.3879 246.014 64.1238C244.151 60.5886 243.177 56.6524 243.177 52.656C243.177 48.6596 244.151 44.7233 246.014 41.188C247.851 37.9256 250.583 35.2575 253.888 33.4995Z" fill="white"/>
<path d="M382.148 31.9003C378.43 25.7672 373.125 20.7512 366.794 17.3814C360.024 13.9326 352.534 12.1348 344.937 12.1348C337.34 12.1348 329.85 13.9326 323.081 17.3814C316.73 20.7289 311.417 25.7526 307.72 31.9068C304.08 38.2305 302.165 45.3989 302.165 52.6952C302.165 59.9915 304.08 67.1599 307.72 73.4836C311.418 79.6388 316.73 84.6643 323.081 88.0155C329.85 91.4643 337.34 93.2622 344.937 93.2622C352.534 93.2622 360.024 91.4643 366.794 88.0155C371.542 85.3964 375.717 81.8516 379.072 77.5907C382.427 73.3298 384.893 68.4393 386.324 63.2086C387.756 57.9779 388.124 52.5133 387.407 47.1379C386.689 41.7625 384.901 36.5855 382.148 31.9133V31.9003ZM333.972 33.5258C337.346 31.6991 341.123 30.7425 344.96 30.7425C348.797 30.7425 352.574 31.6991 355.948 33.5258C359.164 35.3495 361.81 38.0304 363.591 41.2697C365.429 44.7989 366.389 48.7194 366.389 52.6985C366.389 56.6776 365.429 60.5981 363.591 64.1273C361.808 67.3653 359.163 70.0458 355.948 71.8711C352.574 73.6978 348.797 74.6544 344.96 74.6544C341.123 74.6544 337.346 73.6978 333.972 71.8711C330.759 70.0437 328.114 67.3638 326.328 64.1273C324.491 60.5981 323.531 56.6776 323.531 52.6985C323.531 48.7194 324.491 44.7989 326.328 41.2697C328.114 38.0337 330.76 35.3556 333.975 33.5323L333.972 33.5258Z" fill="white"/>
<path d="M296.669 49.5228V82.647L280.089 66.0897L263.528 49.5098L296.669 49.5228Z" fill="#00EC7E"/>
<path d="M47.1749 27.6582C42.3968 25.034 37.0212 23.69 31.5703 23.757C26.7539 23.687 21.9954 24.813 17.7211 27.034C14.7858 28.5945 12.183 30.7125 10.0585 33.2693V24.1992L0 32.3493V107.271H10.4032V76.9202C12.5437 79.4287 15.1517 81.4968 18.082 83.0094C22.2667 85.1134 26.8966 86.1783 31.58 86.114C37.0527 86.1992 42.4528 84.8545 47.2465 82.2129C51.8556 79.6249 55.6459 75.7951 58.1861 71.1595C60.7886 66.1492 62.1472 60.5863 62.1472 54.9404C62.1472 49.2945 60.7886 43.7315 58.1861 38.7212C55.6247 34.0748 51.8093 30.2415 47.1749 27.6582ZM31.0111 33.1361C34.7222 33.0927 38.3776 34.0411 41.5995 35.8832C44.7375 37.694 47.3105 40.3412 49.0313 43.5294C50.877 47.0186 51.8077 50.919 51.7361 54.8656C51.8036 58.8326 50.8735 62.753 49.0313 66.2669C47.3332 69.467 44.7573 72.1162 41.6061 73.9034C38.346 75.6741 34.695 76.6016 30.9851 76.6016C27.2752 76.6016 23.6242 75.6741 20.3642 73.9034C17.2336 72.101 14.6764 69.4503 12.9877 66.257C11.1446 62.7434 10.2145 58.8229 10.2828 54.8559C10.2094 50.909 11.1402 47.0083 12.9877 43.5197C14.6974 40.3379 17.2522 37.6897 20.3706 35.8669C23.6144 34.025 27.291 33.0822 31.0208 33.1361H31.0111Z" fill="white"/>
<path d="M70.3313 8.15021L80.7344 0V85.5463H70.3313V8.15021Z" fill="white"/>
<path d="M112.643 86.1274C106.749 86.4228 100.936 84.6661 96.1926 81.1567C94.1741 79.5708 92.5552 77.5341 91.4656 75.2098C90.376 72.8855 89.8461 70.3383 89.9182 67.7724C89.8434 65.2971 90.3329 62.8373 91.3495 60.5792C92.3662 58.3211 93.8834 56.324 95.7862 54.7392C99.6126 51.4882 105.698 49.8627 113.881 49.8627H131.365V47.483C131.505 45.5274 131.233 43.5643 130.566 41.7206C129.899 39.877 128.852 38.1941 127.493 36.7808C124.228 34.1415 120.081 32.8433 115.894 33.1494C112.372 33.1393 108.875 33.741 105.559 34.9277C102.459 36.0062 99.5913 37.6607 97.1061 39.8042L96.0073 40.7795L95.77 40.3601V29.2255C98.0731 27.8399 100.526 26.7198 103.081 25.8867C107.47 24.4518 112.06 23.7307 116.677 23.7508C123.408 23.324 130.045 25.5071 135.208 29.8464C137.496 32.2199 139.26 35.0475 140.386 38.1461C141.513 41.2447 141.976 44.5452 141.745 47.8341V85.565H131.69V78.8745C129.95 80.7612 127.871 82.305 125.562 83.4258C121.521 85.3084 117.1 86.2329 112.643 86.1274ZM114.109 58.2112C104.759 58.2112 100.211 61.2542 100.211 67.5188C100.149 68.9016 100.43 70.2782 101.029 71.526C101.628 72.7739 102.526 73.8543 103.644 74.6709C106.671 76.6649 110.264 77.621 113.881 77.3953C117.709 77.503 121.486 76.5004 124.756 74.5084C127.747 72.5498 130.054 69.7095 131.358 66.3809V58.2112H114.109Z" fill="white"/>
<path d="M205.056 30.5394C202.582 28.2302 199.672 26.4399 196.495 25.274C193.319 24.1082 189.941 23.5904 186.561 23.7513C181.73 23.6558 176.948 24.7206 172.614 26.8561C169.859 28.2556 167.401 30.1767 165.377 32.5127V24.2L155.319 32.3502V85.5558H165.722V53.4263C165.567 50.7427 165.948 48.0552 166.841 45.5197C167.733 42.9843 169.121 40.6516 170.924 38.6571C172.801 36.8512 175.029 35.45 177.47 34.5401C179.911 33.6303 182.513 33.2313 185.114 33.3678C187.346 33.2218 189.585 33.5405 191.688 34.3037C193.791 35.067 195.712 36.2583 197.331 37.8021C200.4 41.47 201.925 46.1854 201.587 50.9556V85.5558H211.99V50.1754C212.227 46.6031 211.734 43.02 210.542 39.6442C209.35 36.2684 207.483 33.1706 205.056 30.5394Z" fill="white"/>
</svg>
