<svg width="15" height="15" viewBox="0 0 15 15" fill="none" xmlns="http://www.w3.org/2000/svg">
<path d="M7.49959 14.9991C6.01623 14.9991 4.56597 14.559 3.3326 13.7349C2.09923 12.9108 1.13854 11.7396 0.570881 10.3692C0.00322348 8.99874 -0.145266 7.49055 0.144123 6.03569C0.433512 4.58084 1.14699 3.24474 2.19588 2.19585C3.24477 1.14696 4.58184 0.432505 6.0367 0.143116C7.49156 -0.146273 8.99926 0.0022164 10.3697 0.569874C11.7402 1.13753 12.9118 2.09871 13.7359 3.33208C14.56 4.56545 14.9996 6.01571 14.9996 7.49907C14.9975 9.48755 14.2064 11.3938 12.8004 12.7999C11.3943 14.2059 9.48807 14.997 7.49959 14.9991ZM7.49959 0.999073C6.21401 0.999073 4.95718 1.38006 3.88826 2.09429C2.81934 2.80852 1.98668 3.82405 1.49471 5.01177C1.00274 6.19949 0.873788 7.50626 1.12459 8.76714C1.3754 10.028 1.99387 11.1862 2.90291 12.0953C3.81195 13.0043 4.97016 13.6233 6.23104 13.8741C7.49191 14.1249 8.79918 13.9964 9.9869 13.5044C11.1746 13.0125 12.1897 12.1793 12.9039 11.1104C13.6181 10.0415 13.9996 8.78465 13.9996 7.49907C13.9972 5.7759 13.3118 4.12379 12.0933 2.90532C10.8749 1.68685 9.22277 1.00145 7.49959 0.999073Z" fill="#5E00B9"/>
<path d="M7 11.499V7.99899H3.5V6.99899H7V3.49899H8V6.99899H11.5V7.99899H8V11.499H7Z" fill="#5E00B9"/>
</svg>
