<svg width="484" height="473" viewBox="0 0 484 473" fill="none" xmlns="http://www.w3.org/2000/svg">
<path d="M134.039 173.924C134.481 174.074 133.89 173.52 134.86 173.386C136.898 173.102 139.793 173.812 141.711 173.943C146.84 174.303 152.326 175.056 157.24 176.498C177.914 182.576 197.11 196.876 207.705 215.952C210.591 221.16 212.695 226.881 214.238 232.74C215.414 237.212 216.262 241.764 216.88 246.23C217.19 248.481 217.484 250.75 217.838 252.991C217.932 253.587 218.478 254.961 218.234 255.523C215.65 261.593 209.31 266.143 204.185 269.771C197.197 274.724 186.649 277.684 178.496 279.92C161.082 270.389 149.522 270.389 138.458 269.105C130.172 265.972 124.828 265.365 122.448 257.606C116.78 239.117 114.413 219.621 119.283 200.574C121.239 192.924 124.361 185.335 128.733 178.751C129.736 177.236 131.84 173.175 134.039 173.924Z" fill="#EF3975"/>
<path fill-rule="evenodd" clip-rule="evenodd" d="M209.588 261.993C210.106 262.13 210.637 261.822 210.775 261.304C212.17 256.043 212.443 249.724 211.615 243.656C210.788 237.595 208.85 231.695 205.744 227.314C205.434 226.878 204.829 226.774 204.392 227.084C203.955 227.394 203.852 227.999 204.161 228.436C207.032 232.485 208.893 238.057 209.693 243.919C210.492 249.774 210.219 255.831 208.9 260.807C208.762 261.324 209.071 261.855 209.588 261.993Z" fill="#FF568E"/>
<path fill-rule="evenodd" clip-rule="evenodd" d="M202.775 268.06C203.236 268.333 203.831 268.18 204.103 267.719C206.374 263.878 206.692 258.744 206.409 253.811C206.266 251.323 205.967 248.838 205.66 246.532C205.58 245.931 205.5 245.343 205.422 244.771C205.371 244.4 205.321 244.036 205.273 243.679C205.293 243.587 205.299 243.491 205.29 243.392C205.256 243.013 205.202 242.644 205.149 242.3C205.14 242.241 205.131 242.183 205.122 242.126C205.077 241.84 205.036 241.572 205.003 241.301L205.002 241.295C204.98 241.121 204.935 240.775 204.9 240.513C204.882 240.387 204.866 240.267 204.855 240.199C204.852 240.184 204.847 240.154 204.841 240.124C204.839 240.115 204.836 240.1 204.831 240.082L204.831 240.081C204.828 240.07 204.817 240.027 204.798 239.975C204.789 239.954 204.764 239.889 204.718 239.813C204.696 239.776 204.648 239.703 204.571 239.627C204.501 239.558 204.332 239.411 204.06 239.363C203.737 239.305 203.453 239.418 203.267 239.574C203.112 239.704 203.038 239.848 203.01 239.91C202.952 240.035 202.935 240.143 202.931 240.169L202.931 240.17C202.92 240.239 202.92 240.296 202.92 240.308L202.92 240.31C202.919 240.331 202.92 240.348 202.92 240.358C202.921 240.378 202.922 240.396 202.923 240.407C202.924 240.43 202.927 240.455 202.929 240.479L202.929 240.483C203.066 241.86 203.279 243.418 203.504 245.065C203.581 245.63 203.66 246.206 203.737 246.788C204.042 249.082 204.334 251.509 204.472 253.922C204.751 258.79 204.392 263.419 202.433 266.732C202.161 267.193 202.314 267.788 202.775 268.06Z" fill="#FF568E"/>
<path d="M53.2691 456.143C59.6168 456.143 207.293 456.143 211.588 456.143C215.879 456.143 230.442 439.713 226.151 439.713C221.856 439.713 40.7814 439.713 37.9599 439.713C32.7325 439.713 46.9215 456.143 53.2691 456.143Z" fill="#E6E6E6"/>
<path fill-rule="evenodd" clip-rule="evenodd" d="M48.5573 449.211C48.7367 449.331 48.9474 449.395 49.163 449.395H214.949C215.177 449.395 215.399 449.323 215.584 449.191L226.23 441.573C226.721 441.222 226.834 440.54 226.483 440.049C226.132 439.559 225.45 439.446 224.96 439.797L214.599 447.211H49.4937L38.5669 439.925C38.0651 439.591 37.3872 439.727 37.0527 440.228C36.7181 440.73 36.8537 441.408 37.3554 441.742L48.5573 449.211Z" fill="white"/>
<path d="M93.2345 431.186C44.6464 408.9 34.7738 401.238 34.7738 401.238C30.112 395.742 20.0304 384.874 15.5886 379.608C15.5886 379.608 3.07966 411.99 12.3609 424.875C20.2499 435.819 75.3621 442.414 85.2166 442.112C85.2166 442.112 103.736 432.354 93.2345 431.186Z" fill="#FFA985"/>
<path d="M244.968 382.336C244.968 382.336 259.353 417.51 248.914 429.477C240.04 439.643 201.718 438.576 175.498 439.792C168.141 439.075 162.222 430.158 177.994 424.316C190.446 421.885 227.254 405.492 227.254 405.492L244.968 382.336Z" fill="#FFA985"/>
<path fill-rule="evenodd" clip-rule="evenodd" d="M24.9988 407.136C25.3796 407.508 25.99 407.501 26.3622 407.12C27.6875 405.764 29.6437 404.827 31.6065 404.25C31.6097 404.249 31.619 404.247 31.6368 404.243C31.6554 404.238 31.6834 404.232 31.7235 404.223L31.7311 404.221C31.8142 404.202 31.926 404.176 32.0555 404.146C32.3217 404.083 32.6683 403.999 33.0101 403.908C33.3443 403.818 33.7039 403.714 33.9833 403.608C34.113 403.558 34.283 403.488 34.431 403.393C34.4969 403.351 34.6361 403.256 34.7533 403.097C34.8841 402.92 35.0687 402.529 34.8664 402.079L34.8663 402.079C34.4493 401.153 33.5631 400.795 32.9109 400.614C32.5683 400.519 32.212 400.453 31.9074 400.397L31.8994 400.395C31.5809 400.337 31.3213 400.289 31.0947 400.227L31.0932 400.227C30.0855 399.955 29.4038 399.754 28.9134 399.606C28.8152 399.576 28.7225 399.548 28.6348 399.522C28.3001 399.42 28.0377 399.34 27.8175 399.286C27.2483 399.147 26.8584 399.157 26.0692 399.18C25.9605 399.183 25.8442 399.186 25.7189 399.189C25.1866 399.202 24.7658 399.645 24.779 400.177C24.7923 400.709 25.2345 401.13 25.7669 401.117C25.8688 401.114 25.9625 401.112 26.0489 401.11C26.945 401.087 27.0525 401.084 27.3578 401.159C27.5227 401.199 27.7175 401.259 28.0387 401.356C28.133 401.385 28.2383 401.417 28.3569 401.452C28.8615 401.604 29.5613 401.811 30.5903 402.088C30.5905 402.088 30.5907 402.088 30.591 402.088L30.8421 401.158L30.5895 402.088C30.5897 402.088 30.59 402.088 30.5903 402.088C30.8952 402.171 31.2243 402.232 31.5121 402.285C31.5181 402.286 31.5242 402.287 31.5302 402.288C31.5582 402.282 31.5865 402.275 31.6146 402.268C31.8723 402.208 32.1972 402.129 32.5116 402.045C32.8336 401.959 33.115 401.875 33.2987 401.805C33.3731 401.777 33.4022 401.762 33.4024 401.762C33.4025 401.762 33.3986 401.764 33.3917 401.769C33.3916 401.769 33.3914 401.769 33.3911 401.769C33.3814 401.775 33.2899 401.833 33.2015 401.953C33.0968 402.095 32.9195 402.452 33.1079 402.871L33.9872 402.475L33.108 402.871C33.0628 402.771 32.926 402.619 32.396 402.472C32.1476 402.404 31.873 402.351 31.5571 402.293C31.5481 402.291 31.5392 402.29 31.5302 402.288C31.4712 402.302 31.4131 402.315 31.3593 402.328C31.2329 402.357 31.1304 402.38 31.0962 402.39C31.091 402.391 31.0857 402.393 31.0805 402.394C28.9505 403.019 26.635 404.082 24.9831 405.772C24.6109 406.153 24.6179 406.763 24.9988 407.136Z" fill="#E88E67"/>
<path fill-rule="evenodd" clip-rule="evenodd" d="M233.308 406.066C233.471 406.034 233.6 406.008 233.678 405.995L233.681 405.994L233.681 405.994C236.982 405.428 240.727 404.922 243.971 405.118C244.502 405.151 244.959 404.746 244.992 404.214C245.024 403.683 244.619 403.226 244.087 403.194C240.605 402.983 236.672 403.525 233.356 404.094C233.194 404.121 233.006 404.158 232.797 404.2C232.658 404.228 232.509 404.258 232.352 404.287C232.76 403.971 233.136 403.625 233.475 403.312C233.551 403.242 233.624 403.174 233.696 403.109C234.241 402.612 234.711 402.218 235.228 401.964C235.706 401.729 235.903 401.151 235.668 400.673C235.433 400.195 234.855 399.998 234.377 400.233C233.591 400.62 232.946 401.183 232.396 401.685C232.312 401.761 232.231 401.836 232.151 401.909C231.688 402.335 231.289 402.702 230.846 402.999C230.838 403.003 230.812 403.017 230.756 403.045C230.714 403.066 230.67 403.088 230.619 403.113C230.576 403.135 230.527 403.159 230.472 403.186C230.248 403.298 229.959 403.446 229.685 403.604C229.428 403.752 229.112 403.95 228.88 404.171C228.775 404.272 228.588 404.467 228.492 404.749C228.438 404.907 228.404 405.118 228.456 405.354C228.509 405.595 228.636 405.785 228.779 405.92M230.202 405.576C230.203 405.576 230.206 405.573 230.212 405.566C230.205 405.573 230.202 405.576 230.202 405.576ZM233.308 406.066C232.866 406.153 232.173 406.291 231.55 406.368L233.308 406.066ZM231.55 406.368C231.106 406.423 230.621 406.46 230.181 406.432L231.55 406.368ZM230.181 406.432C229.798 406.407 229.206 406.322 228.78 405.92L230.181 406.432Z" fill="#E88E67"/>
<path fill-rule="evenodd" clip-rule="evenodd" d="M185.623 421.535C185.84 422.098 186.472 422.378 187.035 422.161L227.646 406.51C227.826 406.441 227.983 406.326 228.104 406.177L227.254 405.491C228.104 406.177 228.104 406.177 228.104 406.176L228.163 406.104C228.202 406.055 228.259 405.984 228.334 405.891C228.484 405.704 228.704 405.43 228.985 405.078C229.547 404.376 230.352 403.366 231.328 402.136C233.278 399.675 235.907 396.329 238.621 392.794C241.335 389.26 244.139 385.529 246.437 382.298C248.711 379.102 250.558 376.303 251.289 374.673C251.328 374.586 251.356 374.495 251.371 374.401C251.424 374.072 251.381 373.708 251.328 373.404C251.269 373.07 251.172 372.679 251.046 372.242C250.792 371.368 250.397 370.244 249.872 368.913C248.821 366.246 247.224 362.684 245.119 358.496C240.907 350.118 234.642 339.195 226.593 327.861C210.525 305.234 187.22 280.789 158.82 271.91L158.811 271.907C151.078 269.564 139.704 268.679 131.407 268.701C116.327 268.741 97.1727 273.728 84.637 281.828C48.0806 305.451 22.5226 344.963 12.2308 373.315C12.1753 373.468 12.1547 373.631 12.1704 373.793C12.2812 374.935 12.7546 376.216 13.4169 377.533C14.0871 378.867 14.9904 380.315 16.0336 381.808C18.1204 384.796 20.8187 388.039 23.4748 391.024C26.1343 394.013 28.7684 396.761 30.7363 398.762C31.7207 399.762 32.5394 400.576 33.1125 401.141C33.3991 401.423 33.6244 401.643 33.7784 401.793C33.8553 401.868 33.9145 401.925 33.9546 401.964L34.0003 402.008L34.0152 402.023L34.016 402.023C34.0162 402.024 34.0164 402.024 34.7733 401.237L34.0164 402.024C34.0715 402.077 34.1319 402.124 34.1968 402.164L56.9511 416.308C57.4633 416.626 58.1365 416.469 58.4549 415.957C58.7732 415.445 58.6161 414.772 58.104 414.453L35.4483 400.371C35.4113 400.335 35.3619 400.287 35.301 400.228C35.1502 400.081 34.9282 399.864 34.6452 399.585C34.0789 399.027 33.2683 398.221 32.2929 397.23C30.3413 395.246 27.734 392.526 25.1062 389.573C22.475 386.616 19.8403 383.445 17.824 380.558C16.8156 379.114 15.9749 377.76 15.3681 376.553C14.8145 375.451 14.4864 374.532 14.3736 373.813C24.5949 345.835 49.8473 306.909 85.8222 283.662C97.9571 275.821 116.689 270.924 131.413 270.884C139.627 270.863 150.746 271.747 158.173 273.996C185.875 282.658 208.829 306.618 224.813 329.126C232.791 340.36 239.001 351.188 243.168 359.477C245.251 363.622 246.819 367.123 247.841 369.714C248.352 371.011 248.721 372.065 248.949 372.851C249.063 373.244 249.137 373.554 249.177 373.782C249.192 373.867 249.2 373.931 249.205 373.977C248.514 375.415 246.854 377.945 244.658 381.032C242.382 384.231 239.596 387.938 236.889 391.464C234.183 394.988 231.562 398.324 229.616 400.779C228.643 402.007 227.84 403.014 227.28 403.714C227 404.064 226.78 404.337 226.631 404.523C226.616 404.542 226.601 404.561 226.587 404.578L186.249 420.123C185.687 420.34 185.406 420.972 185.623 421.535Z" fill="#7492FE"/>
<path fill-rule="evenodd" clip-rule="evenodd" d="M144.551 295.509C137.038 299.047 128.895 298.938 121.67 294.515C116.95 291.625 114.705 285.965 116.232 280.511C116.31 280.235 116.383 279.914 116.454 279.605C116.461 279.575 116.468 279.545 116.475 279.515C116.555 279.167 116.636 278.82 116.73 278.487C116.933 277.769 117.143 277.325 117.334 277.13C117.756 276.699 117.749 276.008 117.318 275.586C116.887 275.164 116.196 275.171 115.774 275.601C115.159 276.229 114.834 277.166 114.629 277.894C114.518 278.285 114.427 278.678 114.347 279.026C114.341 279.052 114.335 279.078 114.329 279.104C114.254 279.429 114.192 279.698 114.129 279.923C112.34 286.311 114.972 292.974 120.53 296.377C128.435 301.217 137.361 301.308 145.481 297.485M145.481 297.485C149.424 295.629 152.549 291.712 154.532 287.574C156.511 283.446 157.473 278.847 156.83 275.463C156.717 274.87 156.146 274.482 155.553 274.594C154.961 274.707 154.572 275.278 154.685 275.871C155.208 278.625 154.431 282.731 152.563 286.63C150.699 290.518 147.87 293.947 144.551 295.509" fill="#7492FE"/>
<path d="M214.948 446.435C212.211 446.435 51.9004 446.435 49.1623 446.435C46.4241 446.435 33.2295 348.735 37.9604 343.772C42.6916 338.809 221.42 337.427 226.151 343.772C230.879 350.117 217.685 446.435 214.948 446.435Z" fill="#E6E6E6"/>
<path fill-rule="evenodd" clip-rule="evenodd" d="M215.555 445.548C216.136 445.709 216.738 445.369 216.9 444.788C219.962 433.777 223.548 409.861 225.866 388.082C227.027 377.179 227.874 366.777 228.179 358.753C228.331 354.744 228.349 351.307 228.2 348.689C228.125 347.381 228.007 346.253 227.837 345.349C227.675 344.491 227.438 343.672 227.027 343.121L227.027 343.12C226.679 342.653 226.097 342.372 225.601 342.181C225.049 341.969 224.351 341.779 223.54 341.605C221.913 341.256 219.703 340.943 217.015 340.662C211.63 340.098 204.214 339.65 195.459 339.307C177.942 338.621 154.993 338.354 132.052 338.441C109.111 338.527 86.1639 338.967 68.651 339.696C59.897 340.06 52.487 340.498 47.11 341.001C44.4245 341.252 42.2245 341.521 40.6097 341.811C39.8047 341.955 39.1187 342.108 38.5803 342.275C38.3111 342.359 38.0578 342.452 37.8356 342.559C37.6269 342.659 37.3759 342.804 37.1707 343.02C36.7546 343.456 36.7711 344.147 37.2076 344.563C37.632 344.968 38.297 344.963 38.716 344.562C38.7275 344.555 38.7486 344.543 38.7822 344.527C38.8752 344.482 39.0193 344.426 39.2272 344.361C39.6429 344.232 40.2297 344.097 40.9947 343.96C42.5202 343.687 44.6497 343.424 47.3134 343.175C52.6346 342.677 60.001 342.242 68.7419 341.878C86.219 341.15 109.137 340.711 132.06 340.624C154.985 340.538 177.9 340.805 195.373 341.489C204.113 341.832 211.474 342.278 216.787 342.834C219.448 343.112 221.568 343.415 223.081 343.74C223.84 343.903 224.415 344.065 224.817 344.22C225.169 344.355 225.283 344.446 225.292 344.448C225.386 344.592 225.544 344.979 225.691 345.754C225.837 346.528 225.948 347.553 226.019 348.813C226.163 351.331 226.148 354.69 225.997 358.67C225.694 366.625 224.853 376.974 223.695 387.851C221.376 409.63 217.805 433.384 214.796 444.203C214.634 444.784 214.974 445.386 215.555 445.548Z" fill="white"/>
<path d="M128.189 408.695C131.481 410.216 135.491 409.659 138.611 407.81C140.654 406.598 142.383 404.862 143.585 402.813C143.981 402.136 144.329 401.397 144.339 400.611C144.351 399.665 143.609 398.937 143.225 398.07C140.473 391.865 135.323 390.94 126.385 395.264C120.783 397.976 123.297 406.434 128.189 408.695Z" fill="white"/>
<path d="M159.412 253.431C158.827 257.137 156.175 260.953 154.416 265.746C153.648 267.84 153.049 270.122 152.868 272.662C152.274 281.015 152.226 294.447 132.627 293.394C112.657 292.32 120.654 275.27 120.654 275.27C120.654 275.27 128.928 257.694 131.521 252.28C132.746 249.721 135.199 246.652 137.691 244.845C138.889 243.976 141.077 245.239 142.23 245.654C146.221 247.082 149.957 248.964 153.407 251.169C154.768 252.037 159.601 252.229 159.412 253.431Z" fill="#FFA985"/>
<path d="M154.417 265.745C156.175 260.952 158.826 257.135 159.411 253.43C159.438 253.257 159.359 253.106 159.203 252.969C157.452 252.616 155.496 252.307 154.811 251.871C154.631 251.755 154.446 251.645 154.264 251.531C153.915 251.422 153.619 251.304 153.406 251.168C151.95 250.237 150.439 249.368 148.883 248.562C147.186 247.743 145.437 247.001 143.634 246.355C142.481 245.941 140.293 244.677 139.095 245.546C136.814 247.201 147.773 263.715 154.417 265.745Z" fill="#E88E67"/>
<path d="M185.081 194.608C185.081 194.608 186.461 198.04 187.152 199.758C188.499 203.106 189.001 207.405 188.586 210.972C188.099 215.114 186.504 216.741 186.453 220.937C186.417 223.812 188.39 229.169 188.288 232.019C188.022 239.427 185.42 246.332 181.241 252.434C178.879 255.884 176.077 258.995 171.959 260.32C168.691 261.371 164.941 260.561 161.655 260.192C152.454 259.163 143.672 254.861 136.707 248.864C132.563 245.295 130.276 239.452 128.792 234.346C127.536 230.021 127.387 225.603 127.375 221.119C127.347 206.782 131.074 190.073 145.223 183.539C147.833 182.335 150.328 181.221 153.249 181.042C159.826 180.642 170.764 182.273 175.997 186.91C178.111 188.78 181.019 190.582 182.781 192.846C183.16 193.326 184.648 194.782 185.081 194.608Z" fill="#FFA985"/>
<path d="M132.949 173.013C138.981 156.089 173.443 170.96 179.879 175.364C192.971 184.325 206.187 201.37 210.613 216.748C213.171 225.647 214.238 232.738 214.238 232.738C211.654 225.37 198.536 211.445 191.872 205.956C182.343 198.109 169.174 197.031 157.736 193.177C149.47 190.393 146.402 187.677 142.266 183.557C138.955 180.26 132.949 173.013 132.949 173.013Z" fill="#FF568E"/>
<path fill-rule="evenodd" clip-rule="evenodd" d="M218.173 225.141C218.67 224.94 218.91 224.375 218.709 223.878C216.406 218.186 210.735 212.495 206.134 208.931L206.134 208.93C193.446 199.115 180.238 193.038 164.691 189.053L164.69 189.053C158.634 187.503 152.67 185.94 147.119 183.266L147.119 183.266C146.933 183.176 146.747 183.088 146.56 183.001C150.955 184.038 155.461 184.602 159.873 185.114L159.874 185.114C171.303 186.433 181.201 188.001 191.346 194.123C192.72 194.954 195.278 197.17 197.709 199.383C199.079 200.631 200.411 201.879 201.397 202.804C202.11 203.473 202.643 203.972 202.88 204.181C203.283 204.534 203.895 204.494 204.249 204.092C204.602 203.689 204.563 203.077 204.16 202.723C203.924 202.516 203.423 202.045 202.742 201.406C201.778 200.502 200.455 199.259 199.015 197.949C196.63 195.777 193.92 193.413 192.349 192.463L192.349 192.463C181.82 186.109 171.558 184.51 160.097 183.187C154.411 182.528 148.746 181.797 143.389 180.131C143.167 180.061 142.8 179.981 142.429 179.9C142.389 179.891 142.348 179.882 142.307 179.874C141.866 179.777 141.366 179.665 140.883 179.536C140.814 179.517 140.747 179.498 140.68 179.479C140.451 179.331 140.226 179.193 140.02 179.069C139.965 179.036 139.879 178.977 139.747 178.888L139.742 178.884C139.62 178.801 139.468 178.698 139.327 178.611C139.256 178.568 139.176 178.521 139.095 178.479C139.027 178.445 138.9 178.384 138.749 178.349C138.677 178.332 138.528 178.304 138.346 178.331C138.142 178.362 137.851 178.474 137.655 178.772C137.478 179.041 137.481 179.31 137.495 179.441C137.51 179.579 137.549 179.69 137.576 179.756C137.712 180.094 137.954 180.329 138.155 180.483C138.365 180.644 138.604 180.774 138.836 180.881C139.146 181.024 139.497 181.148 139.853 181.258C140.138 181.451 140.406 181.649 140.632 181.849L140.634 181.85C141.964 183.021 143.767 183.852 145.292 184.553C145.638 184.712 145.969 184.865 146.278 185.013C152.028 187.784 158.174 189.388 164.209 190.932C179.53 194.859 192.491 200.829 204.947 210.465C209.46 213.961 214.802 219.393 216.91 224.605C217.111 225.102 217.677 225.342 218.173 225.141ZM138.206 180.204C138.206 180.204 138.208 180.205 138.213 180.207C138.208 180.205 138.206 180.204 138.206 180.204ZM139.313 178.925C139.311 178.923 139.31 178.921 139.31 178.921C139.31 178.921 139.311 178.923 139.313 178.925Z" fill="#EF3975"/>
<path d="M132.95 173.015C130.129 171.297 126.261 171.293 123.333 172.691C116.248 176.065 110.396 185.193 108.236 190.234C100.888 207.392 98.1487 226.879 96.2982 245.26C95.7224 250.967 94.4307 257.079 94.3961 262.735C94.3907 263.584 110.439 270.904 119.951 272.185C141.803 274.256 147.773 271.282 147.773 271.282C145.767 265.687 140.781 240.592 140.051 229.638C139.038 214.442 145.138 203.821 144.192 188.578C143.872 183.414 141.41 180.596 137.774 177.252C136.998 176.535 133.637 173.434 132.95 173.015Z" fill="#FF568E"/>
<path fill-rule="evenodd" clip-rule="evenodd" d="M104.273 253.57C104.809 253.556 105.232 253.111 105.218 252.576C104.6 228.103 107.412 203.951 121.537 183.565C121.842 183.124 121.732 182.52 121.292 182.215C120.852 181.91 120.247 182.02 119.942 182.46C105.465 203.355 102.658 228.011 103.279 252.625C103.293 253.16 103.738 253.584 104.273 253.57Z" fill="#EF3975"/>
<path fill-rule="evenodd" clip-rule="evenodd" d="M112.218 259.829C112.752 259.798 113.16 259.339 113.129 258.804C111.89 237.86 113.519 218.587 123.047 199.188C123.283 198.707 123.085 198.126 122.604 197.89C122.123 197.654 121.542 197.852 121.306 198.333C111.574 218.148 109.943 237.797 111.192 258.918C111.224 259.453 111.683 259.861 112.218 259.829Z" fill="#EF3975"/>
<path fill-rule="evenodd" clip-rule="evenodd" d="M135.631 266.915C136.147 266.772 136.45 266.237 136.306 265.721C136.027 264.713 135.746 263.705 135.465 262.697C132.996 253.845 130.519 244.967 129.245 235.946L129.245 235.946C129.103 234.943 128.848 232.452 128.768 230.058C128.728 228.86 128.733 227.713 128.813 226.801C128.853 226.343 128.909 225.97 128.979 225.69C129.043 225.436 129.099 225.333 129.111 225.312C129.113 225.308 129.114 225.307 129.112 225.309C129.462 224.904 129.417 224.291 129.011 223.941C128.606 223.591 127.993 223.636 127.643 224.042C127.35 224.381 127.194 224.831 127.097 225.22C126.993 225.637 126.925 226.121 126.88 226.632C126.791 227.657 126.788 228.892 126.829 230.123C126.911 232.587 127.173 235.147 127.325 236.218C128.617 245.373 131.13 254.379 133.594 263.212C133.877 264.223 134.158 265.232 134.437 266.239C134.58 266.755 135.115 267.058 135.631 266.915Z" fill="#EF3975"/>
<path fill-rule="evenodd" clip-rule="evenodd" d="M122.211 255.244C122.728 255.101 123.03 254.566 122.887 254.05C121.637 249.537 121.435 244.837 121.23 240.058C121.222 239.86 121.213 239.661 121.205 239.462L121.205 239.462C121.179 238.862 121.127 238.234 121.076 237.616L121.071 237.555C121.017 236.91 120.966 236.272 120.939 235.644C120.885 234.374 120.94 233.238 121.246 232.304C121.413 231.795 121.136 231.247 120.627 231.081C120.118 230.914 119.57 231.191 119.403 231.7C118.986 232.973 118.944 234.394 119.001 235.726C119.029 236.399 119.085 237.074 119.137 237.714L119.141 237.759C119.193 238.39 119.242 238.985 119.267 239.546M122.211 255.244C121.695 255.387 121.161 255.084 121.018 254.568L122.211 255.244ZM121.018 254.568C119.707 249.836 119.497 244.933 119.295 240.212L121.018 254.568ZM119.295 240.212C119.286 239.99 119.276 239.768 119.267 239.546L119.295 240.212Z" fill="#EF3975"/>
<path fill-rule="evenodd" clip-rule="evenodd" d="M133.88 171.788C133.927 171.401 133.968 171.062 133.967 171.069C133.972 171.034 133.975 170.998 133.977 170.963C133.986 170.728 133.994 170.496 134.002 170.267C134.033 169.397 134.063 168.557 134.136 167.714L134.136 167.713C134.195 167.02 134.367 166.24 134.561 165.36C134.655 164.932 134.754 164.481 134.848 164.004C135.114 162.661 135.336 161.107 134.958 159.805C134.809 159.29 134.271 158.994 133.756 159.143C133.242 159.293 132.946 159.831 133.095 160.345C133.327 161.143 133.214 162.267 132.945 163.628C132.873 163.995 132.787 164.385 132.7 164.782C132.491 165.732 132.274 166.724 132.204 167.548M133.463 171.696C133.464 171.696 133.461 171.692 133.456 171.684C133.461 171.693 133.463 171.697 133.463 171.696ZM128.564 161.818C128.282 161.805 127.997 161.906 127.783 162.121C127.601 162.304 127.532 162.509 127.503 162.622C127.447 162.841 127.461 163.053 127.472 163.164C127.497 163.423 127.567 163.722 127.633 163.968C127.702 164.227 127.782 164.484 127.843 164.676C127.92 164.916 127.942 164.975 127.94 164.968C127.941 164.972 127.942 164.977 127.944 164.981C128.099 165.517 128.259 166.069 128.434 166.622C128.317 166.521 128.209 166.419 128.107 166.309C127.743 165.916 127.129 165.893 126.736 166.257C126.343 166.621 126.32 167.235 126.684 167.628C127.057 168.03 127.519 168.385 127.89 168.67C127.978 168.738 128.062 168.802 128.138 168.862L128.139 168.863L128.139 168.863C128.333 169.015 128.548 169.238 128.824 169.524C128.883 169.585 128.944 169.649 129.009 169.716C129.32 170.036 129.75 170.471 130.2 170.719C130.247 170.745 130.326 170.786 130.431 170.814C130.54 170.843 130.801 170.892 131.092 170.759C131.137 170.738 131.179 170.715 131.218 170.69C131.221 170.703 131.225 170.715 131.229 170.728L131.229 170.73C131.244 170.779 131.264 170.882 131.303 171.086L131.305 171.098C131.338 171.275 131.381 171.501 131.435 171.725C131.489 171.948 131.564 172.213 131.674 172.455C131.771 172.667 131.967 173.03 132.352 173.246L132.354 173.244C132.542 173.321 132.915 173.364 133.104 173.328C133.243 173.274 133.45 173.141 133.522 173.074C133.637 172.955 133.693 172.835 133.705 172.807L133.706 172.805C133.74 172.732 133.757 172.669 133.761 172.656L133.761 172.654C133.771 172.617 133.777 172.586 133.779 172.579L133.779 172.578C133.783 172.557 133.786 172.538 133.787 172.53C133.79 172.511 133.793 172.488 133.796 172.467C133.802 172.423 133.81 172.363 133.818 172.294C133.836 172.156 133.858 171.971 133.88 171.788M129.401 162.955C129.401 162.955 129.401 162.958 129.402 162.966C129.402 162.959 129.401 162.955 129.401 162.955Z" fill="#EF3975"/>
<path d="M188.939 208.922C186.759 207.809 184.881 207.164 179.803 207.769C178.166 207.965 177.838 211.055 180.16 210.684C183.771 210.105 186.086 210.753 188.586 210.971C189.471 211.052 190.224 209.581 188.939 208.922Z" fill="#E88E67"/>
<path d="M168.188 211.169C168.573 209.207 168.015 208.213 165.107 207.718C161.32 207.074 157.41 207.562 154.004 208.927C153.011 209.327 150.768 210.368 150.873 211.759C150.916 212.344 152.301 211.813 152.598 211.729C164.908 208.312 167.84 212.945 168.188 211.169Z" fill="#E88E67"/>
<path d="M184.022 216.914C184.455 218.701 184.138 221.507 182.737 222.824C181.306 224.164 179.665 220.997 179.607 219.945C179.483 217.831 179.989 217.336 182.027 216.874C182.504 216.768 183.894 216.379 184.022 216.914Z" fill="#2E2E2E"/>
<path d="M162.161 218.27C162.644 220.243 162.33 223.329 160.828 224.763C159.298 226.222 157.492 222.721 157.416 221.564C157.264 219.238 157.806 218.7 160.005 218.208C160.517 218.095 162.018 217.68 162.161 218.27Z" fill="#2E2E2E"/>
<path d="M174.198 229.756C174.708 230.578 174.198 229.761 173.576 227.126C173.305 225.975 172.465 224.107 173.239 217.148C173.547 214.408 174.682 212.904 174.297 212.584C173.907 212.257 173.458 213.134 173.233 213.352C172.306 214.255 171.794 215.59 171.68 216.883C171.311 220.952 172.069 226.322 174.198 229.756Z" fill="#E88E67"/>
<path d="M177.085 234.312C177.507 234.84 177.045 235.839 176.641 236.224C174.577 238.193 172.996 238.01 170.25 237.258C169.724 237.114 169.216 236.968 168.69 236.992C168.622 236.995 168.024 237.127 168.012 237.108C167.831 236.872 168.563 236.581 168.65 236.552C169.457 236.277 170.438 236.553 171.321 236.629C172.374 236.721 173.366 236.705 174.373 236.502C174.985 236.378 175.763 235.966 176.08 235.392C176.229 235.116 176.808 233.967 177.085 234.312Z" fill="#E88E67"/>
<path d="M173.918 243.013C173.918 243.013 174.03 245.296 173.362 246.703C170.988 251.712 162.424 241.942 163.008 241.935C163.008 241.935 164.089 243.469 169.562 244.162C173.456 244.656 174.35 243.129 174.463 243.335" fill="white"/>
<path d="M161.082 240.179C161.082 240.179 162.023 241.186 162.919 241.623C164.268 242.282 165.864 242.477 166.761 242.598C170.126 243.046 173.148 241.256 174.7 241.351C176.251 241.448 176.051 243.744 175.108 243.971C174.143 244.202 170.575 245.79 164.882 243.2C164.856 243.188 164.829 243.176 164.803 243.163C162.704 242.198 161.156 240.919 161.082 240.179Z" fill="#AD36FF"/>
<path d="M174.141 248.993C173.618 250.016 172.745 250.181 171.469 250.098C168.882 249.931 166.684 248.581 165.01 245.613C163.645 243.191 161.339 240.846 161.384 240.821C161.598 240.703 163.987 242.965 164.122 243.152C166.455 246.296 171.853 248.122 173.364 246.701C174.123 245.989 174.811 247.679 174.141 248.993Z" fill="#AD36FF"/>
<path d="M159.17 241.87C159.28 242.123 159.919 240.663 160.117 240.356C160.354 239.986 161.9 238.182 161.51 237.607C161.084 236.986 159.892 237.943 159.649 238.309C158.987 239.305 158.73 240.894 159.17 241.87Z" fill="#E88E67"/>
<path d="M180.4 216.246C181.398 216.159 182.351 216.017 183.33 215.795C183.836 215.682 186.111 214.623 186.595 214.929C187.203 215.311 185.259 216.694 185.048 216.774C182.744 217.655 180.732 218.35 178.253 217.502C177.685 217.313 179.491 216.33 180.4 216.246Z" fill="#2E2E2E"/>
<path d="M158.914 217.606C159.993 217.515 161.023 217.373 162.078 217.137C162.624 217.017 165.071 215.874 165.597 216.212C166.258 216.638 164.167 218.145 163.944 218.229C161.462 219.175 159.293 219.921 156.604 218.971C155.994 218.753 157.932 217.69 158.914 217.606Z" fill="#2E2E2E"/>
<path d="M151.171 269.02C151.119 269.049 151.066 269.077 151.013 269.104L151.171 269.02Z" fill="#E88E67"/>
<path d="M150.547 270.184C150.55 270.32 150.554 270.457 150.557 270.593L150.547 270.184Z" fill="#E88E67"/>
<path fill-rule="evenodd" clip-rule="evenodd" d="M227.07 448.056C227.07 448.472 227.502 448.81 228.034 448.81H477.867C478.4 448.81 478.832 448.472 478.832 448.056C478.832 447.639 478.4 447.302 477.867 447.302H228.034C227.502 447.302 227.07 447.639 227.07 448.056Z" fill="#4B48D8"/>
<path d="M16.8521 280.136C16.249 280.136 15.7602 279.647 15.7602 279.044V270.502C15.7602 269.899 16.249 269.41 16.8521 269.41C17.4552 269.41 17.944 269.899 17.944 270.502V279.044C17.944 279.647 17.4552 280.136 16.8521 280.136Z" fill="#4099FF"/>
<path d="M21.1232 275.866H12.5812C11.9784 275.866 11.4893 275.377 11.4893 274.774C11.4893 274.171 11.9784 273.682 12.5812 273.682H21.1232C21.7263 273.682 22.2151 274.171 22.2151 274.774C22.2151 275.377 21.7263 275.866 21.1232 275.866Z" fill="#4099FF"/>
<path d="M475.397 368.629C474.794 368.629 474.308 368.141 474.308 367.537V352.516C474.308 351.913 474.794 351.423 475.397 351.423C475.999 351.423 476.491 351.913 476.491 352.516V367.537C476.491 368.141 475.999 368.629 475.397 368.629Z" fill="#AD36FF"/>
<path d="M482.908 361.117H467.89C467.283 361.117 466.792 360.629 466.792 360.025C466.792 359.422 467.283 358.934 467.89 358.934H482.908C483.509 358.934 484 359.422 484 360.025C484 360.629 483.509 361.117 482.908 361.117Z" fill="#AD36FF"/>
<path fill-rule="evenodd" clip-rule="evenodd" d="M439.247 158.441C439.247 159.446 440.062 160.261 441.068 160.261C442.079 160.261 442.888 159.446 442.888 158.441V157.349C442.888 156.344 442.079 155.529 441.068 155.529C440.062 155.529 439.247 156.344 439.247 157.349V158.441ZM439.247 168.692C439.247 169.697 440.062 170.512 441.068 170.512C442.079 170.512 442.888 169.697 442.888 168.692V166.327C442.888 165.322 442.079 164.507 441.068 164.507C440.062 164.507 439.247 165.322 439.247 166.327V168.692ZM439.247 178.944C439.247 179.949 440.062 180.764 441.068 180.764C442.079 180.764 442.888 179.949 442.888 178.944V176.578C442.888 175.573 442.079 174.758 441.068 174.758C440.062 174.758 439.247 175.573 439.247 176.578V178.944ZM441.068 189.742C440.062 189.742 439.247 188.927 439.247 187.922V186.83C439.247 185.825 440.062 185.01 441.068 185.01C442.079 185.01 442.888 185.825 442.888 186.83V187.922C442.888 188.927 442.079 189.742 441.068 189.742ZM425.786 174.455H426.873C427.878 174.455 428.695 173.64 428.695 172.635C428.695 171.63 427.878 170.815 426.873 170.815H425.786C424.776 170.815 423.964 171.63 423.964 172.635C423.964 173.64 424.776 174.455 425.786 174.455ZM437.127 174.455H434.765C433.758 174.455 432.942 173.64 432.942 172.635C432.942 171.63 433.758 170.815 434.765 170.815H437.127C438.134 170.815 438.95 171.63 438.95 172.635C438.95 173.64 438.134 174.455 437.127 174.455ZM447.384 174.455H445.017C444.009 174.455 443.193 173.64 443.193 172.635C443.193 171.63 444.009 170.815 445.017 170.815H447.384C448.386 170.815 449.201 171.63 449.201 172.635C449.201 173.64 448.386 174.455 447.384 174.455ZM455.263 174.455H456.356C457.363 174.455 458.176 173.64 458.176 172.635C458.176 171.63 457.363 170.815 456.356 170.815H455.263C454.261 170.815 453.442 171.63 453.442 172.635C453.442 173.64 454.261 174.455 455.263 174.455Z" fill="#7A3EC7"/>
<path d="M257.382 121.293C256.781 121.293 256.289 120.806 256.289 120.205V111.661C256.289 111.056 256.781 110.569 257.382 110.569C257.987 110.569 258.474 111.056 258.474 111.661V120.205C258.474 120.806 257.987 121.293 257.382 121.293Z" fill="#7A3EC7"/>
<path d="M261.653 117.024H253.112C252.507 117.024 252.017 116.538 252.017 115.933C252.017 115.333 252.507 114.843 253.112 114.843H261.653C262.254 114.843 262.744 115.333 262.744 115.933C262.744 116.538 262.254 117.024 261.653 117.024Z" fill="#7A3EC7"/>
<path d="M383.721 173.581C399.191 201.813 379.638 216.234 380.398 234.043C376.528 248.387 345.218 207.73 344.732 188.771C344.24 169.812 374.471 162.314 383.721 173.581Z" fill="#F18C2F"/>
<path d="M383.719 173.58C380.916 177.777 372.143 178.569 370.95 187.344C369.369 198.986 360.457 197.058 360.914 207.718C357.042 222.063 345.217 207.73 344.73 188.771C350.7 194.415 365.02 196.743 366.954 188.275C370.498 172.711 381.796 175.515 383.719 173.58Z" fill="#E6721E"/>
<path d="M311.903 189.631C311.818 189.587 303.346 184.053 303.21 178.749C305.65 180.088 307.707 179.861 306.934 179.116C303.356 175.668 303.346 167.505 307.311 162.611C309.017 160.503 310.955 159.101 312.907 158.187C311.728 159.902 310.458 164.547 310.985 163.748C316.937 154.674 325.48 157.291 325.48 157.291C337.58 133.287 391.61 153.932 383.72 173.581C381.401 174.271 363.619 164.168 344.471 192.908C339.518 190.617 334.705 202.995 329.746 200.691C325.078 198.522 312.701 190.051 311.903 189.631Z" fill="#FFAA5B"/>
<path d="M372.92 263.333C373.005 262.998 366.44 274.698 364.666 278.157C363.214 280.987 358.294 291.125 357.046 294.034C354.985 298.861 348.583 318.286 348.152 323.117C348.008 324.704 356.466 310.683 358.101 308.386C362.332 302.463 366.024 300.051 369.026 297.963C369.026 297.963 371.335 293.27 372.479 290.951C374.511 286.828 380.387 281.679 380.387 281.679C381.12 275.633 377.142 263.233 372.212 266.181" fill="#6ACBA8"/>
<path d="M402.683 259.206C403.059 256.135 400.158 248.771 396.031 245.988C394.402 244.229 378.916 232.505 372.168 220.114C371.307 220.641 371.119 222.668 370.732 223.507C368.946 227.371 366.127 230.964 364.462 234.881C363.719 236.639 352.538 250.247 352.625 250.536C354.437 256.3 361.007 261.283 362.177 268.157C363.134 273.762 361.134 284.116 361.943 289.671C362.437 293.052 376.152 285.423 377.755 284.104C387.654 277.82 401.481 268.989 402.683 259.206Z" fill="#FFA985"/>
<path d="M402.683 259.206C403.059 256.135 400.158 248.771 396.031 245.988C394.402 244.229 378.916 232.505 372.168 220.114C371.307 220.641 371.119 222.668 370.732 223.507C368.946 227.371 366.127 230.964 364.462 234.881C363.719 236.639 352.538 250.247 352.625 250.536C354.437 256.3 362.299 263.823 362.177 268.157C363.134 273.762 361.134 284.116 361.943 289.671C362.437 293.052 376.152 285.423 377.755 284.104C387.654 277.82 401.481 268.989 402.683 259.206Z" fill="#B07C4C"/>
<path d="M357.337 245.468C358.043 243.809 360.104 242.416 361.057 240.828C362.107 239.082 361.739 256.469 359.015 261.183C356.829 257.936 354.105 254.395 352.895 251.284C354.521 249.342 356.867 246.584 357.337 245.468Z" fill="#9A6330"/>
<mask id="path-55-outside-1" maskUnits="userSpaceOnUse" x="314.579" y="258.211" width="149" height="166" fill="black">
<rect fill="white" x="314.579" y="258.211" width="149" height="166"/>
<path fill-rule="evenodd" clip-rule="evenodd" d="M316.126 423.203C316.479 423.259 316.811 423.018 316.867 422.664C322.179 389.124 328.596 357.517 346.058 328.265L346.058 328.265C348.413 324.318 351.761 318.818 355.402 313.582C359.053 308.331 362.962 303.4 366.435 300.552C373.746 294.556 381.059 289.805 388.985 284.655C389.288 284.458 389.592 284.26 389.897 284.062C397.366 279.208 403.533 272.956 409.707 266.628C410.132 266.193 410.518 265.479 410.874 264.777C410.981 264.568 411.087 264.355 411.193 264.141C411.463 263.597 411.737 263.047 412.034 262.526C412.449 261.796 412.864 261.213 413.287 260.865C413.682 260.541 414.023 260.462 414.404 260.598L414.404 260.598C414.544 260.648 414.762 260.771 415.062 260.994C415.353 261.21 415.687 261.495 416.056 261.835C416.795 262.515 417.639 263.385 418.505 264.299C418.816 264.628 419.131 264.963 419.444 265.296C419.993 265.881 420.536 266.459 421.041 266.982C421.83 267.799 422.568 268.524 423.141 268.966C436.241 279.066 444.758 292.989 452.745 307.462C456.081 313.517 458.798 319.945 461.16 326.526C461.281 326.863 461.652 327.038 461.989 326.917C462.326 326.796 462.501 326.425 462.38 326.088C460.002 319.464 457.259 312.97 453.88 306.836L453.88 306.836C445.889 292.355 437.263 278.218 423.933 267.939L423.933 267.939C423.444 267.562 422.767 266.903 421.973 266.082C421.473 265.564 420.943 264.999 420.399 264.42C420.085 264.085 419.766 263.746 419.446 263.408C418.579 262.492 417.708 261.594 416.934 260.882C416.547 260.525 416.176 260.207 415.835 259.954C415.502 259.706 415.162 259.492 414.84 259.378L414.622 259.988L414.84 259.378C414.84 259.378 414.84 259.378 414.84 259.378C413.918 259.048 413.108 259.335 412.464 259.863C411.849 260.369 411.34 261.126 410.908 261.884C410.591 262.439 410.292 263.042 410.016 263.596C409.914 263.803 409.815 264.002 409.719 264.19C409.345 264.926 409.042 265.454 408.779 265.723L408.779 265.723C402.594 272.063 396.521 278.212 389.19 282.975L389.19 282.975C388.879 283.178 388.569 283.379 388.259 283.581C380.348 288.721 372.981 293.507 365.613 299.55C361.991 302.52 357.996 307.581 354.338 312.842C350.67 318.116 347.304 323.648 344.945 327.6C344.945 327.6 344.945 327.6 344.945 327.6L345.48 327.919L344.945 327.6C327.345 357.083 320.901 388.907 315.587 422.461C315.531 422.815 315.772 423.147 316.126 423.203Z"/>
</mask>
<path fill-rule="evenodd" clip-rule="evenodd" d="M316.126 423.203C316.479 423.259 316.811 423.018 316.867 422.664C322.179 389.124 328.596 357.517 346.058 328.265L346.058 328.265C348.413 324.318 351.761 318.818 355.402 313.582C359.053 308.331 362.962 303.4 366.435 300.552C373.746 294.556 381.059 289.805 388.985 284.655C389.288 284.458 389.592 284.26 389.897 284.062C397.366 279.208 403.533 272.956 409.707 266.628C410.132 266.193 410.518 265.479 410.874 264.777C410.981 264.568 411.087 264.355 411.193 264.141C411.463 263.597 411.737 263.047 412.034 262.526C412.449 261.796 412.864 261.213 413.287 260.865C413.682 260.541 414.023 260.462 414.404 260.598L414.404 260.598C414.544 260.648 414.762 260.771 415.062 260.994C415.353 261.21 415.687 261.495 416.056 261.835C416.795 262.515 417.639 263.385 418.505 264.299C418.816 264.628 419.131 264.963 419.444 265.296C419.993 265.881 420.536 266.459 421.041 266.982C421.83 267.799 422.568 268.524 423.141 268.966C436.241 279.066 444.758 292.989 452.745 307.462C456.081 313.517 458.798 319.945 461.16 326.526C461.281 326.863 461.652 327.038 461.989 326.917C462.326 326.796 462.501 326.425 462.38 326.088C460.002 319.464 457.259 312.97 453.88 306.836L453.88 306.836C445.889 292.355 437.263 278.218 423.933 267.939L423.933 267.939C423.444 267.562 422.767 266.903 421.973 266.082C421.473 265.564 420.943 264.999 420.399 264.42C420.085 264.085 419.766 263.746 419.446 263.408C418.579 262.492 417.708 261.594 416.934 260.882C416.547 260.525 416.176 260.207 415.835 259.954C415.502 259.706 415.162 259.492 414.84 259.378L414.622 259.988L414.84 259.378C414.84 259.378 414.84 259.378 414.84 259.378C413.918 259.048 413.108 259.335 412.464 259.863C411.849 260.369 411.34 261.126 410.908 261.884C410.591 262.439 410.292 263.042 410.016 263.596C409.914 263.803 409.815 264.002 409.719 264.19C409.345 264.926 409.042 265.454 408.779 265.723L408.779 265.723C402.594 272.063 396.521 278.212 389.19 282.975L389.19 282.975C388.879 283.178 388.569 283.379 388.259 283.581C380.348 288.721 372.981 293.507 365.613 299.55C361.991 302.52 357.996 307.581 354.338 312.842C350.67 318.116 347.304 323.648 344.945 327.6C344.945 327.6 344.945 327.6 344.945 327.6L345.48 327.919L344.945 327.6C327.345 357.083 320.901 388.907 315.587 422.461C315.531 422.815 315.772 423.147 316.126 423.203Z" fill="#7D40FF"/>
<path d="M316.867 422.664L317.361 422.742V422.742L316.867 422.664ZM316.126 423.203L316.047 423.697H316.047L316.126 423.203ZM346.058 328.265L346.496 328.506C346.493 328.511 346.49 328.516 346.487 328.521L346.058 328.265ZM346.058 328.265L345.62 328.024C345.623 328.018 345.626 328.013 345.629 328.008L346.058 328.265ZM355.402 313.582L354.991 313.296V313.296L355.402 313.582ZM366.435 300.552L366.752 300.939L366.752 300.939L366.435 300.552ZM388.985 284.655L389.257 285.074H389.257L388.985 284.655ZM389.897 284.062L389.624 283.643L389.624 283.643L389.897 284.062ZM409.707 266.628L409.349 266.279L409.349 266.279L409.707 266.628ZM410.874 264.777L410.429 264.551H410.429L410.874 264.777ZM411.193 264.141L411.641 264.363L411.193 264.141ZM412.034 262.526L411.599 262.278L412.034 262.526ZM413.287 260.865L412.97 260.479L413.287 260.865ZM414.404 260.598L414.257 261.076C414.25 261.074 414.243 261.072 414.236 261.069L414.404 260.598ZM414.404 260.598L414.551 260.12C414.558 260.123 414.565 260.125 414.572 260.127L414.404 260.598ZM415.062 260.994L415.36 260.593L415.36 260.593L415.062 260.994ZM416.056 261.835L416.395 261.467H416.395L416.056 261.835ZM418.505 264.299L418.868 263.955V263.955L418.505 264.299ZM419.444 265.296L419.808 264.954H419.808L419.444 265.296ZM421.041 266.982L420.682 267.33L421.041 266.982ZM423.141 268.966L423.447 268.57L423.447 268.57L423.141 268.966ZM452.745 307.462L453.183 307.22L453.183 307.22L452.745 307.462ZM461.16 326.526L461.631 326.357V326.357L461.16 326.526ZM462.38 326.088L461.91 326.257V326.257L462.38 326.088ZM453.88 306.836L454.316 306.591L454.318 306.595L453.88 306.836ZM453.88 306.836L453.445 307.081L453.442 307.077L453.88 306.836ZM423.933 267.939L424.236 267.542L424.238 267.543L423.933 267.939ZM423.933 267.939L423.63 268.337L423.628 268.335L423.933 267.939ZM421.973 266.082L422.333 265.734L421.973 266.082ZM420.399 264.42L420.764 264.078L420.399 264.42ZM419.446 263.408L419.083 263.752L419.446 263.408ZM416.934 260.882L417.273 260.514L417.273 260.514L416.934 260.882ZM415.835 259.954L416.133 259.552L415.835 259.954ZM414.622 259.988L415.093 260.156C415 260.416 414.714 260.552 414.454 260.459C414.194 260.366 414.058 260.08 414.151 259.82L414.622 259.988ZM414.84 259.378L415.043 258.921C415.282 259.027 415.399 259.3 415.311 259.546L414.84 259.378ZM412.464 259.863L412.782 260.25L412.464 259.863ZM410.908 261.884L410.473 261.637V261.637L410.908 261.884ZM410.016 263.596L409.568 263.374L410.016 263.596ZM409.719 264.19L409.273 263.964H409.273L409.719 264.19ZM408.779 265.723L409.137 266.072L409.133 266.076L408.779 265.723ZM408.779 265.723L408.421 265.373L408.426 265.369L408.779 265.723ZM389.19 282.975L388.896 282.571C388.903 282.566 388.911 282.561 388.918 282.556L389.19 282.975ZM389.19 282.975L389.484 283.38C389.477 283.385 389.47 283.39 389.463 283.394L389.19 282.975ZM388.259 283.581L388.531 284L388.259 283.581ZM365.613 299.55L365.93 299.937L365.93 299.937L365.613 299.55ZM354.338 312.842L353.927 312.556L354.338 312.842ZM344.945 327.6L344.513 327.348C344.58 327.233 344.691 327.149 344.82 327.116C344.949 327.083 345.087 327.103 345.201 327.171L344.945 327.6ZM345.48 327.919L345.736 327.49C345.973 327.632 346.05 327.939 345.909 328.176C345.767 328.413 345.461 328.49 345.223 328.349L345.48 327.919ZM315.587 422.461L315.093 422.383V422.383L315.587 422.461ZM317.361 422.742C317.262 423.369 316.674 423.796 316.047 423.697L316.204 422.709C316.285 422.722 316.361 422.667 316.373 422.586L317.361 422.742ZM346.487 328.521C329.078 357.684 322.672 389.208 317.361 422.742L316.373 422.586C321.686 389.04 328.113 357.35 345.629 328.008L346.487 328.521ZM346.496 328.506L346.496 328.506L345.62 328.024L345.62 328.024L346.496 328.506ZM355.812 313.867C352.181 319.089 348.841 324.577 346.487 328.521L345.629 328.008C347.985 324.06 351.34 318.547 354.991 313.296L355.812 313.867ZM366.752 300.939C363.337 303.739 359.46 308.62 355.812 313.867L354.991 313.296C358.645 308.042 362.587 303.061 366.118 300.166L366.752 300.939ZM389.257 285.074C381.328 290.226 374.039 294.963 366.752 300.939L366.118 300.166C373.454 294.149 380.789 289.383 388.712 284.235L389.257 285.074ZM390.169 284.481C389.864 284.679 389.56 284.877 389.257 285.074L388.712 284.235C389.015 284.038 389.319 283.841 389.624 283.643L390.169 284.481ZM410.065 266.977C403.896 273.301 397.692 279.593 390.169 284.481L389.624 283.643C397.04 278.824 403.171 272.612 409.349 266.279L410.065 266.977ZM411.32 265.004C410.97 265.693 410.552 266.478 410.065 266.977L409.349 266.279C409.711 265.908 410.066 265.265 410.429 264.551L411.32 265.004ZM411.641 264.363C411.535 264.577 411.428 264.792 411.32 265.004L410.429 264.551C410.534 264.344 410.639 264.133 410.745 263.918L411.641 264.363ZM412.468 262.773C412.18 263.28 411.912 263.817 411.641 264.363L410.745 263.918C411.015 263.377 411.294 262.814 411.599 262.278L412.468 262.773ZM413.605 261.251C413.255 261.538 412.878 262.055 412.468 262.773L411.599 262.278C412.021 261.538 412.472 260.887 412.97 260.479L413.605 261.251ZM414.236 261.069C414.124 261.029 414.043 261.027 413.966 261.046C413.881 261.066 413.765 261.12 413.605 261.251L412.97 260.479C413.204 260.286 413.456 260.139 413.736 260.072C414.023 260.004 414.303 260.031 414.572 260.127L414.236 261.069ZM414.257 261.076L414.257 261.076L414.551 260.12L414.551 260.12L414.257 261.076ZM414.763 261.395C414.476 261.182 414.306 261.094 414.236 261.069L414.572 260.127C414.782 260.202 415.048 260.361 415.36 260.593L414.763 261.395ZM415.718 262.203C415.355 261.869 415.035 261.597 414.763 261.395L415.36 260.593C415.67 260.823 416.019 261.121 416.395 261.467L415.718 262.203ZM418.142 264.643C417.277 263.73 416.443 262.871 415.718 262.203L416.395 261.467C417.147 262.16 418.002 263.041 418.868 263.955L418.142 264.643ZM419.079 265.638C418.766 265.305 418.452 264.971 418.142 264.643L418.868 263.955C419.18 264.285 419.496 264.621 419.808 264.954L419.079 265.638ZM420.682 267.33C420.173 266.803 419.628 266.223 419.079 265.638L419.808 264.954C420.358 265.539 420.898 266.115 421.401 266.635L420.682 267.33ZM422.836 269.362C422.23 268.895 421.469 268.144 420.682 267.33L421.401 266.635C422.191 267.453 422.906 268.153 423.447 268.57L422.836 269.362ZM452.307 307.703C444.322 293.233 435.846 279.393 422.836 269.362L423.447 268.57C436.635 278.739 445.195 292.744 453.183 307.22L452.307 307.703ZM460.69 326.695C458.333 320.131 455.626 313.729 452.307 307.703L453.183 307.22C456.535 313.306 459.262 319.76 461.631 326.357L460.69 326.695ZM462.158 327.388C461.561 327.602 460.904 327.292 460.69 326.695L461.631 326.357C461.659 326.434 461.743 326.474 461.82 326.447L462.158 327.388ZM462.851 325.919C463.065 326.516 462.755 327.174 462.158 327.388L461.82 326.447C461.897 326.419 461.937 326.334 461.91 326.257L462.851 325.919ZM454.318 306.595C457.713 312.758 460.467 319.279 462.851 325.919L461.91 326.257C459.537 319.65 456.804 313.181 453.442 307.077L454.318 306.595ZM454.316 306.59L454.316 306.591L453.445 307.082L453.445 307.081L454.316 306.59ZM424.238 267.543C437.658 277.891 446.325 292.111 454.318 306.594L453.442 307.077C445.453 292.6 436.869 278.545 423.628 268.335L424.238 267.543ZM424.236 267.541L424.236 267.542L423.63 268.337L423.63 268.337L424.236 267.541ZM422.333 265.734C423.128 266.557 423.782 267.192 424.238 267.543L423.628 268.335C423.106 267.933 422.405 267.248 421.614 266.429L422.333 265.734ZM420.764 264.078C421.308 264.658 421.836 265.22 422.333 265.734L421.614 266.429C421.111 265.908 420.578 265.341 420.035 264.762L420.764 264.078ZM419.809 263.064C420.13 263.403 420.449 263.743 420.764 264.078L420.035 264.762C419.72 264.428 419.402 264.089 419.083 263.752L419.809 263.064ZM417.273 260.514C418.061 261.239 418.941 262.148 419.809 263.064L419.083 263.752C418.216 262.837 417.356 261.95 416.596 261.25L417.273 260.514ZM416.133 259.552C416.494 259.82 416.879 260.151 417.273 260.514L416.596 261.25C416.215 260.899 415.858 260.594 415.536 260.355L416.133 259.552ZM415.008 258.907C415.4 259.047 415.787 259.295 416.133 259.552L415.536 260.355C415.217 260.117 414.923 259.938 414.672 259.848L415.008 258.907ZM414.151 259.82L414.369 259.21L415.311 259.546L415.093 260.156L414.151 259.82ZM415.311 259.546L415.093 260.156L414.151 259.82L414.369 259.209L415.311 259.546ZM415.043 258.921C415.032 258.916 415.022 258.912 415.016 258.91C415.01 258.908 415.005 258.906 415.006 258.906C415.006 258.906 415.006 258.906 415.006 258.906C415.006 258.906 415.006 258.906 415.006 258.906C415.006 258.906 415.006 258.906 415.006 258.906C415.006 258.906 415.007 258.906 415.007 258.906C415.007 258.907 415.008 258.907 415.009 258.907C415.01 258.908 415.013 258.909 415.016 258.91C415.023 258.912 415.032 258.916 415.043 258.921L414.637 259.835C414.648 259.839 414.657 259.843 414.664 259.846C414.669 259.848 414.674 259.849 414.673 259.849H414.673C414.673 259.849 414.673 259.849 414.673 259.849C414.673 259.849 414.673 259.849 414.673 259.849C414.673 259.849 414.673 259.849 414.673 259.849C414.673 259.849 414.673 259.849 414.673 259.849C414.672 259.849 414.672 259.849 414.671 259.848C414.669 259.848 414.667 259.847 414.663 259.845C414.657 259.843 414.648 259.839 414.637 259.834L415.043 258.921ZM412.147 259.477C412.885 258.871 413.876 258.502 415.008 258.907L414.671 259.848C413.96 259.594 413.33 259.799 412.782 260.25L412.147 259.477ZM410.473 261.637C410.911 260.867 411.458 260.043 412.147 259.477L412.782 260.25C412.241 260.694 411.768 261.385 411.342 262.132L410.473 261.637ZM409.568 263.374C409.843 262.821 410.149 262.206 410.473 261.637L411.342 262.132C411.034 262.672 410.741 263.262 410.464 263.819L409.568 263.374ZM409.273 263.964C409.368 263.778 409.466 263.581 409.568 263.374L410.464 263.819C410.362 264.025 410.261 264.226 410.165 264.417L409.273 263.964ZM408.422 265.373C408.621 265.169 408.892 264.714 409.273 263.964L410.165 264.417C409.798 265.139 409.462 265.739 409.137 266.072L408.422 265.373ZM408.426 265.369L408.426 265.369L409.133 266.076L409.133 266.076L408.426 265.369ZM388.918 282.556C396.196 277.827 402.232 271.718 408.421 265.374L409.137 266.072C402.956 272.408 396.847 278.596 389.463 283.394L388.918 282.556ZM388.896 282.571L388.896 282.571L389.485 283.38L389.484 283.38L388.896 282.571ZM387.986 283.161C388.296 282.96 388.607 282.758 388.918 282.556L389.463 283.394C389.151 283.597 388.841 283.799 388.531 284L387.986 283.161ZM365.296 299.163C372.689 293.101 380.078 288.3 387.986 283.161L388.531 284C380.617 289.142 373.273 293.914 365.93 299.937L365.296 299.163ZM353.927 312.556C357.588 307.291 361.616 302.181 365.296 299.163L365.93 299.937C362.365 302.86 358.403 307.87 354.748 313.127L353.927 312.556ZM344.516 327.344C346.876 323.389 350.249 317.846 353.927 312.556L354.748 313.127C351.09 318.387 347.732 323.906 345.374 327.857L344.516 327.344ZM344.513 327.348C344.516 327.344 344.518 327.341 344.519 327.339C344.52 327.337 344.52 327.337 344.52 327.336C344.521 327.336 344.521 327.336 344.521 327.336C344.521 327.335 344.521 327.335 344.521 327.335C344.521 327.335 344.521 327.335 344.521 327.335C344.521 327.335 344.521 327.335 344.521 327.335C344.521 327.335 344.521 327.335 344.521 327.335C344.521 327.335 344.52 327.337 344.519 327.338C344.518 327.341 344.516 327.344 344.513 327.348L345.377 327.852C345.374 327.857 345.372 327.86 345.371 327.862C345.37 327.863 345.37 327.864 345.369 327.865C345.369 327.865 345.369 327.865 345.369 327.865C345.369 327.865 345.369 327.865 345.369 327.865C345.369 327.865 345.369 327.865 345.369 327.865C345.369 327.865 345.369 327.865 345.369 327.865C345.369 327.865 345.369 327.865 345.369 327.865C345.369 327.866 345.37 327.864 345.371 327.862C345.372 327.86 345.374 327.857 345.377 327.852L344.513 327.348ZM345.201 327.171L345.736 327.49L345.223 328.349L344.689 328.03L345.201 327.171ZM345.223 328.349L344.689 328.03L345.201 327.171L345.736 327.49L345.223 328.349ZM315.093 422.383C320.408 388.823 326.863 356.916 344.516 327.344L345.374 327.857C327.828 357.25 321.394 388.991 316.081 422.54L315.093 422.383ZM316.047 423.697C315.421 423.598 314.994 423.009 315.093 422.383L316.081 422.54C316.068 422.62 316.123 422.696 316.204 422.709L316.047 423.697Z" fill="#7D40FF" mask="url(#path-55-outside-1)"/>
<path d="M374.188 316.588C374.499 316.394 387.448 297.212 397.15 288.927C405.566 281.732 413.609 273.551 417.664 263.852C418.769 261.207 418.349 257.211 416.539 253.161C414.745 249.144 411.965 245.83 409.098 244.295C408.418 243.93 407.63 243.7 406.749 243.614C403.197 243.263 399.058 245.28 397.326 246.234C398.944 248.351 402.901 253.869 402.896 257.172C402.88 266.813 393.681 273.272 385.565 278.971C381.785 281.626 332.039 307.938 316.98 417.163C339.678 351.119 357.413 333.807 363.687 328.603C363.698 328.594 363.677 328.587 363.677 328.572C364.237 319.12 365.59 314.713 366.876 313.162C367.955 311.85 373.281 315.509 374.188 316.588Z" fill="#5F3EE1"/>
<path fill-rule="evenodd" clip-rule="evenodd" d="M316.782 417.995C317.211 418.097 317.647 417.857 317.79 417.441C340.461 351.473 358.128 334.326 364.234 329.261L364.242 329.255C364.316 329.192 364.419 329.082 364.486 328.915C364.544 328.767 364.556 328.62 364.539 328.489C364.819 323.86 365.289 320.488 365.839 318.096C366.389 315.7 367 314.377 367.505 313.745C367.515 313.743 367.527 313.741 367.543 313.74C367.654 313.729 367.845 313.744 368.128 313.819C368.691 313.967 369.413 314.295 370.178 314.725C370.934 315.148 371.689 315.646 372.307 316.102C372.947 316.573 373.377 316.953 373.534 317.139C373.808 317.464 374.28 317.539 374.641 317.314C374.722 317.264 374.777 317.21 374.792 317.196C374.803 317.185 374.813 317.175 374.822 317.166C374.832 317.155 374.841 317.145 374.848 317.137C374.875 317.108 374.9 317.077 374.921 317.051C374.965 316.996 375.018 316.927 375.077 316.848C375.196 316.688 375.36 316.463 375.561 316.183C375.731 315.948 375.924 315.678 376.142 315.373C376.455 314.937 376.819 314.43 377.237 313.849C378.644 311.898 380.59 309.23 382.827 306.312C387.315 300.458 392.93 293.656 397.706 289.578L397.706 289.577C406.142 282.366 414.317 274.076 418.454 264.182L418.454 264.182C419.689 261.224 419.175 256.96 417.321 252.811C415.477 248.683 412.588 245.192 409.503 243.54C408.711 243.115 407.811 242.857 406.832 242.762C404.881 242.569 402.825 243.027 401.078 243.624C399.32 244.226 397.805 244.993 396.914 245.484C396.695 245.605 396.54 245.814 396.489 246.058C396.438 246.301 396.496 246.556 396.647 246.753C397.446 247.799 398.815 249.675 399.979 251.687C400.562 252.693 401.084 253.717 401.458 254.678C401.837 255.649 402.041 256.498 402.04 257.17C402.033 261.693 399.879 265.519 396.644 268.964C393.399 272.42 389.148 275.41 385.074 278.27C384.909 278.386 384.634 278.56 384.26 278.796C382.662 279.805 379.251 281.959 374.823 285.667C369.341 290.257 362.248 297.26 354.808 307.603C339.925 328.293 323.679 362.313 316.133 417.046C316.073 417.482 316.354 417.893 316.782 417.995ZM409.503 243.54C409.502 243.54 409.502 243.54 409.502 243.54L409.098 244.294L409.503 243.541C409.503 243.54 409.503 243.54 409.503 243.54ZM367.482 313.75C367.482 313.75 367.482 313.75 367.484 313.75C367.482 313.75 367.481 313.751 367.482 313.75ZM364.351 328.05C364.352 328.051 364.352 328.052 364.354 328.054C364.341 328.038 364.337 328.033 364.351 328.05ZM319.159 408.388C327.132 359.079 342.314 327.903 356.197 308.603C363.549 298.383 370.542 291.483 375.922 286.979C380.228 283.374 383.467 281.325 385.118 280.28C385.536 280.016 385.852 279.815 386.058 279.671L386.099 279.642C390.129 276.812 394.516 273.731 397.892 270.135C401.291 266.515 403.744 262.292 403.752 257.173C403.753 256.194 403.465 255.115 403.053 254.056C402.636 252.987 402.069 251.88 401.461 250.829C400.507 249.181 399.429 247.632 398.613 246.523C399.426 246.115 400.476 245.639 401.632 245.244C403.276 244.682 405.064 244.307 406.665 244.465L406.666 244.465C407.45 244.542 408.126 244.744 408.693 245.048L408.694 245.049C411.344 246.468 414.014 249.605 415.758 253.509L416.539 253.16L415.758 253.509C417.523 257.46 417.849 261.189 416.875 263.522C412.902 273.025 404.992 281.098 396.594 288.276C391.668 292.483 385.958 299.414 381.469 305.271C379.217 308.208 377.261 310.89 375.849 312.848C375.435 313.422 375.061 313.944 374.743 314.388C374.524 314.693 374.332 314.961 374.172 315.183C374.14 315.228 374.109 315.271 374.079 315.312C373.849 315.122 373.592 314.922 373.322 314.724C372.654 314.231 371.839 313.694 371.015 313.232C370.201 312.775 369.333 312.367 368.565 312.164C368.183 312.063 367.774 311.999 367.384 312.036C366.985 312.073 366.54 312.225 366.217 312.616C365.443 313.551 364.747 315.202 364.171 317.712C363.601 320.193 363.127 323.605 362.843 328.194C356.462 333.572 340.114 350.171 319.159 408.388Z" fill="#7D40FF"/>
<path d="M247.606 273.123C247.606 273.123 246.171 270.15 249.785 270.051C251.568 270.003 275.263 278.625 279.629 279.928C280.299 280.128 280.916 280.488 281.377 281.005C282.329 282.079 281.895 282.919 281.895 282.919C281.895 282.919 275.42 289.566 263.687 286.565C251.959 283.564 247.606 273.123 247.606 273.123Z" fill="#75C1E1"/>
<path d="M247.606 273.124C247.606 273.124 259.077 327.833 260.878 332.064C262.678 336.294 278.719 345.213 281.437 341.21C282.18 340.117 282.293 325.503 282.219 311.183C282.211 308.586 282.193 305.998 282.167 303.502C282.067 292.279 281.893 282.92 281.893 282.92C279.858 287.053 254.507 277.153 247.606 273.124Z" fill="#8267F1"/>
<path d="M262.137 290.85C259.493 292.144 261.834 297.708 264.865 295.86C267.295 294.378 264.312 289.789 262.137 290.85Z" fill="#2E2E2E"/>
<path d="M252.353 278.581C250.537 278.184 250.904 280.178 252.219 280.543C253.475 280.891 253.876 278.914 252.353 278.581Z" fill="#2E2E2E"/>
<path d="M308.838 414.816C293.713 387.944 275.752 351.04 267.519 345.225C257.96 340.336 249.239 320.998 249.295 318.482C243.744 303.207 246.768 293.196 249.633 290.705C252.305 288.378 260.777 311.974 269.47 311.875C278.682 311.77 276.019 302.307 280.952 296.102C281.627 295.258 285.71 290.624 286.995 292.1C287.511 292.695 286.123 300.536 285.954 301.71C284.754 310.073 287.15 318.822 288.828 327.238C291.219 339.237 323.958 377.026 331.497 388.006C332.477 389.429 333.471 390.838 334.488 392.232C337.723 396.68 311.482 419.508 308.838 414.816Z" fill="#BA804B"/>
<path d="M336.165 392.395C341.879 389.848 359.423 409.094 365.206 402.623C375.095 391.544 370.469 364.654 372.437 351.024C375.302 331.16 380.565 313.225 391.239 301.998C394.778 298.28 399.325 295.645 404.354 294.616C415.808 292.271 423.48 299.105 430.372 312.186C434.404 319.846 434.695 332.226 435.274 340.648C438.282 384.523 411.66 444.145 385.68 465.779C359.699 487.414 302.036 436.323 310.588 423.428C315.761 414.598 317.044 417.069 323.888 409.408C328.345 404.414 330.053 395.129 336.165 392.395Z" fill="#6C4AF5"/>
<path d="M336.165 392.395C341.879 389.848 359.423 409.094 365.206 402.623C375.095 391.544 370.469 364.654 372.437 351.024C375.302 331.16 380.565 313.225 391.239 301.998C394.778 298.28 399.325 295.645 404.354 294.616C415.808 292.271 423.48 299.106 430.372 312.186C434.404 319.846 434.695 332.226 435.274 340.648C438.282 384.523 411.66 444.145 385.68 465.779C359.699 487.414 302.036 436.323 310.588 423.428C315.761 414.598 317.044 417.069 323.888 409.408C328.345 404.414 330.053 395.129 336.165 392.395Z" stroke="#8A61FF" stroke-width="2" stroke-linecap="round" stroke-linejoin="round"/>
<path d="M337.309 394.726C341.924 391.104 334.664 383.585 333.773 384C330.657 385.441 327.786 391.687 325.947 394.435C321.521 401.041 315.699 407.989 310.358 413.969C307.317 417.368 303.051 419.625 307.138 423.815C310.919 427.683 313.592 423.094 316.901 420.069C322.355 415.079 326.777 409.252 331.543 403.92C333.943 401.234 334.438 396.982 337.309 394.726Z" fill="#6C4AF5"/>
<path d="M337.309 394.726C341.924 391.104 334.664 383.585 333.773 384C330.657 385.441 327.786 391.687 325.947 394.435C321.521 401.041 315.699 407.989 310.358 413.969C307.317 417.368 303.051 419.625 307.138 423.815C310.919 427.683 313.592 423.094 316.901 420.069C322.355 415.079 326.777 409.252 331.543 403.92C333.943 401.234 334.438 396.982 337.309 394.726Z" stroke="#8A61FF" stroke-width="2" stroke-linecap="round" stroke-linejoin="round"/>
<path d="M314.119 415.985C314.219 417.564 312.255 419.85 311.401 417.837C310.547 415.799 313.955 413.357 314.119 415.985Z" fill="#8A61FF"/>
<path d="M367.461 204.055C367.471 202.381 368.361 201.566 370.446 200.598C376.984 197.565 379.015 207.725 379.02 212.145C378.966 223.083 374.078 216.902 372.116 225.441C366.779 236.295 361.926 244.052 353.644 253.087C348.465 258.738 335.607 258.051 332.073 253.86C327.393 247.527 318.691 235.045 317.436 229.528C317.035 227.758 315.454 218.96 314.935 217.179C314.392 215.299 313.265 209.69 312.346 208.001C308.61 201.138 311.906 189.631 311.906 189.631C319.709 193.969 343.558 181.442 348.801 185.796C354.039 190.149 351.88 196.733 357.879 197.326C363.429 197.874 362.589 204.488 363.468 209.326C364.259 213.694 367.436 207.459 367.461 204.055Z" fill="#BA804B"/>
<path d="M350.536 204.514C350.817 202.881 347.794 202.349 346.64 201.862C343.965 200.734 339.773 200.563 336.959 201.54C335.972 201.883 334.465 202.361 334.046 203.782C333.76 204.734 335.181 205.179 335.619 205.222C337.665 205.424 339.639 204.433 341.68 204.114C343.841 203.778 346.01 203.987 348.09 204.536C348.752 204.711 350.359 205.567 350.536 204.514Z" fill="#554135"/>
<path d="M323.096 206.974C322.673 206.005 321.196 205.627 320.349 205.585C318.95 205.516 311.795 206.65 311.583 208.981C311.495 209.92 313.626 209.581 314.146 209.592C316.585 209.646 319.787 209.327 322.116 208.597C322.953 208.335 323.575 208.066 323.096 206.974Z" fill="#554135"/>
<path d="M346.201 210.619C346.177 209.803 340.996 209.476 339.972 209.973C339.744 209.958 339.763 214.582 340.91 215.965C342.048 217.338 344.612 216.535 345.418 215.202C346.177 213.944 343.826 212.716 346.201 210.619Z" fill="#554135"/>
<path d="M322.138 214.746C322.207 214.205 318.741 213.795 317.449 214.992C316.842 215.047 317.771 218.697 318.644 219.814C319.577 221.003 321.678 221.39 322.276 219.65C322.809 218.118 320.694 216.787 322.138 214.746Z" fill="#554135"/>
<path d="M327.502 213.987C327.344 213.863 328.719 220.688 328.868 222.126C329.091 224.348 329.002 226.731 328.538 228.921C328.533 228.936 327.739 231.866 327.897 231.919C327.952 231.939 328.515 231.362 328.58 231.301C329.527 230.364 330.145 229.065 330.359 227.743C330.824 224.838 330.238 221.937 329.509 219.127C329.072 217.454 328.937 215.127 327.502 213.987Z" fill="#9A6330"/>
<path fill-rule="evenodd" clip-rule="evenodd" d="M333.653 235.793C334.788 235.684 335.851 235.266 336.87 234.717C337.114 234.587 337.79 234.23 338.414 233.996C338.567 233.938 338.693 233.897 338.793 233.869C339.115 234.054 339.511 234.106 339.891 233.981C340.603 233.747 340.99 232.98 340.756 232.268C340.58 231.732 340.18 231.393 339.761 231.232C339.4 231.094 339.05 231.095 338.817 231.113C338.344 231.151 337.847 231.31 337.459 231.456C336.649 231.76 335.832 232.196 335.59 232.325L335.587 232.327L335.587 232.327C334.737 232.784 334.033 233.03 333.393 233.092C332.778 233.151 332.142 233.049 331.402 232.673C330.734 232.334 329.917 232.6 329.578 233.269C329.239 233.937 329.506 234.753 330.174 235.093C331.341 235.685 332.491 235.905 333.653 235.793ZM339.042 233.818C339.042 233.818 339.039 233.818 339.032 233.818C339.038 233.818 339.042 233.818 339.042 233.818Z" fill="#9A6330"/>
<path d="M340.891 245.132C343.26 244.237 345.324 240.239 348.71 234.674C348.71 234.674 345.552 236.838 345.176 237.023C342.618 238.276 333.491 239.94 333.491 239.94C334.328 241.385 337.049 246.585 340.891 245.132Z" fill="#2E2E2E"/>
<path d="M335.219 241.85C337.647 243.217 342.948 241.48 344.518 239.042C344.902 238.448 346.486 236.69 346.106 236.875C343.55 238.128 335.195 239.288 335.195 239.288C335.195 239.288 333.858 240.91 335.219 241.85Z" fill="white"/>
<path d="M347.049 241.727C345.663 249.619 342.75 250.452 339.466 248.323C341.089 248.885 343.167 247.391 343.931 246.672C345.464 245.23 347.049 241.727 347.049 241.727Z" fill="#9A6330"/>
<path fill-rule="evenodd" clip-rule="evenodd" d="M353.017 233.364C353.385 233.168 353.523 232.711 353.327 232.344C353.028 231.784 352.581 230.984 351.998 230.3C351.425 229.63 350.622 228.954 349.586 228.852C349.172 228.811 348.803 229.114 348.762 229.528C348.721 229.943 349.024 230.312 349.438 230.352C349.894 230.397 350.37 230.715 350.851 231.279C351.321 231.829 351.704 232.504 351.997 233.054C352.194 233.421 352.65 233.56 353.017 233.364Z" fill="#9A6330"/>
<path d="M350.503 232.201C350.946 231.86 350.236 233.465 348.495 235.171C346.477 237.158 343.821 238.411 340.992 239.56C339.6 240.126 333.051 241.801 332.455 239.838C332.455 239.838 333.056 238.524 337.697 238.372C346.959 238.068 350.269 232.38 350.503 232.201Z" fill="#9A6330"/>
<path d="M328.462 157.777C331.612 158.163 334.649 159.469 337.081 161.511C339.89 163.872 341.879 167.201 342.615 170.798C340.736 169.636 338.535 168.99 336.325 168.949C337.898 171.888 340.051 174.882 343.281 175.724" stroke="#FFE0C4" stroke-width="1.8" stroke-linecap="round" stroke-linejoin="round"/>
<path fill-rule="evenodd" clip-rule="evenodd" d="M375.404 434.335C376.425 434.791 377.629 434.924 378.757 434.452C380.748 433.624 381.602 431.365 381.496 429.479C381.389 427.6 380.51 425.903 379.725 424.455M375.404 434.335C374.387 433.881 373.491 433.082 372.932 432.109L375.404 434.335ZM376.102 432.773C375.409 432.463 374.791 431.91 374.415 431.256C373.625 429.882 373.578 428.121 373.842 426.325C373.887 426.016 373.942 425.686 373.998 425.345C374.128 424.568 374.267 423.731 374.322 422.936C374.404 421.757 374.32 420.506 373.73 419.328C373.484 418.836 373.058 418.364 372.55 418.084C372.036 417.8 371.262 417.639 370.581 418.163L370.579 418.165C370.045 418.578 369.889 419.236 369.816 419.546C369.812 419.561 369.809 419.575 369.806 419.588L369.804 419.593C369.458 421.072 369.11 422.551 368.762 424.03C368.49 425.189 368.217 426.348 367.945 427.508C367.865 427.289 367.836 426.996 367.823 426.574C367.789 425.241 367.845 423.884 367.92 422.5C367.936 422.207 367.953 421.912 367.97 421.616C368.032 420.524 368.094 419.415 368.119 418.317C368.181 415.522 368 412.677 366.882 409.979C366.701 409.542 366.2 409.335 365.764 409.516C365.327 409.697 365.12 410.197 365.301 410.634C366.282 413.003 366.468 415.564 366.408 418.279C366.384 419.344 366.323 420.414 366.262 421.502C366.245 421.803 366.228 422.104 366.211 422.408C366.136 423.8 366.076 425.215 366.112 426.62L366.113 426.623C366.127 427.117 366.155 427.855 366.528 428.505L366.531 428.511C366.743 428.872 367.067 429.18 367.449 429.369C367.834 429.559 368.334 429.652 368.84 429.471C369.114 429.373 369.32 429.143 369.386 428.86C369.732 427.381 370.08 425.902 370.428 424.422C370.776 422.944 371.124 421.465 371.47 419.986C371.513 419.808 371.545 419.692 371.583 419.601C371.596 419.571 371.607 419.55 371.615 419.537C371.638 419.542 371.674 419.555 371.723 419.582C371.902 419.681 372.095 419.884 372.2 420.094C372.596 420.886 372.686 421.789 372.615 422.818C372.566 423.53 372.449 424.226 372.327 424.959C372.266 425.321 372.204 425.692 372.148 426.078C371.867 427.994 371.85 430.23 372.932 432.109M376.102 432.773C376.793 433.081 377.497 433.124 378.097 432.873L376.102 432.773ZM379.787 429.576C379.869 431.024 379.188 432.419 378.099 432.872L378.097 432.873M379.787 429.576C379.705 428.128 379.02 426.746 378.22 425.269C374.871 419.075 370.972 413.181 366.586 407.677C366.291 407.308 366.352 406.769 366.722 406.475C367.091 406.18 367.63 406.241 367.924 406.61C372.373 412.193 376.329 418.172 379.725 424.455" fill="#8A61FF"/>
<path d="M285.587 248.949C290.395 246.033 294.669 242.06 298.03 237.099C310.512 218.678 305.698 193.626 287.278 181.145C268.859 168.664 243.807 173.479 231.325 191.901C218.843 210.322 223.657 235.375 242.076 247.855C250.651 253.665 260.66 255.726 270.166 254.413C273.163 257.678 273.695 260.458 274.671 268.556C281.957 262.686 284.94 255.114 285.587 248.949Z" fill="#00EC7E"/>
<path fill-rule="evenodd" clip-rule="evenodd" d="M266.161 216.086C266.452 215.518 266.228 214.822 265.66 214.531L263.14 213.238C260.878 212.079 259.551 209.956 259.551 207.727V207.406C259.551 204.795 261.936 202.482 265.133 202.482C268.335 202.482 270.719 204.796 270.719 207.406C270.719 208.044 271.236 208.561 271.874 208.561C272.512 208.561 273.029 208.044 273.029 207.406C273.029 203.302 269.38 200.172 265.133 200.172C260.889 200.172 257.241 203.302 257.241 207.406V207.727C257.241 210.908 259.132 213.779 262.086 215.293C262.086 215.293 262.087 215.293 262.087 215.293C262.087 215.294 262.087 215.294 262.087 215.294L264.606 216.586C265.173 216.877 265.869 216.653 266.161 216.086Z" fill="white"/>
<path fill-rule="evenodd" clip-rule="evenodd" d="M265.133 228.462C261.842 228.462 259.551 226.412 259.551 223.883V223.537C259.551 222.899 259.034 222.382 258.396 222.382C257.758 222.382 257.241 222.899 257.241 223.537V223.883C257.241 228.069 260.983 230.771 265.133 230.771C269.38 230.771 273.029 227.642 273.029 223.537V223.389C273.029 220.207 271.133 217.337 268.184 215.823L265.659 214.53C265.092 214.239 264.396 214.464 264.105 215.032C263.814 215.6 264.039 216.295 264.607 216.586L267.129 217.878C267.129 217.878 267.129 217.878 267.13 217.878C269.389 219.038 270.719 221.161 270.719 223.389V223.537C270.719 226.148 268.335 228.462 265.133 228.462Z" fill="white"/>
<path fill-rule="evenodd" clip-rule="evenodd" d="M264.899 235.475C265.537 235.475 266.054 234.958 266.054 234.32V195.626C266.054 194.988 265.537 194.471 264.899 194.471C264.261 194.471 263.744 194.988 263.744 195.626V234.32C263.744 234.958 264.261 235.475 264.899 235.475Z" fill="white"/>
<path fill-rule="evenodd" clip-rule="evenodd" d="M314.174 91.7032C305.03 77.7876 308.898 59.0942 322.814 49.9503C336.73 40.8064 355.423 44.6745 364.567 58.5901C373.711 72.5057 369.843 91.1991 355.927 100.343C342.011 109.487 323.318 105.619 314.174 91.7032ZM315.751 89.7567C307.562 77.2947 311.027 60.5539 323.489 52.3651L324.763 51.5277C337.225 43.3389 353.966 46.8031 362.155 59.2651L362.992 60.5395C371.181 73.0015 367.717 89.7423 355.255 97.9311L353.98 98.7684C341.518 106.957 324.777 103.493 316.589 91.0311L315.751 89.7567ZM345.029 87.1189L347.445 90.795L349.742 89.2856L347.255 85.5016C350.595 82.4191 350.826 78.4106 348.937 75.5353C346.808 72.2958 343.672 71.6461 338.921 72.5814C334.891 73.3557 332.922 73.2912 331.68 71.3999C330.722 69.9419 330.678 67.5728 333.481 65.731C335.812 64.1994 337.828 64.0257 338.878 63.958L338.209 60.9566C336.751 61.0317 334.876 61.4278 332.645 62.7926L330.323 59.2596L328.067 60.742L330.484 64.4195C327.492 67.1668 326.852 70.8711 328.837 73.8911C330.917 77.0568 334.314 77.222 338.982 76.2428C342.393 75.5628 344.624 75.8705 345.937 77.87C347.301 79.9453 346.537 82.5868 343.955 84.2833C341.916 85.6229 339.564 86.1752 337.684 86.1633L338.412 89.1731C340.28 89.2486 342.895 88.4677 345.029 87.1189Z" fill="#7D40FF"/>
<path opacity="0.8" fill-rule="evenodd" clip-rule="evenodd" d="M65.5727 61.3467C74.651 27.4659 109.476 7.35946 143.357 16.4378C177.238 25.5161 197.344 60.3415 188.266 94.2223C179.188 128.103 144.362 148.21 110.482 139.131C76.6008 130.053 56.4944 95.2275 65.5727 61.3467ZM69.1087 62.2951C77.6636 30.3678 110.481 11.4208 142.408 19.9757C174.335 28.5306 193.283 61.3478 184.728 93.2751C176.173 125.202 143.355 144.149 111.428 135.595C79.5009 127.04 60.5539 94.2224 69.1087 62.2951ZM116.015 103.461L113.617 112.411L119.209 113.91L121.678 104.697C131.206 105.631 137.836 100.379 139.711 93.3781C141.825 85.4907 138.452 79.6468 130.325 73.4842C123.46 68.2291 120.804 65.0423 122.037 60.4375C122.989 56.8875 126.654 53.4995 133.479 55.3282C139.154 56.8488 142.251 59.7763 143.829 61.3334L147.614 56.0765C145.452 53.8877 142.202 51.4933 136.929 49.8956L139.234 41.2938L133.742 39.8221L131.342 48.7761C122.83 47.9198 116.106 52.1027 114.135 59.4555C112.07 67.1632 116.57 72.7392 124.651 78.7104C130.5 83.1231 133.141 87.0625 131.836 91.9309C130.482 96.9836 125.256 99.482 118.97 97.7976C114.006 96.4677 109.842 93.5419 107.227 90.5675L103.511 95.9292C106.011 98.9741 110.903 101.993 116.015 103.461Z" fill="#4C0293"/>
</svg>
