<svg width="44" height="44" viewBox="0 0 44 44" fill="none" xmlns="http://www.w3.org/2000/svg">
<path d="M43.35 22C43.35 10.2087 33.7913 0.650024 22 0.650024C10.2087 0.650024 0.650024 10.2087 0.650024 22C0.650024 33.7913 10.2087 43.35 22 43.35C33.7913 43.35 43.35 33.7913 43.35 22Z" stroke="#FFCFEA" stroke-width="1.3"/>
<path d="M28.971 10.366C28.4215 9.80899 27.7675 9.3658 27.0465 9.06181C26.3255 8.75783 25.5517 8.59901 24.7692 8.59446C23.9867 8.58991 23.2111 8.73971 22.4866 9.03529C21.7621 9.33087 21.103 9.76642 20.547 10.317L20.498 10.366L15.547 15.317C15.4498 15.3716 15.3696 15.4518 15.315 15.549L10.333 20.525C9.21595 21.6469 8.59027 23.1666 8.59364 24.7497C8.59702 26.3329 9.22917 27.8499 10.351 28.967C11.4729 30.0841 12.9926 30.7098 14.5758 30.7064C16.1589 30.703 17.6759 30.0709 18.793 28.949L18.799 28.943L23.775 23.949C23.8456 23.9028 23.9059 23.8426 23.952 23.772L28.922 18.79C30.0456 17.6794 30.6819 16.168 30.6911 14.5882C30.7003 13.0084 30.0816 11.4896 28.971 10.366ZM17.931 28.081C17.0434 28.9735 15.8375 29.4767 14.5788 29.4801C13.32 29.4835 12.1115 28.9867 11.219 28.099C10.3266 27.2113 9.82331 26.0055 9.81994 24.7467C9.81656 23.488 10.3134 22.2795 11.201 21.387L15.871 16.717L22.571 23.429L17.931 28.081ZM28.06 17.915L23.433 22.555L16.733 15.855L21.367 11.221C22.2547 10.3333 23.4587 9.83465 24.714 9.83465C25.9694 9.83465 27.1734 10.3333 28.061 11.221C28.9487 12.1087 29.4474 13.3127 29.4474 14.568C29.4474 15.8234 28.9487 17.0273 28.061 17.915H28.06Z" fill="#F143A5"/>
<path d="M23.317 13.103C23.2615 13.0449 23.1948 12.9985 23.121 12.9666C23.0472 12.9347 22.9677 12.918 22.8873 12.9174C22.8069 12.9169 22.7272 12.9325 22.6529 12.9633C22.5787 12.9942 22.5114 13.0396 22.455 13.097L20.34 15.175C20.231 15.2892 20.1704 15.4412 20.1711 15.5991C20.1719 15.757 20.2338 15.9084 20.3438 16.0216C20.4539 16.1348 20.6036 16.2009 20.7614 16.206C20.9192 16.2111 21.0729 16.1549 21.19 16.049L21.196 16.043L23.305 13.965C23.3625 13.9093 23.4084 13.8427 23.4401 13.7692C23.4718 13.6956 23.4887 13.6166 23.4898 13.5365C23.4909 13.4564 23.4762 13.3769 23.4466 13.3026C23.4169 13.2282 23.3729 13.1604 23.317 13.103Z" fill="#F143A5"/>
<path d="M32.9991 24.615L32.9931 24.609C32.4503 24.0582 31.8042 23.6198 31.0919 23.3189C30.3795 23.0179 29.6148 22.8604 28.8415 22.8553C28.0682 22.8502 27.3014 22.9976 26.5851 23.2891C25.8689 23.5806 25.2171 24.0104 24.6671 24.554L24.6121 24.609C23.7822 25.4378 23.2168 26.494 22.9873 27.6441C22.7577 28.7943 22.8744 29.9866 23.3224 31.0704C23.7705 32.1543 24.5299 33.0809 25.5046 33.7331C26.4793 34.3854 27.6255 34.734 28.7983 34.7348C29.9711 34.7356 31.1178 34.3887 32.0935 33.7379C33.0691 33.087 33.8298 32.1615 34.2794 31.0783C34.7291 29.9951 34.8474 28.8029 34.6195 27.6525C34.3916 26.502 33.8277 25.445 32.9991 24.615ZM24.0991 28.802C24.0969 27.9231 24.3413 27.0611 24.8044 26.3141C25.2675 25.5671 25.9308 24.9649 26.719 24.5759C27.5072 24.1869 28.3887 24.0267 29.2633 24.1135C30.138 24.2003 30.9707 24.5307 31.6671 25.067L25.0671 31.667C24.4395 30.8441 24.0991 29.838 24.0981 28.803L24.0991 28.802ZM32.1311 32.127C31.3228 32.933 30.2493 33.4178 29.1103 33.4914C27.9712 33.565 26.8443 33.2223 25.9391 32.527L32.5391 25.927C33.2374 26.8332 33.5813 27.963 33.5062 29.1046C33.4311 30.2462 32.9421 31.3212 32.1311 32.128V32.127Z" fill="#F143A5"/>
</svg>
