<svg width="121" height="33" viewBox="0 0 121 33" fill="none" xmlns="http://www.w3.org/2000/svg">
<path d="M79.0941 10.3049C80.2118 9.7246 81.457 9.43309 82.7161 9.45694C83.7519 9.44765 84.7778 9.65716 85.727 10.0718C86.6762 10.4864 87.5271 11.0968 88.2241 11.8629L88.6301 12.2889L92.9021 8.34793L92.5231 7.91193C91.3355 6.54516 89.8425 5.47762 88.1651 4.79593C86.35 4.07026 84.4097 3.7094 82.4551 3.73395C80.0997 3.701 77.7725 4.24881 75.6791 5.32895C73.7155 6.34521 72.0728 7.88683 70.9341 9.78195C69.8144 11.7389 69.2253 13.9543 69.2253 16.2089C69.2253 18.4635 69.8144 20.679 70.9341 22.6359C72.0656 24.5244 73.6952 26.065 75.6441 27.0889C77.7146 28.1704 80.0214 28.7202 82.3571 28.6889C84.0964 28.685 85.8254 28.4217 87.4871 27.9079C89.1131 27.4243 90.6418 26.6598 92.0041 25.6489L92.2431 25.4699L91.1781 16.3209H86.1881V22.2139C85.0799 22.7263 83.8709 22.9839 82.6501 22.9679C81.4074 22.9903 80.1797 22.6939 79.0841 22.1069C78.0731 21.5543 77.2374 20.729 76.6721 19.7249C76.0988 18.6375 75.7992 17.4267 75.7992 16.1974C75.7992 14.9682 76.0988 13.7574 76.6721 12.6699C77.2369 11.6664 78.0774 10.8457 79.0941 10.3049Z" fill="#5E00B9"/>
<path d="M118.546 9.8129C117.402 7.92636 115.771 6.38345 113.823 5.34689C111.741 4.28604 109.437 3.73303 107.1 3.73303C104.763 3.73303 102.459 4.28604 100.377 5.34689C98.4235 6.37658 96.7893 7.92187 95.6521 9.81491C94.5326 11.7601 93.9434 13.9651 93.9434 16.2094C93.9434 18.4537 94.5326 20.6587 95.6521 22.6039C96.7896 24.4972 98.4237 26.0431 100.377 27.0739C102.459 28.1348 104.763 28.6878 107.1 28.6878C109.437 28.6878 111.741 28.1348 113.823 27.0739C115.284 26.2683 116.568 25.1779 117.6 23.8672C118.632 22.5566 119.39 21.0523 119.831 19.4433C120.271 17.8344 120.384 16.1534 120.164 14.5C119.943 12.8465 119.393 11.2541 118.546 9.81689V9.8129ZM103.727 10.3129C104.765 9.751 105.927 9.45676 107.107 9.45676C108.287 9.45676 109.449 9.751 110.487 10.3129C111.476 10.8739 112.29 11.6985 112.838 12.6949C113.403 13.7805 113.699 14.9864 113.699 16.2104C113.699 17.4344 113.403 18.6403 112.838 19.7259C112.29 20.7219 111.476 21.5464 110.487 22.1079C109.449 22.6698 108.287 22.9641 107.107 22.9641C105.927 22.9641 104.765 22.6698 103.727 22.1079C102.739 21.5458 101.925 20.7215 101.376 19.7259C100.811 18.6403 100.516 17.4344 100.516 16.2104C100.516 14.9864 100.811 13.7805 101.376 12.6949C101.925 11.6995 102.739 10.8757 103.728 10.3149L103.727 10.3129Z" fill="#5E00B9"/>
<path d="M92.254 15.234V25.423L87.1541 20.33L82.0601 15.23L92.254 15.234Z" fill="#00EC7E"/>
<path d="M15.509 8.50796C14.0393 7.70075 12.3858 7.28735 10.709 7.30795C9.22753 7.28643 7.76381 7.63277 6.44904 8.31595C5.54614 8.79596 4.74554 9.44745 4.09204 10.2339V7.44397L0.998047 9.95096V32.9969H4.19806V23.6609C4.85648 24.4325 5.65872 25.0687 6.56006 25.534C7.84727 26.1812 9.27142 26.5087 10.712 26.489C12.3954 26.5151 14.0565 26.1015 15.531 25.289C16.9488 24.4929 18.1147 23.3149 18.8961 21.8889C19.6966 20.3478 20.1145 18.6366 20.1145 16.9C20.1145 15.1633 19.6966 13.4521 18.8961 11.9109C18.1082 10.4817 16.9346 9.30258 15.509 8.50796ZM10.537 10.193C11.6786 10.1796 12.803 10.4713 13.794 11.038C14.7593 11.595 15.5507 12.4093 16.08 13.39C16.6478 14.4632 16.9341 15.663 16.912 16.877C16.9328 18.0972 16.6467 19.3031 16.08 20.384C15.5577 21.3683 14.7654 22.1832 13.7961 22.733C12.7933 23.2776 11.6702 23.5629 10.5291 23.5629C9.3879 23.5629 8.26485 23.2776 7.26205 22.733C6.29911 22.1786 5.51251 21.3632 4.99304 20.3809C4.42613 19.3002 4.14003 18.0942 4.16104 16.874C4.13846 15.6599 4.42476 14.46 4.99304 13.387C5.51896 12.4082 6.30481 11.5937 7.26404 11.033C8.26181 10.4664 9.39274 10.1764 10.54 10.193H10.537Z" fill="#5E00B9"/>
<path d="M22.6311 2.50798L25.8311 0.000976562V26.315H22.6311V2.50798Z" fill="#5E00B9"/>
<path d="M35.6481 26.4939C33.8353 26.5848 32.0471 26.0445 30.5881 24.965C29.9672 24.4771 29.4692 23.8506 29.134 23.1357C28.7989 22.4208 28.6359 21.6372 28.6581 20.8479C28.635 20.0866 28.7856 19.3299 29.0983 18.6353C29.411 17.9408 29.8777 17.3264 30.4631 16.8389C31.6401 15.8389 33.5121 15.3389 36.0291 15.3389H41.4071V14.6069C41.4501 14.0054 41.3664 13.4015 41.1612 12.8345C40.956 12.2674 40.634 11.7497 40.2161 11.3149C39.2117 10.5031 37.9361 10.1038 36.6481 10.1979C35.5647 10.1948 34.4891 10.3799 33.4691 10.7449C32.5156 11.0767 31.6335 11.5856 30.8691 12.2449L30.5311 12.5449L30.4581 12.4159V8.99095C31.1665 8.56473 31.921 8.2202 32.7071 7.96395C34.0569 7.52258 35.4689 7.30075 36.8891 7.30695C38.9595 7.17567 41.0009 7.84718 42.5891 9.18195C43.2929 9.91203 43.8356 10.7818 44.1821 11.7349C44.5285 12.688 44.6709 13.7033 44.6001 14.7149V26.3209H41.5071V24.2629C40.9717 24.8433 40.3324 25.3182 39.6221 25.663C38.379 26.242 37.019 26.5264 35.6481 26.4939ZM36.0991 17.9069C33.2231 17.9069 31.8241 18.8429 31.8241 20.7699C31.805 21.1953 31.8915 21.6187 32.0757 22.0026C32.26 22.3864 32.5363 22.7187 32.8801 22.9699C33.8111 23.5833 34.9163 23.8774 36.0291 23.8079C37.2064 23.8411 38.3682 23.5327 39.3741 22.9199C40.294 22.3175 41.0038 21.4438 41.4051 20.4199V17.9069H36.0991Z" fill="#5E00B9"/>
<path d="M64.0731 9.39493C63.3123 8.68462 62.4169 8.13392 61.4398 7.7753C60.4627 7.41668 59.4237 7.25741 58.384 7.30692C56.8982 7.27754 55.4271 7.60505 54.0941 8.26193C53.2465 8.69243 52.4905 9.28335 51.868 10.0019V7.44492L48.774 9.95194V26.3179H51.9741V16.4349C51.9265 15.6095 52.0434 14.7828 52.3181 14.0029C52.5928 13.223 53.0197 12.5054 53.574 11.8919C54.1515 11.3364 54.8369 10.9054 55.5877 10.6256C56.3385 10.3457 57.1388 10.2229 57.939 10.2649C58.6257 10.22 59.3142 10.318 59.9611 10.5528C60.6079 10.7876 61.199 11.154 61.697 11.6289C62.6409 12.7572 63.1102 14.2076 63.006 15.6749V26.3179H66.2061V15.4349C66.2789 14.3361 66.1274 13.2339 65.7607 12.1956C65.394 11.1572 64.8198 10.2043 64.0731 9.39493Z" fill="#5E00B9"/>
</svg>
