<svg width="20" height="22" viewBox="0 0 20 22" fill="none" xmlns="http://www.w3.org/2000/svg">
<path d="M19.8 22H0V21.0139C0.00264685 18.6278 0.951723 16.3403 2.63898 14.6531C4.32623 12.9658 6.61386 12.0166 9 12.0139H10.8C13.1861 12.0166 15.4738 12.9658 17.161 14.6531C18.8483 16.3403 19.7973 18.6278 19.8 21.0139V22ZM1.29199 20.708H18.51C18.5118 19.7355 18.3207 18.7722 17.9479 17.874C17.5751 16.9758 17.0279 16.1605 16.338 15.4751C15.6526 14.7852 14.8372 14.2379 13.939 13.8652C13.0407 13.4926 12.0775 13.3019 11.105 13.304H8.69501C6.73217 13.3063 4.85043 14.0873 3.46259 15.4753C2.07474 16.8634 1.29411 18.7452 1.29199 20.708ZM4.68103 5.34912C4.68262 3.9307 5.24678 2.5706 6.24976 1.56763C7.25273 0.564651 8.61259 0.00061152 10.031 -0.000976562C11.4495 0.000611005 12.8095 0.56468 13.8126 1.56763C14.8158 2.57057 15.3802 3.93061 15.382 5.34912C15.3807 6.76798 14.8165 8.12821 13.8134 9.13159C12.8102 10.135 11.4499 10.6993 10.031 10.7009C8.61232 10.6991 7.2523 10.1347 6.24933 9.13135C5.24635 8.128 4.68235 6.76781 4.68103 5.34912ZM5.99799 5.34912C5.99904 6.41877 6.4244 7.44423 7.18066 8.20068C7.93693 8.95714 8.96233 9.38271 10.032 9.38403C11.1016 9.38271 12.1271 8.95714 12.8834 8.20068C13.6396 7.44423 14.0649 6.41877 14.066 5.34912C14.0647 4.27974 13.6392 3.25437 12.8829 2.49829C12.1267 1.74221 11.1014 1.31698 10.032 1.31592C8.96286 1.31724 7.93796 1.7427 7.18207 2.49878C6.42618 3.25486 6.00106 4.28 6 5.34912H5.99799Z" fill="#ECD9FF"/>
</svg>
